<svg width="1146" height="687" viewBox="0 0 1146 687" fill="none" xmlns="http://www.w3.org/2000/svg">
<g filter="url(#filter0_iiii_514_3193)">
<path d="M0 72C0 32.2355 32.2355 0 72 0H811.5C845.466 0 873 27.5345 873 61.5V61.5C873 95.4655 900.534 123 934.5 123H1074C1113.76 123 1146 155.235 1146 195V615C1146 654.765 1113.76 687 1074 687H72C32.2355 687 0 654.764 0 615L0 72Z" fill="#1C2129"/>
</g>
<g filter="url(#filter1_iiii_514_3193)">
<rect x="897" width="249" height="99" rx="49.5" fill="#1C2129"/>
</g>
<path d="M955.32 67H951.864L939.48 33.4H943.128L953.592 62.536L964.056 33.4H967.704L955.32 67ZM973.842 38.824C972.93 39.736 971.49 39.736 970.578 38.824C969.666 37.912 969.666 36.472 970.578 35.56C971.49 34.648 972.93 34.648 973.842 35.56C974.754 36.472 974.754 37.912 973.842 38.824ZM973.794 67H970.626V43H973.794V67ZM991.604 42.424C995.156 42.424 998.036 43.672 1000.2 46.216C1002.4 48.712 1003.51 51.688 1003.51 55.096C1003.51 55.432 1003.46 55.96 1003.41 56.584H982.34C982.964 61.432 986.756 64.504 991.892 64.504C995.54 64.504 998.276 62.872 999.62 60.424L1002.4 62.056C1000.29 65.464 996.5 67.576 991.844 67.576C988.052 67.576 984.98 66.376 982.628 64.024C980.276 61.672 979.076 58.648 979.076 55C979.076 51.4 980.228 48.424 982.58 46.024C984.932 43.624 987.908 42.424 991.604 42.424ZM991.604 45.496C986.612 45.496 982.964 48.76 982.34 53.512H1000.24C999.908 50.968 998.948 49 997.316 47.608C995.684 46.216 993.764 45.496 991.604 45.496ZM1030.6 62.92L1036.51 43H1039.77L1032.38 67H1028.92L1022.73 47.656L1016.54 67H1013.08L1005.69 43H1008.95L1014.86 62.92L1021.15 43H1024.31L1030.6 62.92Z" fill="white"/>
<path d="M1066 60.3996C1065.6 60.3996 1065.2 60.1996 1065 59.9996C1064.4 59.3996 1064.4 58.3996 1065 57.7996L1093 29.7996C1093.6 29.1996 1094.6 29.1996 1095.2 29.7996C1095.8 30.3996 1095.8 31.3996 1095.2 31.9996L1067.2 59.9996C1066.8 60.3996 1066.4 60.3996 1066 60.3996Z" fill="white"/>
<path d="M1074 28.8004L1094.6 28.8004C1095.4 28.8004 1096.2 29.4004 1096.2 30.4004L1096.2 50.8004C1096.2 51.6004 1095.6 52.4004 1094.6 52.4004C1093.6 52.4004 1093 51.8004 1093 50.8004L1093 31.8004L1074 31.8004C1073.2 31.8004 1072.4 31.2004 1072.4 30.2004C1072.4 29.2004 1073.2 28.8004 1074 28.8004Z" fill="white"/>
<path opacity="0.4" d="M1097 69.6014H1063C1062.2 69.6014 1061.4 69.0014 1061.4 68.0014C1061.4 67.0014 1062 66.4014 1063 66.4014H1097C1097.8 66.4014 1098.6 67.0014 1098.6 68.0014C1098.6 69.0014 1097.8 69.6014 1097 69.6014Z" fill="white"/>
<defs>
<filter id="filter0_iiii_514_3193" x="-3" y="-3" width="1152" height="693" filterUnits="userSpaceOnUse" color-interpolation-filters="sRGB">
<feFlood flood-opacity="0" result="BackgroundImageFix"/>
<feBlend mode="normal" in="SourceGraphic" in2="BackgroundImageFix" result="shape"/>
<feColorMatrix in="SourceAlpha" type="matrix" values="0 0 0 0 0 0 0 0 0 0 0 0 0 0 0 0 0 0 127 0" result="hardAlpha"/>
<feOffset dx="3" dy="3"/>
<feGaussianBlur stdDeviation="4.5"/>
<feComposite in2="hardAlpha" operator="arithmetic" k2="-1" k3="1"/>
<feColorMatrix type="matrix" values="0 0 0 0 0.0431373 0 0 0 0 0.0509804 0 0 0 0 0.0627451 0 0 0 0.9 0"/>
<feBlend mode="normal" in2="shape" result="effect1_innerShadow_514_3193"/>
<feColorMatrix in="SourceAlpha" type="matrix" values="0 0 0 0 0 0 0 0 0 0 0 0 0 0 0 0 0 0 127 0" result="hardAlpha"/>
<feOffset dx="-3" dy="-3"/>
<feGaussianBlur stdDeviation="3"/>
<feComposite in2="hardAlpha" operator="arithmetic" k2="-1" k3="1"/>
<feColorMatrix type="matrix" values="0 0 0 0 0.176471 0 0 0 0 0.207843 0 0 0 0 0.258824 0 0 0 0.9 0"/>
<feBlend mode="normal" in2="effect1_innerShadow_514_3193" result="effect2_innerShadow_514_3193"/>
<feColorMatrix in="SourceAlpha" type="matrix" values="0 0 0 0 0 0 0 0 0 0 0 0 0 0 0 0 0 0 127 0" result="hardAlpha"/>
<feOffset dx="3" dy="-3"/>
<feGaussianBlur stdDeviation="3"/>
<feComposite in2="hardAlpha" operator="arithmetic" k2="-1" k3="1"/>
<feColorMatrix type="matrix" values="0 0 0 0 0.0431373 0 0 0 0 0.0509804 0 0 0 0 0.0627451 0 0 0 0.2 0"/>
<feBlend mode="normal" in2="effect2_innerShadow_514_3193" result="effect3_innerShadow_514_3193"/>
<feColorMatrix in="SourceAlpha" type="matrix" values="0 0 0 0 0 0 0 0 0 0 0 0 0 0 0 0 0 0 127 0" result="hardAlpha"/>
<feOffset dx="-3" dy="3"/>
<feGaussianBlur stdDeviation="3"/>
<feComposite in2="hardAlpha" operator="arithmetic" k2="-1" k3="1"/>
<feColorMatrix type="matrix" values="0 0 0 0 0.0431373 0 0 0 0 0.0509804 0 0 0 0 0.0627451 0 0 0 0.2 0"/>
<feBlend mode="normal" in2="effect3_innerShadow_514_3193" result="effect4_innerShadow_514_3193"/>
</filter>
<filter id="filter1_iiii_514_3193" x="888" y="-9" width="267" height="117" filterUnits="userSpaceOnUse" color-interpolation-filters="sRGB">
<feFlood flood-opacity="0" result="BackgroundImageFix"/>
<feBlend mode="normal" in="SourceGraphic" in2="BackgroundImageFix" result="shape"/>
<feColorMatrix in="SourceAlpha" type="matrix" values="0 0 0 0 0 0 0 0 0 0 0 0 0 0 0 0 0 0 127 0" result="hardAlpha"/>
<feOffset dx="-9" dy="-9"/>
<feGaussianBlur stdDeviation="12"/>
<feComposite in2="hardAlpha" operator="arithmetic" k2="-1" k3="1"/>
<feColorMatrix type="matrix" values="0 0 0 0 0.0431373 0 0 0 0 0.0509804 0 0 0 0 0.0627451 0 0 0 0.9 0"/>
<feBlend mode="normal" in2="shape" result="effect1_innerShadow_514_3193"/>
<feColorMatrix in="SourceAlpha" type="matrix" values="0 0 0 0 0 0 0 0 0 0 0 0 0 0 0 0 0 0 127 0" result="hardAlpha"/>
<feOffset dx="9" dy="9"/>
<feGaussianBlur stdDeviation="9"/>
<feComposite in2="hardAlpha" operator="arithmetic" k2="-1" k3="1"/>
<feColorMatrix type="matrix" values="0 0 0 0 0.176471 0 0 0 0 0.207843 0 0 0 0 0.258824 0 0 0 0.9 0"/>
<feBlend mode="normal" in2="effect1_innerShadow_514_3193" result="effect2_innerShadow_514_3193"/>
<feColorMatrix in="SourceAlpha" type="matrix" values="0 0 0 0 0 0 0 0 0 0 0 0 0 0 0 0 0 0 127 0" result="hardAlpha"/>
<feOffset dx="-9" dy="9"/>
<feGaussianBlur stdDeviation="9"/>
<feComposite in2="hardAlpha" operator="arithmetic" k2="-1" k3="1"/>
<feColorMatrix type="matrix" values="0 0 0 0 0.0431373 0 0 0 0 0.0509804 0 0 0 0 0.0627451 0 0 0 0.2 0"/>
<feBlend mode="normal" in2="effect2_innerShadow_514_3193" result="effect3_innerShadow_514_3193"/>
<feColorMatrix in="SourceAlpha" type="matrix" values="0 0 0 0 0 0 0 0 0 0 0 0 0 0 0 0 0 0 127 0" result="hardAlpha"/>
<feOffset dx="9" dy="-9"/>
<feGaussianBlur stdDeviation="9"/>
<feComposite in2="hardAlpha" operator="arithmetic" k2="-1" k3="1"/>
<feColorMatrix type="matrix" values="0 0 0 0 0.0431373 0 0 0 0 0.0509804 0 0 0 0 0.0627451 0 0 0 0.2 0"/>
<feBlend mode="normal" in2="effect3_innerShadow_514_3193" result="effect4_innerShadow_514_3193"/>
</filter>
</defs>
</svg>
