<svg width="175" height="36" viewBox="0 0 175 36" fill="none" xmlns="http://www.w3.org/2000/svg">
<path d="M18.5751 35.576C13.4871 35.576 9.26306 33.896 5.95106 30.536C2.63906 27.176 0.959063 23.048 0.959063 18.2C0.959063 13.352 2.63906 9.224 5.95106 5.864C9.26306 2.504 13.4871 0.823999 18.5751 0.823999C24.7671 0.823999 30.2871 4.04 33.1191 9.08L30.1431 10.808C28.0311 6.728 23.5671 4.088 18.5751 4.088C14.3991 4.088 10.9431 5.432 8.30306 8.168C5.66306 10.904 4.31906 14.216 4.31906 18.2C4.31906 22.184 5.66306 25.496 8.30306 28.232C10.9431 30.968 14.3991 32.312 18.5751 32.312C23.5671 32.312 28.0311 29.672 30.1431 25.592L33.1191 27.272C30.3831 32.312 24.7671 35.576 18.5751 35.576ZM58.5703 15.704V11H61.7383V35H58.5703V30.296C56.3623 33.8 53.1463 35.576 48.8743 35.576C45.4663 35.576 42.5383 34.376 40.0903 31.928C37.6903 29.48 36.4903 26.504 36.4903 23C36.4903 19.496 37.6903 16.52 40.0903 14.072C42.5383 11.624 45.4663 10.424 48.8743 10.424C53.1463 10.424 56.3623 12.2 58.5703 15.704ZM42.3943 29.768C44.2183 31.592 46.4743 32.504 49.1143 32.504C51.7543 32.504 54.0103 31.592 55.8343 29.768C57.6583 27.896 58.5703 25.64 58.5703 23C58.5703 20.36 57.6583 18.104 55.8343 16.28C54.0103 14.408 51.7543 13.496 49.1143 13.496C46.4743 13.496 44.2183 14.408 42.3943 16.28C40.5703 18.104 39.6583 20.36 39.6583 23C39.6583 25.64 40.5703 27.896 42.3943 29.768ZM94.0299 10.424C99.4059 10.424 103.006 14.12 103.006 20.024V35H99.8379V20.024C99.8379 15.848 97.4859 13.496 93.9819 13.496C89.9979 13.496 87.3099 16.088 87.3099 21.704V35H84.1419V20.024C84.1419 15.8 81.9819 13.496 78.5259 13.496C74.6859 13.496 71.6139 16.136 71.6139 21.704V35H68.4459V11H71.6139V14.504C73.3419 11.768 75.7899 10.424 78.9579 10.424C82.4139 10.424 84.8619 11.864 86.2539 14.792C87.9819 11.864 90.5739 10.424 94.0299 10.424ZM120.221 10.424C123.773 10.424 126.653 11.672 128.813 14.216C131.021 16.712 132.125 19.688 132.125 23.096C132.125 23.432 132.077 23.96 132.029 24.584H110.957C111.581 29.432 115.373 32.504 120.509 32.504C124.157 32.504 126.893 30.872 128.237 28.424L131.021 30.056C128.909 33.464 125.117 35.576 120.461 35.576C116.669 35.576 113.597 34.376 111.245 32.024C108.893 29.672 107.693 26.648 107.693 23C107.693 19.4 108.845 16.424 111.197 14.024C113.549 11.624 116.525 10.424 120.221 10.424ZM120.221 13.496C115.229 13.496 111.581 16.76 110.957 21.512H128.861C128.525 18.968 127.565 17 125.933 15.608C124.301 14.216 122.381 13.496 120.221 13.496ZM140.333 11V14.984C141.821 12.056 144.317 10.616 147.917 10.616V13.688C143.549 13.688 140.333 16.136 140.333 21.656V35H137.165V11H140.333ZM171.445 15.704V11H174.613V35H171.445V30.296C169.237 33.8 166.021 35.576 161.749 35.576C158.341 35.576 155.413 34.376 152.965 31.928C150.565 29.48 149.365 26.504 149.365 23C149.365 19.496 150.565 16.52 152.965 14.072C155.413 11.624 158.341 10.424 161.749 10.424C166.021 10.424 169.237 12.2 171.445 15.704ZM155.269 29.768C157.093 31.592 159.349 32.504 161.989 32.504C164.629 32.504 166.885 31.592 168.709 29.768C170.533 27.896 171.445 25.64 171.445 23C171.445 20.36 170.533 18.104 168.709 16.28C166.885 14.408 164.629 13.496 161.989 13.496C159.349 13.496 157.093 14.408 155.269 16.28C153.445 18.104 152.533 20.36 152.533 23C152.533 25.64 153.445 27.896 155.269 29.768Z" fill="url(#paint0_linear_303_48320)"/>
<defs>
<linearGradient id="paint0_linear_303_48320" x1="-1" y1="22" x2="178" y2="22" gradientUnits="userSpaceOnUse">
<stop stop-color="#EC4899"/>
<stop offset="0.505208" stop-color="#EF4444"/>
<stop offset="1" stop-color="#EAB308"/>
</linearGradient>
</defs>
</svg>
