<svg width="148" height="35" viewBox="0 0 148 35" fill="none" xmlns="http://www.w3.org/2000/svg">
<path d="M0.0509378 0.399998H12.0509C15.0749 0.399998 17.5709 1.408 19.5869 3.424C21.6029 5.44 22.6109 7.936 22.6109 10.96C22.6109 13.984 21.6029 16.48 19.5869 18.496C17.5709 20.512 15.0749 21.52 12.0509 21.52H3.41094V34H0.0509378V0.399998ZM3.41094 18.352H12.0509C14.1149 18.352 15.8429 17.68 17.1869 16.288C18.5789 14.896 19.2509 13.12 19.2509 10.96C19.2509 8.8 18.5789 7.072 17.1869 5.68C15.8429 4.288 14.1149 3.568 12.0509 3.568H3.41094V18.352ZM31.0994 5.824C30.1874 6.736 28.7474 6.736 27.8354 5.824C26.9234 4.912 26.9234 3.472 27.8354 2.56C28.7474 1.648 30.1874 1.648 31.0994 2.56C32.0114 3.472 32.0114 4.912 31.0994 5.824ZM31.0514 34H27.8834V10H31.0514V34ZM48.9581 34.576C45.3581 34.576 42.3341 33.376 39.9341 30.976C37.5341 28.528 36.3341 25.552 36.3341 22C36.3341 18.448 37.5341 15.472 39.9341 13.072C42.3341 10.624 45.3581 9.424 48.9581 9.424C53.7101 9.424 57.7421 11.872 59.4701 15.712L56.8781 17.2C55.5821 14.32 52.5581 12.496 48.9581 12.496C46.3181 12.496 44.0621 13.408 42.2381 15.28C40.4141 17.104 39.5021 19.36 39.5021 22C39.5021 24.64 40.4141 26.896 42.2381 28.768C44.0621 30.592 46.3181 31.504 48.9581 31.504C52.5581 31.504 55.4861 29.68 57.0701 26.8L59.7101 28.336C57.7421 32.176 53.6141 34.576 48.9581 34.576ZM76.9784 10V13.072H70.0664V27.616C70.0664 31.744 72.3704 31.408 76.9784 31.216V34C70.2584 35.008 66.8984 33.184 66.8984 27.616V13.072H61.8584V10H66.8984V4.24L70.0664 3.28V10H76.9784ZM99.1544 22.576V10H102.322V34H99.1544V30.256C97.3784 33.136 94.6904 34.576 91.0904 34.576C85.2824 34.576 81.6824 30.736 81.6824 24.736V10H84.8504V24.736C84.8504 29.008 87.2024 31.504 91.3784 31.504C95.9864 31.504 99.1544 28.672 99.1544 22.576ZM112.192 10V13.984C113.68 11.056 116.176 9.616 119.776 9.616V12.688C115.408 12.688 112.192 15.136 112.192 20.656V34H109.024V10H112.192ZM135.206 9.424C138.758 9.424 141.638 10.672 143.798 13.216C146.006 15.712 147.11 18.688 147.11 22.096C147.11 22.432 147.062 22.96 147.014 23.584H125.942C126.566 28.432 130.358 31.504 135.494 31.504C139.142 31.504 141.878 29.872 143.222 27.424L146.006 29.056C143.894 32.464 140.102 34.576 135.446 34.576C131.654 34.576 128.582 33.376 126.23 31.024C123.878 28.672 122.678 25.648 122.678 22C122.678 18.4 123.83 15.424 126.182 13.024C128.534 10.624 131.51 9.424 135.206 9.424ZM135.206 12.496C130.214 12.496 126.566 15.76 125.942 20.512H143.846C143.51 17.968 142.55 16 140.918 14.608C139.286 13.216 137.366 12.496 135.206 12.496Z" fill="url(#paint0_linear_303_48362)"/>
<defs>
<linearGradient id="paint0_linear_303_48362" x1="-4" y1="21" x2="149" y2="21" gradientUnits="userSpaceOnUse">
<stop stop-color="#EC4899"/>
<stop offset="0.505208" stop-color="#EF4444"/>
<stop offset="1" stop-color="#EAB308"/>
</linearGradient>
</defs>
</svg>
