<svg width="240" height="240" viewBox="0 0 240 240" fill="none" xmlns="http://www.w3.org/2000/svg">
<path d="M49.5751 205.576C44.4871 205.576 40.2631 203.896 36.9511 200.536C33.6391 197.176 31.9591 193.048 31.9591 188.2C31.9591 183.352 33.6391 179.224 36.9511 175.864C40.2631 172.504 44.4871 170.824 49.5751 170.824C55.7671 170.824 61.2871 174.04 64.1191 179.08L61.1431 180.808C59.0311 176.728 54.5671 174.088 49.5751 174.088C45.3991 174.088 41.9431 175.432 39.3031 178.168C36.6631 180.904 35.3191 184.216 35.3191 188.2C35.3191 192.184 36.6631 195.496 39.3031 198.232C41.9431 200.968 45.3991 202.312 49.5751 202.312C54.5671 202.312 59.0311 199.672 61.1431 195.592L64.1191 197.272C61.3831 202.312 55.7671 205.576 49.5751 205.576ZM89.5703 185.704V181H92.7383V205H89.5703V200.296C87.3623 203.8 84.1463 205.576 79.8743 205.576C76.4663 205.576 73.5383 204.376 71.0903 201.928C68.6903 199.48 67.4903 196.504 67.4903 193C67.4903 189.496 68.6903 186.52 71.0903 184.072C73.5383 181.624 76.4663 180.424 79.8743 180.424C84.1463 180.424 87.3623 182.2 89.5703 185.704ZM73.3943 199.768C75.2183 201.592 77.4743 202.504 80.1143 202.504C82.7543 202.504 85.0103 201.592 86.8343 199.768C88.6583 197.896 89.5703 195.64 89.5703 193C89.5703 190.36 88.6583 188.104 86.8343 186.28C85.0103 184.408 82.7543 183.496 80.1143 183.496C77.4743 183.496 75.2183 184.408 73.3943 186.28C71.5703 188.104 70.6583 190.36 70.6583 193C70.6583 195.64 71.5703 197.896 73.3943 199.768ZM125.03 180.424C130.406 180.424 134.006 184.12 134.006 190.024V205H130.838V190.024C130.838 185.848 128.486 183.496 124.982 183.496C120.998 183.496 118.31 186.088 118.31 191.704V205H115.142V190.024C115.142 185.8 112.982 183.496 109.526 183.496C105.686 183.496 102.614 186.136 102.614 191.704V205H99.4459V181H102.614V184.504C104.342 181.768 106.79 180.424 109.958 180.424C113.414 180.424 115.862 181.864 117.254 184.792C118.982 181.864 121.574 180.424 125.03 180.424ZM151.221 180.424C154.773 180.424 157.653 181.672 159.813 184.216C162.021 186.712 163.125 189.688 163.125 193.096C163.125 193.432 163.077 193.96 163.029 194.584H141.957C142.581 199.432 146.373 202.504 151.509 202.504C155.157 202.504 157.893 200.872 159.237 198.424L162.021 200.056C159.909 203.464 156.117 205.576 151.461 205.576C147.669 205.576 144.597 204.376 142.245 202.024C139.893 199.672 138.693 196.648 138.693 193C138.693 189.4 139.845 186.424 142.197 184.024C144.549 181.624 147.525 180.424 151.221 180.424ZM151.221 183.496C146.229 183.496 142.581 186.76 141.957 191.512H159.861C159.525 188.968 158.565 187 156.933 185.608C155.301 184.216 153.381 183.496 151.221 183.496ZM171.333 181V184.984C172.821 182.056 175.317 180.616 178.917 180.616V183.688C174.549 183.688 171.333 186.136 171.333 191.656V205H168.165V181H171.333ZM202.445 185.704V181H205.613V205H202.445V200.296C200.237 203.8 197.021 205.576 192.749 205.576C189.341 205.576 186.413 204.376 183.965 201.928C181.565 199.48 180.365 196.504 180.365 193C180.365 189.496 181.565 186.52 183.965 184.072C186.413 181.624 189.341 180.424 192.749 180.424C197.021 180.424 200.237 182.2 202.445 185.704ZM186.269 199.768C188.093 201.592 190.349 202.504 192.989 202.504C195.629 202.504 197.885 201.592 199.709 199.768C201.533 197.896 202.445 195.64 202.445 193C202.445 190.36 201.533 188.104 199.709 186.28C197.885 184.408 195.629 183.496 192.989 183.496C190.349 183.496 188.093 184.408 186.269 186.28C184.445 188.104 183.533 190.36 183.533 193C183.533 195.64 184.445 197.896 186.269 199.768Z" fill="white"/>
<path d="M138.75 75.75C138.75 86.1053 130.355 94.5 120 94.5C109.645 94.5 101.25 86.1053 101.25 75.75C101.25 65.3947 109.645 57 120 57C130.355 57 138.75 65.3947 138.75 75.75Z" fill="white"/>
<path d="M75 42C66.7157 42 60 48.7157 60 57V102C60 110.284 66.7157 117 75 117H165C173.284 117 180 110.284 180 102V57C180 48.7157 173.284 42 165 42H156.213C152.235 42 148.42 40.4197 145.607 37.6066L139.393 31.3934C136.58 28.5804 132.765 27 128.787 27H111.213C107.235 27 103.42 28.5803 100.607 31.3934L94.3934 37.6066C91.5804 40.4196 87.765 42 83.7868 42H75ZM78.75 57C76.6789 57 75 55.3211 75 53.25C75 51.1789 76.6789 49.5 78.75 49.5C80.8211 49.5 82.5 51.1789 82.5 53.25C82.5 55.3211 80.8211 57 78.75 57ZM146.25 75.75C146.25 90.2475 134.497 102 120 102C105.503 102 93.75 90.2475 93.75 75.75C93.75 61.2525 105.503 49.5 120 49.5C134.497 49.5 146.25 61.2525 146.25 75.75Z" fill="white"/>
</svg>
