<svg width="240" height="240" viewBox="0 0 240 240" fill="none" xmlns="http://www.w3.org/2000/svg">
<path d="M61.6711 200.536C58.3111 203.896 54.1831 205.576 49.3351 205.576C44.4871 205.576 40.3591 203.896 36.9991 200.536C33.6391 197.128 31.9591 193.048 31.9591 188.2C31.9591 183.352 33.6391 179.272 36.9991 175.912C40.3591 172.504 44.4871 170.824 49.3351 170.824C54.1831 170.824 58.3111 172.504 61.6711 175.912C65.0311 179.272 66.7111 183.352 66.7111 188.2C66.7111 193.048 65.0311 197.128 61.6711 200.536ZM39.3511 198.232C42.0391 200.968 45.3511 202.312 49.3351 202.312C53.3191 202.312 56.6311 200.968 59.3191 198.232C62.0071 195.496 63.3511 192.136 63.3511 188.2C63.3511 184.264 62.0071 180.952 59.3191 178.216C56.6311 175.48 53.3191 174.088 49.3351 174.088C45.3511 174.088 42.0391 175.48 39.3511 178.216C36.6631 180.952 35.3191 184.264 35.3191 188.2C35.3191 192.136 36.6631 195.496 39.3511 198.232ZM84.8412 180.424C88.2492 180.424 91.1772 181.624 93.5772 184.072C96.0252 186.52 97.2252 189.496 97.2252 193C97.2252 196.504 96.0252 199.48 93.5772 201.928C91.1772 204.376 88.2492 205.576 84.8412 205.576C80.5692 205.576 77.3532 203.8 75.1452 200.296V214.6H71.9772V181H75.1452V185.704C77.3532 182.2 80.5692 180.424 84.8412 180.424ZM77.8812 199.768C79.7052 201.592 81.9612 202.504 84.6012 202.504C87.2412 202.504 89.4972 201.592 91.3212 199.768C93.1452 197.896 94.0572 195.64 94.0572 193C94.0572 190.36 93.1452 188.104 91.3212 186.28C89.4972 184.408 87.2412 183.496 84.6012 183.496C81.9612 183.496 79.7052 184.408 77.8812 186.28C76.0572 188.104 75.1452 190.36 75.1452 193C75.1452 195.64 76.0572 197.896 77.8812 199.768ZM123.133 185.704V181H126.301V205H123.133V200.296C120.925 203.8 117.709 205.576 113.437 205.576C110.029 205.576 107.101 204.376 104.653 201.928C102.253 199.48 101.053 196.504 101.053 193C101.053 189.496 102.253 186.52 104.653 184.072C107.101 181.624 110.029 180.424 113.437 180.424C117.709 180.424 120.925 182.2 123.133 185.704ZM106.957 199.768C108.781 201.592 111.037 202.504 113.677 202.504C116.317 202.504 118.573 201.592 120.397 199.768C122.221 197.896 123.133 195.64 123.133 193C123.133 190.36 122.221 188.104 120.397 186.28C118.573 184.408 116.317 183.496 113.677 183.496C111.037 183.496 108.781 184.408 106.957 186.28C105.133 188.104 104.221 190.36 104.221 193C104.221 195.64 105.133 197.896 106.957 199.768ZM144.192 205.576C140.592 205.576 137.568 204.376 135.168 201.976C132.768 199.528 131.568 196.552 131.568 193C131.568 189.448 132.768 186.472 135.168 184.072C137.568 181.624 140.592 180.424 144.192 180.424C148.944 180.424 152.976 182.872 154.704 186.712L152.112 188.2C150.816 185.32 147.792 183.496 144.192 183.496C141.552 183.496 139.296 184.408 137.472 186.28C135.648 188.104 134.736 190.36 134.736 193C134.736 195.64 135.648 197.896 137.472 199.768C139.296 201.592 141.552 202.504 144.192 202.504C147.792 202.504 150.72 200.68 152.304 197.8L154.944 199.336C152.976 203.176 148.848 205.576 144.192 205.576ZM162.709 176.824C161.797 177.736 160.357 177.736 159.445 176.824C158.533 175.912 158.533 174.472 159.445 173.56C160.357 172.648 161.797 172.648 162.709 173.56C163.621 174.472 163.621 175.912 162.709 176.824ZM162.661 205H159.493V181H162.661V205ZM182.103 181V184.072H175.191V198.616C175.191 202.744 177.495 202.408 182.103 202.216V205C175.383 206.008 172.023 204.184 172.023 198.616V184.072H166.983V181H172.023V175.24L175.191 174.28V181H182.103ZM197.356 201.112L205.132 181H208.492L198.22 207.208C196.348 211.96 192.748 214.936 188.524 214.6V211.624C191.404 211.96 193.612 210.28 195.1 206.632L195.724 205.144L184.972 181H188.332L197.356 201.112Z" fill="white"/>
<path fill-rule="evenodd" clip-rule="evenodd" d="M104.906 95.7505C108.706 108.85 120.856 118.249 134.855 118.249C152.105 118.249 166.105 104.249 166.105 86.999C166.105 72.999 156.705 60.7992 143.605 57.0492C143.605 59.6655 143.344 62.2231 142.845 64.6967L147.501 69.3526C148.951 70.8026 148.951 73.2026 147.501 74.6526C146.801 75.4026 145.851 75.7526 144.851 75.7526C143.901 75.7526 142.951 75.4026 142.201 74.6526L140.279 72.7308C138.858 75.9195 137.019 78.8833 134.83 81.5512L139.756 86.4018C141.206 87.8518 141.256 90.2518 139.806 91.7018C139.106 92.4018 138.106 92.8018 137.156 92.8018C136.206 92.8018 135.256 92.4518 134.506 91.7518L129.542 86.8638C126.837 89.1039 123.823 90.9841 120.575 92.4297L122.499 94.3531C123.949 95.8031 123.949 98.2031 122.499 99.6531C121.799 100.403 120.849 100.753 119.849 100.753C118.899 100.753 117.949 100.403 117.199 99.6531L112.538 94.9923C110.424 95.4173 108.249 95.6694 106.027 95.733C105.654 95.7441 105.281 95.7499 104.906 95.7505ZM142.743 49.1075C139.101 31.3373 123.267 18.2505 104.853 18.2505C83.5025 18.2505 66.1025 35.6505 66.1025 57.0005C66.1025 75.4459 79.2786 91.3016 96.9685 94.9092C100.618 112.671 116.447 125.749 134.855 125.749C156.256 125.749 173.605 108.349 173.605 86.999C173.605 68.5825 160.516 52.7478 142.743 49.1075Z" fill="white"/>
</svg>
