<svg width="32" height="32" viewBox="0 0 32 32" fill="none" xmlns="http://www.w3.org/2000/svg">
<g filter="url(#filter0_biiii_263_15295)">
<rect width="32" height="32" rx="16" fill="#1C2129"/>
</g>
<path d="M13.1465 13.0736C13.3173 12.5473 13.6302 12.079 14.0508 11.7195C14.4714 11.36 14.9838 11.1238 15.5303 11.0371C16.0768 10.9504 16.6362 11.0164 17.1475 11.228C17.6587 11.4397 18.1014 11.7887 18.4268 12.2363C18.7521 12.6839 18.9469 13.2126 18.9904 13.7642C19.0339 14.3158 18.9238 14.8688 18.6727 15.3618C18.4215 15.8548 18.0394 16.2685 17.5676 16.5576C17.0958 16.8467 16.5533 16.9998 16 16.9998V18.0002M16 25C11.0294 25 7 20.9706 7 16C7 11.0294 11.0294 7 16 7C20.9706 7 25 11.0294 25 16C25 20.9706 20.9706 25 16 25ZM16.0498 21V21.1L15.9502 21.1002V21H16.0498Z" stroke="white" stroke-width="1.5" stroke-linecap="round" stroke-linejoin="round"/>
<defs>
<filter id="filter0_biiii_263_15295" x="-11.2" y="-11.2" width="54.4" height="54.4" filterUnits="userSpaceOnUse" color-interpolation-filters="sRGB">
<feFlood flood-opacity="0" result="BackgroundImageFix"/>
<feGaussianBlur in="BackgroundImageFix" stdDeviation="5.6"/>
<feComposite in2="SourceAlpha" operator="in" result="effect1_backgroundBlur_263_15295"/>
<feBlend mode="normal" in="SourceGraphic" in2="effect1_backgroundBlur_263_15295" result="shape"/>
<feColorMatrix in="SourceAlpha" type="matrix" values="0 0 0 0 0 0 0 0 0 0 0 0 0 0 0 0 0 0 127 0" result="hardAlpha"/>
<feOffset dx="-2" dy="-2"/>
<feGaussianBlur stdDeviation="2.5"/>
<feComposite in2="hardAlpha" operator="arithmetic" k2="-1" k3="1"/>
<feColorMatrix type="matrix" values="0 0 0 0 0.0431373 0 0 0 0 0.0509804 0 0 0 0 0.0627451 0 0 0 0.9 0"/>
<feBlend mode="normal" in2="shape" result="effect2_innerShadow_263_15295"/>
<feColorMatrix in="SourceAlpha" type="matrix" values="0 0 0 0 0 0 0 0 0 0 0 0 0 0 0 0 0 0 127 0" result="hardAlpha"/>
<feOffset dx="2" dy="2"/>
<feGaussianBlur stdDeviation="2"/>
<feComposite in2="hardAlpha" operator="arithmetic" k2="-1" k3="1"/>
<feColorMatrix type="matrix" values="0 0 0 0 0.176471 0 0 0 0 0.207843 0 0 0 0 0.258824 0 0 0 0.9 0"/>
<feBlend mode="normal" in2="effect2_innerShadow_263_15295" result="effect3_innerShadow_263_15295"/>
<feColorMatrix in="SourceAlpha" type="matrix" values="0 0 0 0 0 0 0 0 0 0 0 0 0 0 0 0 0 0 127 0" result="hardAlpha"/>
<feOffset dx="-2" dy="2"/>
<feGaussianBlur stdDeviation="2"/>
<feComposite in2="hardAlpha" operator="arithmetic" k2="-1" k3="1"/>
<feColorMatrix type="matrix" values="0 0 0 0 0.0431373 0 0 0 0 0.0509804 0 0 0 0 0.0627451 0 0 0 0.2 0"/>
<feBlend mode="normal" in2="effect3_innerShadow_263_15295" result="effect4_innerShadow_263_15295"/>
<feColorMatrix in="SourceAlpha" type="matrix" values="0 0 0 0 0 0 0 0 0 0 0 0 0 0 0 0 0 0 127 0" result="hardAlpha"/>
<feOffset dx="2" dy="-2"/>
<feGaussianBlur stdDeviation="2"/>
<feComposite in2="hardAlpha" operator="arithmetic" k2="-1" k3="1"/>
<feColorMatrix type="matrix" values="0 0 0 0 0.0431373 0 0 0 0 0.0509804 0 0 0 0 0.0627451 0 0 0 0.2 0"/>
<feBlend mode="normal" in2="effect4_innerShadow_263_15295" result="effect5_innerShadow_263_15295"/>
</filter>
</defs>
</svg>
