<svg width="124" height="35" viewBox="0 0 124 35" fill="none" xmlns="http://www.w3.org/2000/svg">
<path d="M16.4138 34H12.9578L0.57375 0.399998H4.22175L14.6858 29.536L25.1498 0.399998H28.7978L16.4138 34ZM34.9354 4.24C34.4874 4.688 33.9434 4.912 33.3034 4.912C32.6634 4.912 32.1194 4.688 31.6714 4.24C31.2234 3.792 30.9994 3.248 30.9994 2.608C30.9994 1.968 31.2234 1.424 31.6714 0.975999C32.1194 0.527999 32.6634 0.303999 33.3034 0.303999C33.9434 0.303999 34.4874 0.527999 34.9354 0.975999C35.3834 1.424 35.6074 1.968 35.6074 2.608C35.6074 3.248 35.3834 3.792 34.9354 4.24ZM34.8874 34H31.7194V10H34.8874V34ZM62.25 14.704V0.399998H65.418V34H62.25V29.296C60.042 32.816 56.81 34.576 52.554 34.576C49.13 34.576 46.202 33.36 43.77 30.928C41.37 28.496 40.17 25.52 40.17 22C40.17 18.48 41.37 15.504 43.77 13.072C46.202 10.64 49.13 9.424 52.554 9.424C56.81 9.424 60.042 11.184 62.25 14.704ZM46.074 28.768C47.898 30.592 50.138 31.504 52.794 31.504C55.45 31.504 57.69 30.592 59.514 28.768C61.338 26.88 62.25 24.624 62.25 22C62.25 19.344 61.338 17.104 59.514 15.28C57.69 13.424 55.45 12.496 52.794 12.496C50.138 12.496 47.898 13.424 46.074 15.28C44.25 17.104 43.338 19.344 43.338 22C43.338 24.624 44.25 26.88 46.074 28.768ZM91.8056 13.216C94.0136 15.712 95.1176 18.672 95.1176 22.096C95.1176 22.128 95.1016 22.208 95.0696 22.336C95.0696 22.464 95.0536 22.656 95.0216 22.912C95.0216 23.136 95.0216 23.36 95.0216 23.584H73.9496C74.3016 25.984 75.3256 27.904 77.0216 29.344C78.7496 30.784 80.9096 31.504 83.5016 31.504C87.1816 31.504 89.7576 30.144 91.2296 27.424L94.0136 29.056C91.7736 32.736 88.2536 34.576 83.4536 34.576C79.6776 34.576 76.6056 33.392 74.2376 31.024C71.8696 28.656 70.6856 25.648 70.6856 22C70.6856 18.352 71.8536 15.36 74.1896 13.024C76.5256 10.624 79.5336 9.424 83.2136 9.424C86.7976 9.424 89.6616 10.688 91.8056 13.216ZM76.9256 14.704C75.2936 16.176 74.3016 18.112 73.9496 20.512H91.8536C91.5336 17.984 90.5576 16.016 88.9256 14.608C87.2296 13.2 85.3256 12.496 83.2136 12.496C80.6856 12.496 78.5896 13.232 76.9256 14.704ZM111.341 34.576C107.789 34.576 104.797 33.376 102.365 30.976C99.9329 28.544 98.7169 25.552 98.7169 22C98.7169 18.448 99.9329 15.472 102.365 13.072C104.797 10.64 107.789 9.424 111.341 9.424C114.861 9.424 117.837 10.64 120.269 13.072C122.733 15.472 123.965 18.448 123.965 22C123.965 25.52 122.733 28.512 120.269 30.976C117.805 33.376 114.829 34.576 111.341 34.576ZM104.621 28.768C106.445 30.592 108.685 31.504 111.341 31.504C113.997 31.504 116.237 30.592 118.061 28.768C119.885 26.88 120.797 24.624 120.797 22C120.797 19.344 119.885 17.104 118.061 15.28C116.237 13.424 113.997 12.496 111.341 12.496C108.685 12.496 106.445 13.424 104.621 15.28C102.797 17.104 101.885 19.344 101.885 22C101.885 24.624 102.797 26.88 104.621 28.768Z" fill="white"/>
</svg>
