<svg width="146" height="35" viewBox="0 0 146 35" fill="none" xmlns="http://www.w3.org/2000/svg">
<path d="M0.2775 0.399998H12.2775C15.2855 0.399998 17.7975 1.408 19.8135 3.424C21.8295 5.44 22.8375 7.952 22.8375 10.96C22.8375 13.968 21.8295 16.48 19.8135 18.496C17.7975 20.512 15.2855 21.52 12.2775 21.52H3.6375V34H0.2775V0.399998ZM3.6375 18.352H12.2775C14.3575 18.352 16.0695 17.664 17.4135 16.288C18.7895 14.912 19.4775 13.136 19.4775 10.96C19.4775 8.816 18.7895 7.056 17.4135 5.68C16.0695 4.272 14.3575 3.568 12.2775 3.568H3.6375V18.352ZM31.326 4.24C30.878 4.688 30.334 4.912 29.694 4.912C29.054 4.912 28.51 4.688 28.062 4.24C27.614 3.792 27.39 3.248 27.39 2.608C27.39 1.968 27.614 1.424 28.062 0.975999C28.51 0.527999 29.054 0.303999 29.694 0.303999C30.334 0.303999 30.878 0.527999 31.326 0.975999C31.774 1.424 31.998 1.968 31.998 2.608C31.998 3.248 31.774 3.792 31.326 4.24ZM31.278 34H28.11V10H31.278V34ZM40.1606 30.976C37.7606 28.512 36.5606 25.52 36.5606 22C36.5606 18.448 37.7606 15.472 40.1606 13.072C42.5606 10.64 45.5686 9.424 49.1846 9.424C51.5526 9.424 53.6806 9.984 55.5686 11.104C57.4566 12.256 58.8326 13.792 59.6966 15.712L57.1046 17.2C56.4966 15.792 55.4726 14.64 54.0326 13.744C52.5606 12.912 50.9446 12.496 49.1846 12.496C46.5286 12.496 44.2886 13.424 42.4646 15.28C40.6406 17.104 39.7286 19.344 39.7286 22C39.7286 24.624 40.6406 26.88 42.4646 28.768C44.2886 30.592 46.5286 31.504 49.1846 31.504C52.8646 31.504 55.5686 29.936 57.2966 26.8L59.9366 28.336C58.9126 30.288 57.4566 31.808 55.5686 32.896C53.6166 34.016 51.4886 34.576 49.1846 34.576C45.5686 34.576 42.5606 33.376 40.1606 30.976ZM77.205 10V13.072H70.293V27.616C70.293 29.44 70.869 30.576 72.021 31.024C72.757 31.28 74.485 31.344 77.205 31.216V34C73.781 34.544 71.269 34.304 69.669 33.28C67.973 32.256 67.125 30.368 67.125 27.616V13.072H62.085V10H67.125V4.24L70.293 3.28V10H77.205ZM99.381 22.576V10H102.549V34H99.381V30.256C97.589 33.136 94.901 34.576 91.317 34.576C88.437 34.576 86.149 33.68 84.453 31.888C82.757 30.096 81.909 27.712 81.909 24.736V10H85.077V24.736C85.077 26.848 85.637 28.512 86.757 29.728C87.909 30.912 89.525 31.504 91.605 31.504C94.005 31.504 95.877 30.784 97.221 29.344C98.661 27.776 99.381 25.52 99.381 22.576ZM112.419 10V13.984C113.891 11.072 116.419 9.616 120.003 9.616V12.688C117.667 12.688 115.859 13.328 114.579 14.608C113.139 16.016 112.419 18.032 112.419 20.656V34H109.251V10H112.419ZM142.571 13.216C144.779 15.712 145.883 18.672 145.883 22.096C145.883 22.128 145.867 22.208 145.835 22.336C145.835 22.464 145.819 22.656 145.787 22.912C145.787 23.136 145.787 23.36 145.787 23.584H124.715C125.067 25.984 126.091 27.904 127.787 29.344C129.515 30.784 131.675 31.504 134.267 31.504C137.947 31.504 140.523 30.144 141.995 27.424L144.779 29.056C142.539 32.736 139.019 34.576 134.219 34.576C130.443 34.576 127.371 33.392 125.003 31.024C122.635 28.656 121.451 25.648 121.451 22C121.451 18.352 122.619 15.36 124.955 13.024C127.291 10.624 130.299 9.424 133.979 9.424C137.563 9.424 140.427 10.688 142.571 13.216ZM127.691 14.704C126.059 16.176 125.067 18.112 124.715 20.512H142.619C142.299 17.984 141.323 16.016 139.691 14.608C137.995 13.2 136.091 12.496 133.979 12.496C131.451 12.496 129.355 13.232 127.691 14.704Z" fill="white"/>
</svg>
