<svg width="240" height="240" viewBox="0 0 240 240" fill="none" xmlns="http://www.w3.org/2000/svg">
<path d="M50.5751 205.576C45.4871 205.576 41.2631 203.896 37.9511 200.536C34.6391 197.176 32.9591 193.048 32.9591 188.2C32.9591 183.352 34.6391 179.224 37.9511 175.864C41.2631 172.504 45.4871 170.824 50.5751 170.824C56.7671 170.824 62.2871 174.04 65.1191 179.08L62.1431 180.808C60.0311 176.728 55.5671 174.088 50.5751 174.088C46.3991 174.088 42.9431 175.432 40.3031 178.168C37.6631 180.904 36.3191 184.216 36.3191 188.2C36.3191 192.184 37.6631 195.496 40.3031 198.232C42.9431 200.968 46.3991 202.312 50.5751 202.312C55.5671 202.312 60.0311 199.672 62.1431 195.592L65.1191 197.272C62.3831 202.312 56.7671 205.576 50.5751 205.576ZM90.5703 185.704V181H93.7383V205H90.5703V200.296C88.3623 203.8 85.1463 205.576 80.8743 205.576C77.4663 205.576 74.5383 204.376 72.0903 201.928C69.6903 199.48 68.4903 196.504 68.4903 193C68.4903 189.496 69.6903 186.52 72.0903 184.072C74.5383 181.624 77.4663 180.424 80.8743 180.424C85.1463 180.424 88.3623 182.2 90.5703 185.704ZM74.3943 199.768C76.2183 201.592 78.4743 202.504 81.1143 202.504C83.7543 202.504 86.0103 201.592 87.8343 199.768C89.6583 197.896 90.5703 195.64 90.5703 193C90.5703 190.36 89.6583 188.104 87.8343 186.28C86.0103 184.408 83.7543 183.496 81.1143 183.496C78.4743 183.496 76.2183 184.408 74.3943 186.28C72.5703 188.104 71.6583 190.36 71.6583 193C71.6583 195.64 72.5703 197.896 74.3943 199.768ZM126.03 180.424C131.406 180.424 135.006 184.12 135.006 190.024V205H131.838V190.024C131.838 185.848 129.486 183.496 125.982 183.496C121.998 183.496 119.31 186.088 119.31 191.704V205H116.142V190.024C116.142 185.8 113.982 183.496 110.526 183.496C106.686 183.496 103.614 186.136 103.614 191.704V205H100.446V181H103.614V184.504C105.342 181.768 107.79 180.424 110.958 180.424C114.414 180.424 116.862 181.864 118.254 184.792C119.982 181.864 122.574 180.424 126.03 180.424ZM152.221 180.424C155.773 180.424 158.653 181.672 160.813 184.216C163.021 186.712 164.125 189.688 164.125 193.096C164.125 193.432 164.077 193.96 164.029 194.584H142.957C143.581 199.432 147.373 202.504 152.509 202.504C156.157 202.504 158.893 200.872 160.237 198.424L163.021 200.056C160.909 203.464 157.117 205.576 152.461 205.576C148.669 205.576 145.597 204.376 143.245 202.024C140.893 199.672 139.693 196.648 139.693 193C139.693 189.4 140.845 186.424 143.197 184.024C145.549 181.624 148.525 180.424 152.221 180.424ZM152.221 183.496C147.229 183.496 143.581 186.76 142.957 191.512H160.861C160.525 188.968 159.565 187 157.933 185.608C156.301 184.216 154.381 183.496 152.221 183.496ZM172.333 181V184.984C173.821 182.056 176.317 180.616 179.917 180.616V183.688C175.549 183.688 172.333 186.136 172.333 191.656V205H169.165V181H172.333ZM203.445 185.704V181H206.613V205H203.445V200.296C201.237 203.8 198.021 205.576 193.749 205.576C190.341 205.576 187.413 204.376 184.965 201.928C182.565 199.48 181.365 196.504 181.365 193C181.365 189.496 182.565 186.52 184.965 184.072C187.413 181.624 190.341 180.424 193.749 180.424C198.021 180.424 201.237 182.2 203.445 185.704ZM187.269 199.768C189.093 201.592 191.349 202.504 193.989 202.504C196.629 202.504 198.885 201.592 200.709 199.768C202.533 197.896 203.445 195.64 203.445 193C203.445 190.36 202.533 188.104 200.709 186.28C198.885 184.408 196.629 183.496 193.989 183.496C191.349 183.496 189.093 184.408 187.269 186.28C185.445 188.104 184.533 190.36 184.533 193C184.533 195.64 185.445 197.896 187.269 199.768Z" fill="url(#paint0_linear_528_46)"/>
<path d="M138.75 75.75C138.75 86.1053 130.355 94.5 120 94.5C109.645 94.5 101.25 86.1053 101.25 75.75C101.25 65.3947 109.645 57 120 57C130.355 57 138.75 65.3947 138.75 75.75Z" fill="url(#paint1_linear_528_46)"/>
<path d="M75 42C66.7157 42 60 48.7157 60 57V102C60 110.284 66.7157 117 75 117H165C173.284 117 180 110.284 180 102V57C180 48.7157 173.284 42 165 42H156.213C152.235 42 148.42 40.4197 145.607 37.6066L139.393 31.3934C136.58 28.5804 132.765 27 128.787 27H111.213C107.235 27 103.42 28.5803 100.607 31.3934L94.3934 37.6066C91.5804 40.4196 87.765 42 83.7868 42H75ZM78.75 57C76.6789 57 75 55.3211 75 53.25C75 51.1789 76.6789 49.5 78.75 49.5C80.8211 49.5 82.5 51.1789 82.5 53.25C82.5 55.3211 80.8211 57 78.75 57ZM146.25 75.75C146.25 90.2475 134.497 102 120 102C105.503 102 93.75 90.2475 93.75 75.75C93.75 61.2525 105.503 49.5 120 49.5C134.497 49.5 146.25 61.2525 146.25 75.75Z" fill="url(#paint2_linear_528_46)"/>
<defs>
<linearGradient id="paint0_linear_528_46" x1="31" y1="192" x2="210" y2="192" gradientUnits="userSpaceOnUse">
<stop stop-color="#EC4899"/>
<stop offset="0.505208" stop-color="#EF4444"/>
<stop offset="1" stop-color="#EAB308"/>
</linearGradient>
<linearGradient id="paint1_linear_528_46" x1="60" y1="27" x2="146.4" y2="142.2" gradientUnits="userSpaceOnUse">
<stop stop-color="#EC4899"/>
<stop offset="0.505208" stop-color="#EF4444"/>
<stop offset="1" stop-color="#EAB308"/>
</linearGradient>
<linearGradient id="paint2_linear_528_46" x1="60" y1="27" x2="146.4" y2="142.2" gradientUnits="userSpaceOnUse">
<stop stop-color="#EC4899"/>
<stop offset="0.505208" stop-color="#EF4444"/>
<stop offset="1" stop-color="#EAB308"/>
</linearGradient>
</defs>
</svg>
