<svg width="124" height="35" viewBox="0 0 124 35" fill="none" xmlns="http://www.w3.org/2000/svg">
<path d="M16.4138 34H12.9578L0.57375 0.399998H4.22175L14.6858 29.536L25.1498 0.399998H28.7978L16.4138 34ZM34.9354 5.824C34.0234 6.736 32.5834 6.736 31.6714 5.824C30.7594 4.912 30.7594 3.472 31.6714 2.56C32.5834 1.648 34.0234 1.648 34.9354 2.56C35.8474 3.472 35.8474 4.912 34.9354 5.824ZM34.8874 34H31.7194V10H34.8874V34ZM62.25 14.704V0.399998H65.418V34H62.25V29.296C60.042 32.8 56.826 34.576 52.554 34.576C49.146 34.576 46.218 33.376 43.77 30.928C41.37 28.48 40.17 25.504 40.17 22C40.17 18.496 41.37 15.52 43.77 13.072C46.218 10.624 49.146 9.424 52.554 9.424C56.826 9.424 60.042 11.2 62.25 14.704ZM46.074 28.768C47.898 30.592 50.154 31.504 52.794 31.504C55.434 31.504 57.69 30.592 59.514 28.768C61.338 26.896 62.25 24.64 62.25 22C62.25 19.36 61.338 17.104 59.514 15.28C57.69 13.408 55.434 12.496 52.794 12.496C50.154 12.496 47.898 13.408 46.074 15.28C44.25 17.104 43.338 19.36 43.338 22C43.338 24.64 44.25 26.896 46.074 28.768ZM83.2136 9.424C86.7656 9.424 89.6456 10.672 91.8056 13.216C94.0136 15.712 95.1176 18.688 95.1176 22.096C95.1176 22.432 95.0696 22.96 95.0216 23.584H73.9496C74.5736 28.432 78.3656 31.504 83.5016 31.504C87.1496 31.504 89.8856 29.872 91.2296 27.424L94.0136 29.056C91.9016 32.464 88.1096 34.576 83.4536 34.576C79.6616 34.576 76.5896 33.376 74.2376 31.024C71.8856 28.672 70.6856 25.648 70.6856 22C70.6856 18.4 71.8376 15.424 74.1896 13.024C76.5416 10.624 79.5176 9.424 83.2136 9.424ZM83.2136 12.496C78.2216 12.496 74.5736 15.76 73.9496 20.512H91.8536C91.5176 17.968 90.5576 16 88.9256 14.608C87.2936 13.216 85.3736 12.496 83.2136 12.496ZM120.269 30.976C117.821 33.376 114.845 34.576 111.341 34.576C107.837 34.576 104.813 33.376 102.365 30.976C99.9169 28.528 98.7169 25.552 98.7169 22C98.7169 18.448 99.9169 15.472 102.365 13.072C104.813 10.624 107.837 9.424 111.341 9.424C114.845 9.424 117.821 10.624 120.269 13.072C122.717 15.472 123.965 18.448 123.965 22C123.965 25.552 122.717 28.528 120.269 30.976ZM104.621 28.768C106.445 30.592 108.701 31.504 111.341 31.504C113.981 31.504 116.237 30.592 118.061 28.768C119.885 26.896 120.797 24.64 120.797 22C120.797 19.36 119.885 17.104 118.061 15.28C116.237 13.408 113.981 12.496 111.341 12.496C108.701 12.496 106.445 13.408 104.621 15.28C102.797 17.104 101.885 19.36 101.885 22C101.885 24.64 102.797 26.896 104.621 28.768Z" fill="url(#paint0_linear_303_48323)"/>
<defs>
<linearGradient id="paint0_linear_303_48323" x1="0" y1="21" x2="126" y2="21" gradientUnits="userSpaceOnUse">
<stop stop-color="#EC4899"/>
<stop offset="0.505208" stop-color="#EF4444"/>
<stop offset="1" stop-color="#EAB308"/>
</linearGradient>
</defs>
</svg>
