<svg width="178" height="45" viewBox="0 0 178 45" fill="none" xmlns="http://www.w3.org/2000/svg">
<path d="M30.6711 30.536C27.3111 33.896 23.1831 35.576 18.3351 35.576C13.4871 35.576 9.35906 33.896 5.99906 30.536C2.63906 27.128 0.959063 23.048 0.959063 18.2C0.959063 13.352 2.63906 9.272 5.99906 5.912C9.35906 2.504 13.4871 0.823999 18.3351 0.823999C23.1831 0.823999 27.3111 2.504 30.6711 5.912C34.0311 9.272 35.7111 13.352 35.7111 18.2C35.7111 23.048 34.0311 27.128 30.6711 30.536ZM8.35106 28.232C11.0391 30.968 14.3511 32.312 18.3351 32.312C22.3191 32.312 25.6311 30.968 28.3191 28.232C31.0071 25.496 32.3511 22.136 32.3511 18.2C32.3511 14.264 31.0071 10.952 28.3191 8.216C25.6311 5.48 22.3191 4.088 18.3351 4.088C14.3511 4.088 11.0391 5.48 8.35106 8.216C5.66306 10.952 4.31906 14.264 4.31906 18.2C4.31906 22.136 5.66306 25.496 8.35106 28.232ZM53.8412 10.424C57.2492 10.424 60.1772 11.624 62.5772 14.072C65.0252 16.52 66.2252 19.496 66.2252 23C66.2252 26.504 65.0252 29.48 62.5772 31.928C60.1772 34.376 57.2492 35.576 53.8412 35.576C49.5692 35.576 46.3532 33.8 44.1452 30.296V44.6H40.9772V11H44.1452V15.704C46.3532 12.2 49.5692 10.424 53.8412 10.424ZM46.8812 29.768C48.7052 31.592 50.9612 32.504 53.6012 32.504C56.2412 32.504 58.4972 31.592 60.3212 29.768C62.1452 27.896 63.0572 25.64 63.0572 23C63.0572 20.36 62.1452 18.104 60.3212 16.28C58.4972 14.408 56.2412 13.496 53.6012 13.496C50.9612 13.496 48.7052 14.408 46.8812 16.28C45.0572 18.104 44.1452 20.36 44.1452 23C44.1452 25.64 45.0572 27.896 46.8812 29.768ZM92.1328 15.704V11H95.3008V35H92.1328V30.296C89.9248 33.8 86.7088 35.576 82.4368 35.576C79.0288 35.576 76.1008 34.376 73.6528 31.928C71.2528 29.48 70.0528 26.504 70.0528 23C70.0528 19.496 71.2528 16.52 73.6528 14.072C76.1008 11.624 79.0288 10.424 82.4368 10.424C86.7088 10.424 89.9248 12.2 92.1328 15.704ZM75.9568 29.768C77.7808 31.592 80.0368 32.504 82.6768 32.504C85.3168 32.504 87.5728 31.592 89.3968 29.768C91.2208 27.896 92.1328 25.64 92.1328 23C92.1328 20.36 91.2208 18.104 89.3968 16.28C87.5728 14.408 85.3168 13.496 82.6768 13.496C80.0368 13.496 77.7808 14.408 75.9568 16.28C74.1328 18.104 73.2208 20.36 73.2208 23C73.2208 25.64 74.1328 27.896 75.9568 29.768ZM113.192 35.576C109.592 35.576 106.568 34.376 104.168 31.976C101.768 29.528 100.568 26.552 100.568 23C100.568 19.448 101.768 16.472 104.168 14.072C106.568 11.624 109.592 10.424 113.192 10.424C117.944 10.424 121.976 12.872 123.704 16.712L121.112 18.2C119.816 15.32 116.792 13.496 113.192 13.496C110.552 13.496 108.296 14.408 106.472 16.28C104.648 18.104 103.736 20.36 103.736 23C103.736 25.64 104.648 27.896 106.472 29.768C108.296 31.592 110.552 32.504 113.192 32.504C116.792 32.504 119.72 30.68 121.304 27.8L123.944 29.336C121.976 33.176 117.848 35.576 113.192 35.576ZM131.709 6.824C130.797 7.736 129.357 7.736 128.445 6.824C127.533 5.912 127.533 4.472 128.445 3.56C129.357 2.648 130.797 2.648 131.709 3.56C132.621 4.472 132.621 5.912 131.709 6.824ZM131.661 35H128.493V11H131.661V35ZM151.103 11V14.072H144.191V28.616C144.191 32.744 146.495 32.408 151.103 32.216V35C144.383 36.008 141.023 34.184 141.023 28.616V14.072H135.983V11H141.023V5.24L144.191 4.28V11H151.103ZM166.356 31.112L174.132 11H177.492L167.22 37.208C165.348 41.96 161.748 44.936 157.524 44.6V41.624C160.404 41.96 162.612 40.28 164.1 36.632L164.724 35.144L153.972 11H157.332L166.356 31.112Z" fill="url(#paint0_linear_303_48287)"/>
<defs>
<linearGradient id="paint0_linear_303_48287" x1="-1" y1="22" x2="178" y2="22" gradientUnits="userSpaceOnUse">
<stop stop-color="#EC4899"/>
<stop offset="0.505208" stop-color="#EF4444"/>
<stop offset="1" stop-color="#EAB308"/>
</linearGradient>
</defs>
</svg>
