<svg width="240" height="240" viewBox="0 0 240 240" fill="none" xmlns="http://www.w3.org/2000/svg">
<path d="M81.1181 174.568L63.7421 201.832H81.5981V205H59.9981V201.832L77.3741 174.568H60.4781V171.4H81.1181V174.568ZM106.488 201.976C104.04 204.376 101.064 205.576 97.5596 205.576C94.0556 205.576 91.0316 204.376 88.5836 201.976C86.1356 199.528 84.9356 196.552 84.9356 193C84.9356 189.448 86.1356 186.472 88.5836 184.072C91.0316 181.624 94.0556 180.424 97.5596 180.424C101.064 180.424 104.04 181.624 106.488 184.072C108.936 186.472 110.184 189.448 110.184 193C110.184 196.552 108.936 199.528 106.488 201.976ZM90.8396 199.768C92.6636 201.592 94.9196 202.504 97.5596 202.504C100.2 202.504 102.456 201.592 104.28 199.768C106.104 197.896 107.016 195.64 107.016 193C107.016 190.36 106.104 188.104 104.28 186.28C102.456 184.408 100.2 183.496 97.5596 183.496C94.9196 183.496 92.6636 184.408 90.8396 186.28C89.0156 188.104 88.1036 190.36 88.1036 193C88.1036 195.64 89.0156 197.896 90.8396 199.768ZM135.597 201.976C133.149 204.376 130.173 205.576 126.669 205.576C123.165 205.576 120.141 204.376 117.693 201.976C115.245 199.528 114.045 196.552 114.045 193C114.045 189.448 115.245 186.472 117.693 184.072C120.141 181.624 123.165 180.424 126.669 180.424C130.173 180.424 133.149 181.624 135.597 184.072C138.045 186.472 139.293 189.448 139.293 193C139.293 196.552 138.045 199.528 135.597 201.976ZM119.949 199.768C121.773 201.592 124.029 202.504 126.669 202.504C129.309 202.504 131.565 201.592 133.389 199.768C135.213 197.896 136.125 195.64 136.125 193C136.125 190.36 135.213 188.104 133.389 186.28C131.565 184.408 129.309 183.496 126.669 183.496C124.029 183.496 121.773 184.408 119.949 186.28C118.125 188.104 117.213 190.36 117.213 193C117.213 195.64 118.125 197.896 119.949 199.768ZM170.178 180.424C175.554 180.424 179.154 184.12 179.154 190.024V205H175.986V190.024C175.986 185.848 173.634 183.496 170.13 183.496C166.146 183.496 163.458 186.088 163.458 191.704V205H160.29V190.024C160.29 185.8 158.13 183.496 154.674 183.496C150.834 183.496 147.762 186.136 147.762 191.704V205H144.594V181H147.762V184.504C149.49 181.768 151.938 180.424 155.106 180.424C158.562 180.424 161.01 181.864 162.402 184.792C164.13 181.864 166.722 180.424 170.178 180.424Z" fill="url(#paint0_linear_528_233)"/>
<path d="M115.049 21.999C90.199 21.999 69.999 42.199 69.999 67.049C69.999 91.899 90.199 112.099 115.049 112.099C139.899 112.099 160.099 91.899 160.099 67.049C160.099 42.199 139.899 21.999 115.049 21.999ZM127.499 70.749H118.749V79.499C118.749 81.549 117.049 83.249 114.999 83.249C112.949 83.249 111.249 81.549 111.249 79.499V70.749H102.499C100.449 70.749 98.749 69.049 98.749 66.999C98.749 64.949 100.449 63.249 102.499 63.249H111.249V54.499C111.249 52.449 112.949 50.749 114.999 50.749C117.049 50.749 118.749 52.449 118.749 54.499V63.249H127.499C129.549 63.249 131.249 64.949 131.249 66.999C131.249 69.049 129.549 70.749 127.499 70.749Z" fill="url(#paint1_linear_528_233)"/>
<path d="M169.951 106.75C168.301 103.7 164.801 102 160.101 102C156.551 102 153.501 103.45 151.701 105.95C149.901 108.45 149.501 111.8 150.601 115.15C152.751 121.65 156.501 123.1 158.551 123.35C158.851 123.4 159.151 123.4 159.501 123.4C161.701 123.4 165.101 122.45 168.401 117.5C171.051 113.65 171.551 109.8 169.951 106.75Z" fill="url(#paint2_linear_528_233)"/>
<defs>
<linearGradient id="paint0_linear_528_233" x1="58" y1="192" x2="182" y2="192" gradientUnits="userSpaceOnUse">
<stop stop-color="#EC4899"/>
<stop offset="0.505208" stop-color="#EF4444"/>
<stop offset="1" stop-color="#EAB308"/>
</linearGradient>
<linearGradient id="paint1_linear_528_233" x1="69.999" y1="21.999" x2="160.099" y2="112.099" gradientUnits="userSpaceOnUse">
<stop stop-color="#EC4899"/>
<stop offset="0.505208" stop-color="#EF4444"/>
<stop offset="1" stop-color="#EAB308"/>
</linearGradient>
<linearGradient id="paint2_linear_528_233" x1="149.991" y1="102" x2="171.385" y2="122.865" gradientUnits="userSpaceOnUse">
<stop stop-color="#EC4899"/>
<stop offset="0.505208" stop-color="#EF4444"/>
<stop offset="1" stop-color="#EAB308"/>
</linearGradient>
</defs>
</svg>
