<svg width="240" height="240" viewBox="0 0 240 240" fill="none" xmlns="http://www.w3.org/2000/svg">
<path d="M62.6711 200.536C59.3111 203.896 55.1831 205.576 50.3351 205.576C45.4871 205.576 41.3591 203.896 37.9991 200.536C34.6391 197.128 32.9591 193.048 32.9591 188.2C32.9591 183.352 34.6391 179.272 37.9991 175.912C41.3591 172.504 45.4871 170.824 50.3351 170.824C55.1831 170.824 59.3111 172.504 62.6711 175.912C66.0311 179.272 67.7111 183.352 67.7111 188.2C67.7111 193.048 66.0311 197.128 62.6711 200.536ZM40.3511 198.232C43.0391 200.968 46.3511 202.312 50.3351 202.312C54.3191 202.312 57.6311 200.968 60.3191 198.232C63.0071 195.496 64.3511 192.136 64.3511 188.2C64.3511 184.264 63.0071 180.952 60.3191 178.216C57.6311 175.48 54.3191 174.088 50.3351 174.088C46.3511 174.088 43.0391 175.48 40.3511 178.216C37.6631 180.952 36.3191 184.264 36.3191 188.2C36.3191 192.136 37.6631 195.496 40.3511 198.232ZM85.8412 180.424C89.2492 180.424 92.1772 181.624 94.5772 184.072C97.0252 186.52 98.2252 189.496 98.2252 193C98.2252 196.504 97.0252 199.48 94.5772 201.928C92.1772 204.376 89.2492 205.576 85.8412 205.576C81.5692 205.576 78.3532 203.8 76.1452 200.296V214.6H72.9772V181H76.1452V185.704C78.3532 182.2 81.5692 180.424 85.8412 180.424ZM78.8812 199.768C80.7052 201.592 82.9612 202.504 85.6012 202.504C88.2412 202.504 90.4972 201.592 92.3212 199.768C94.1452 197.896 95.0572 195.64 95.0572 193C95.0572 190.36 94.1452 188.104 92.3212 186.28C90.4972 184.408 88.2412 183.496 85.6012 183.496C82.9612 183.496 80.7052 184.408 78.8812 186.28C77.0572 188.104 76.1452 190.36 76.1452 193C76.1452 195.64 77.0572 197.896 78.8812 199.768ZM124.133 185.704V181H127.301V205H124.133V200.296C121.925 203.8 118.709 205.576 114.437 205.576C111.029 205.576 108.101 204.376 105.653 201.928C103.253 199.48 102.053 196.504 102.053 193C102.053 189.496 103.253 186.52 105.653 184.072C108.101 181.624 111.029 180.424 114.437 180.424C118.709 180.424 121.925 182.2 124.133 185.704ZM107.957 199.768C109.781 201.592 112.037 202.504 114.677 202.504C117.317 202.504 119.573 201.592 121.397 199.768C123.221 197.896 124.133 195.64 124.133 193C124.133 190.36 123.221 188.104 121.397 186.28C119.573 184.408 117.317 183.496 114.677 183.496C112.037 183.496 109.781 184.408 107.957 186.28C106.133 188.104 105.221 190.36 105.221 193C105.221 195.64 106.133 197.896 107.957 199.768ZM145.192 205.576C141.592 205.576 138.568 204.376 136.168 201.976C133.768 199.528 132.568 196.552 132.568 193C132.568 189.448 133.768 186.472 136.168 184.072C138.568 181.624 141.592 180.424 145.192 180.424C149.944 180.424 153.976 182.872 155.704 186.712L153.112 188.2C151.816 185.32 148.792 183.496 145.192 183.496C142.552 183.496 140.296 184.408 138.472 186.28C136.648 188.104 135.736 190.36 135.736 193C135.736 195.64 136.648 197.896 138.472 199.768C140.296 201.592 142.552 202.504 145.192 202.504C148.792 202.504 151.72 200.68 153.304 197.8L155.944 199.336C153.976 203.176 149.848 205.576 145.192 205.576ZM163.709 176.824C162.797 177.736 161.357 177.736 160.445 176.824C159.533 175.912 159.533 174.472 160.445 173.56C161.357 172.648 162.797 172.648 163.709 173.56C164.621 174.472 164.621 175.912 163.709 176.824ZM163.661 205H160.493V181H163.661V205ZM183.103 181V184.072H176.191V198.616C176.191 202.744 178.495 202.408 183.103 202.216V205C176.383 206.008 173.023 204.184 173.023 198.616V184.072H167.983V181H173.023V175.24L176.191 174.28V181H183.103ZM198.356 201.112L206.132 181H209.492L199.22 207.208C197.348 211.96 193.748 214.936 189.524 214.6V211.624C192.404 211.96 194.612 210.28 196.1 206.632L196.724 205.144L185.972 181H189.332L198.356 201.112Z" fill="url(#paint0_linear_528_232)"/>
<path fill-rule="evenodd" clip-rule="evenodd" d="M104.906 95.749C108.706 108.848 120.856 118.248 134.855 118.248C152.105 118.248 166.105 104.248 166.105 86.9975C166.105 72.9975 156.705 60.7977 143.605 57.0477C143.605 59.6641 143.344 62.2216 142.845 64.6953L147.501 69.3512C148.951 70.8012 148.951 73.2012 147.501 74.6512C146.801 75.4012 145.851 75.7512 144.851 75.7512C143.901 75.7512 142.951 75.4012 142.201 74.6512L140.279 72.7294C138.858 75.918 137.019 78.8818 134.83 81.5497L139.756 86.4003C141.206 87.8503 141.256 90.2503 139.806 91.7003C139.106 92.4003 138.106 92.8003 137.156 92.8003C136.206 92.8003 135.256 92.4503 134.506 91.7503L129.542 86.8623C126.837 89.1022 123.824 90.9823 120.576 92.4278L122.499 94.3502C123.949 95.8002 123.949 98.2002 122.499 99.6502C121.799 100.4 120.849 100.75 119.849 100.75C118.899 100.75 117.949 100.4 117.199 99.6502L112.539 94.9906C110.425 95.4158 108.249 95.6679 106.027 95.7315C105.654 95.7426 105.281 95.7485 104.906 95.749ZM142.743 49.106C139.101 31.3358 123.267 18.249 104.853 18.249C83.5025 18.249 66.1025 35.649 66.1025 56.999C66.1025 75.4445 79.2786 91.3002 96.9685 94.9078C100.618 112.669 116.447 125.748 134.855 125.748C156.256 125.748 173.605 108.348 173.605 86.9975C173.605 68.581 160.516 52.7463 142.743 49.106Z" fill="url(#paint1_linear_528_232)"/>
<defs>
<linearGradient id="paint0_linear_528_232" x1="31" y1="192" x2="210" y2="192" gradientUnits="userSpaceOnUse">
<stop stop-color="#EC4899"/>
<stop offset="0.505208" stop-color="#EF4444"/>
<stop offset="1" stop-color="#EAB308"/>
</linearGradient>
<linearGradient id="paint1_linear_528_232" x1="66.1025" y1="18.249" x2="173.601" y2="125.752" gradientUnits="userSpaceOnUse">
<stop stop-color="#EC4899"/>
<stop offset="0.505208" stop-color="#EF4444"/>
<stop offset="1" stop-color="#EAB308"/>
</linearGradient>
</defs>
</svg>
