<svg width="240" height="240" viewBox="0 0 240 240" fill="none" xmlns="http://www.w3.org/2000/svg">
<path d="M80.1181 174.568L62.7421 201.832H80.5981V205H58.9981V201.832L76.3741 174.568H59.4781V171.4H80.1181V174.568ZM105.488 201.976C103.04 204.376 100.064 205.576 96.5596 205.576C93.0556 205.576 90.0316 204.376 87.5836 201.976C85.1356 199.528 83.9356 196.552 83.9356 193C83.9356 189.448 85.1356 186.472 87.5836 184.072C90.0316 181.624 93.0556 180.424 96.5596 180.424C100.064 180.424 103.04 181.624 105.488 184.072C107.936 186.472 109.184 189.448 109.184 193C109.184 196.552 107.936 199.528 105.488 201.976ZM89.8396 199.768C91.6636 201.592 93.9196 202.504 96.5596 202.504C99.1996 202.504 101.456 201.592 103.28 199.768C105.104 197.896 106.016 195.64 106.016 193C106.016 190.36 105.104 188.104 103.28 186.28C101.456 184.408 99.1996 183.496 96.5596 183.496C93.9196 183.496 91.6636 184.408 89.8396 186.28C88.0156 188.104 87.1036 190.36 87.1036 193C87.1036 195.64 88.0156 197.896 89.8396 199.768ZM134.597 201.976C132.149 204.376 129.173 205.576 125.669 205.576C122.165 205.576 119.141 204.376 116.693 201.976C114.245 199.528 113.045 196.552 113.045 193C113.045 189.448 114.245 186.472 116.693 184.072C119.141 181.624 122.165 180.424 125.669 180.424C129.173 180.424 132.149 181.624 134.597 184.072C137.045 186.472 138.293 189.448 138.293 193C138.293 196.552 137.045 199.528 134.597 201.976ZM118.949 199.768C120.773 201.592 123.029 202.504 125.669 202.504C128.309 202.504 130.565 201.592 132.389 199.768C134.213 197.896 135.125 195.64 135.125 193C135.125 190.36 134.213 188.104 132.389 186.28C130.565 184.408 128.309 183.496 125.669 183.496C123.029 183.496 120.773 184.408 118.949 186.28C117.125 188.104 116.213 190.36 116.213 193C116.213 195.64 117.125 197.896 118.949 199.768ZM169.178 180.424C174.554 180.424 178.154 184.12 178.154 190.024V205H174.986V190.024C174.986 185.848 172.634 183.496 169.13 183.496C165.146 183.496 162.458 186.088 162.458 191.704V205H159.29V190.024C159.29 185.8 157.13 183.496 153.674 183.496C149.834 183.496 146.762 186.136 146.762 191.704V205H143.594V181H146.762V184.504C148.49 181.768 150.938 180.424 154.106 180.424C157.562 180.424 160.01 181.864 161.402 184.792C163.13 181.864 165.722 180.424 169.178 180.424Z" fill="white"/>
<path d="M115.049 22.0005C90.199 22.0005 69.999 42.2005 69.999 67.0505C69.999 91.9005 90.199 112.1 115.049 112.1C139.899 112.1 160.099 91.9005 160.099 67.0505C160.099 42.2005 139.899 22.0005 115.049 22.0005ZM127.499 70.7505H118.749V79.5005C118.749 81.5505 117.049 83.2505 114.999 83.2505C112.949 83.2505 111.249 81.5505 111.249 79.5005V70.7505H102.499C100.449 70.7505 98.749 69.0505 98.749 67.0005C98.749 64.9505 100.449 63.2505 102.499 63.2505H111.249V54.5005C111.249 52.4505 112.949 50.7505 114.999 50.7505C117.049 50.7505 118.749 52.4505 118.749 54.5005V63.2505H127.499C129.549 63.2505 131.249 64.9505 131.249 67.0005C131.249 69.0505 129.549 70.7505 127.499 70.7505Z" fill="white"/>
<path d="M169.951 106.75C168.301 103.7 164.801 102 160.101 102C156.551 102 153.501 103.45 151.701 105.95C149.901 108.45 149.501 111.8 150.601 115.15C152.751 121.65 156.501 123.1 158.551 123.35C158.851 123.4 159.151 123.4 159.501 123.4C161.701 123.4 165.101 122.45 168.401 117.5C171.051 113.65 171.551 109.8 169.951 106.75Z" fill="white"/>
</svg>
