<svg width="48" height="54" viewBox="0 0 48 54" fill="none" xmlns="http://www.w3.org/2000/svg">
<path d="M14.1836 4.59807C15.0662 3.72332 15.0725 2.29872 14.1978 1.41612C13.323 0.533533 11.8984 0.527177 11.0158 1.40193L6.6924 5.68695C5.08386 7.28111 3.74231 8.61067 2.78578 9.80173C1.7825 11.051 1.01938 12.3639 0.815495 13.9635C0.56671 15.9154 2.18539 17.25 3.754 17.25H45C46.2426 17.25 47.25 16.2426 47.25 15C47.25 13.7574 46.2426 12.75 45 12.75H6.19107C6.22432 12.7074 6.25874 12.6639 6.29439 12.6195C7.07168 11.6516 8.22775 10.501 9.95245 8.79161L14.1836 4.59807Z" fill="white"/>
<path d="M3 36.75C1.75736 36.75 0.75 37.7574 0.75 39C0.75 40.2426 1.75736 41.25 3 41.25H42.4097C42.3764 41.2926 42.342 41.3361 42.3063 41.3805C41.529 42.3484 40.373 43.499 38.6483 45.2084L34.4172 49.4019C33.5346 50.2767 33.5282 51.7013 34.403 52.5839C35.2777 53.4665 36.7023 53.4728 37.5849 52.5981L41.9083 48.3131C43.5168 46.719 44.8584 45.3893 45.815 44.1983C46.8182 42.949 47.5813 41.6361 47.7852 40.0365C47.7941 39.9667 47.8021 39.8969 47.8092 39.827C47.9926 38.0185 46.506 36.75 45 36.75H3Z" fill="white"/>
</svg>
