<svg width="96" height="96" viewBox="0 0 96 96" fill="none" xmlns="http://www.w3.org/2000/svg">
<circle cx="48" cy="48" r="48" fill="white" fill-opacity="0.25"/>
<path fill-rule="evenodd" clip-rule="evenodd" d="M46.409 12.659C47.2877 11.7803 48.7123 11.7803 49.591 12.659L58.591 21.659C59.4697 22.5377 59.4697 23.9623 58.591 24.841C57.7123 25.7197 56.2877 25.7197 55.409 24.841L50.25 19.682V36.75C50.25 37.9926 49.2426 39 48 39C46.7574 39 45.75 37.9926 45.75 36.75V19.682L40.591 24.841C39.7123 25.7197 38.2877 25.7197 37.409 24.841C36.5303 23.9623 36.5303 22.5377 37.409 21.659L46.409 12.659ZM48 57C49.2426 57 50.25 58.0074 50.25 59.25V76.318L55.409 71.159C56.2877 70.2803 57.7123 70.2803 58.591 71.159C59.4697 72.0377 59.4697 73.4623 58.591 74.341L49.591 83.341C48.7123 84.2197 47.2877 84.2197 46.409 83.341L37.409 74.341C36.5303 73.4623 36.5303 72.0377 37.409 71.159C38.2877 70.2803 39.7123 70.2803 40.591 71.159L45.75 76.318V59.25C45.75 58.0074 46.7574 57 48 57Z" fill="url(#paint0_linear_298_37388)"/>
<path fill-rule="evenodd" clip-rule="evenodd" d="M12.659 49.591C11.7803 48.7123 11.7803 47.2877 12.659 46.409L21.659 37.409C22.5377 36.5303 23.9623 36.5303 24.841 37.409C25.7197 38.2877 25.7197 39.7123 24.841 40.591L19.682 45.75H36.75C37.9926 45.75 39 46.7574 39 48C39 49.2426 37.9926 50.25 36.75 50.25H19.682L24.841 55.409C25.7197 56.2877 25.7197 57.7123 24.841 58.591C23.9623 59.4697 22.5377 59.4697 21.659 58.591L12.659 49.591ZM57 48C57 46.7574 58.0074 45.75 59.25 45.75H76.318L71.159 40.591C70.2803 39.7123 70.2803 38.2877 71.159 37.409C72.0377 36.5303 73.4623 36.5303 74.341 37.409L83.341 46.409C84.2197 47.2877 84.2197 48.7123 83.341 49.591L74.341 58.591C73.4623 59.4697 72.0377 59.4697 71.159 58.591C70.2803 57.7123 70.2803 56.2877 71.159 55.409L76.318 50.25H59.25C58.0074 50.25 57 49.2426 57 48Z" fill="url(#paint1_linear_298_37388)"/>
<defs>
<linearGradient id="paint0_linear_298_37388" x1="48" y1="12" x2="48" y2="84" gradientUnits="userSpaceOnUse">
<stop stop-color="#384152"/>
<stop offset="1"/>
</linearGradient>
<linearGradient id="paint1_linear_298_37388" x1="12" y1="48" x2="84" y2="48" gradientUnits="userSpaceOnUse">
<stop stop-color="#384152"/>
<stop offset="1"/>
</linearGradient>
</defs>
</svg>
