<svg width="72" height="72" viewBox="0 0 72 72" fill="none" xmlns="http://www.w3.org/2000/svg">
<path opacity="0.4" d="M66 23.43V41.7L61.11 37.5C58.77 35.49 54.99 35.49 52.65 37.5L40.17 48.21C37.83 50.22 34.05 50.22 31.71 48.21L30.69 47.37C28.56 45.51 25.17 45.33 22.77 46.95L8.01 56.85L7.68 57.09C6.57 54.69 6 51.84 6 48.57V23.43C6 12.51 12.51 6 23.43 6H48.57C59.49 6 66 12.51 66 23.43Z" fill="white"/>
<path d="M26.9974 31.1403C30.9408 31.1403 34.1373 27.9437 34.1373 24.0004C34.1373 20.057 30.9408 16.8604 26.9974 16.8604C23.0541 16.8604 19.8574 20.057 19.8574 24.0004C19.8574 27.9437 23.0541 31.1403 26.9974 31.1403Z" fill="white"/>
<path d="M66.0015 41.6987V48.5687C66.0015 59.4887 59.4915 65.9987 48.5715 65.9987H23.4316C15.7816 65.9987 10.2616 62.7887 7.68164 57.0887L8.01164 56.8487L22.7716 46.9487C25.1716 45.3287 28.5616 45.5087 30.6915 47.3687L31.7115 48.2087C34.0515 50.2187 37.8315 50.2187 40.1715 48.2087L52.6515 37.4987C54.9915 35.4887 58.7715 35.4887 61.1115 37.4987L66.0015 41.6987Z" fill="white"/>
</svg>
