<svg width="72" height="72" viewBox="0 0 72 72" fill="none" xmlns="http://www.w3.org/2000/svg">
<path d="M33 62.25C16.86 62.25 3.75 49.14 3.75 33C3.75 16.86 16.86 3.75 33 3.75C49.14 3.75 62.25 16.86 62.25 33C62.25 49.14 49.14 62.25 33 62.25ZM33 8.25C19.35 8.25 8.25 19.35 8.25 33C8.25 46.65 19.35 57.75 33 57.75C46.65 57.75 57.75 46.65 57.75 33C57.75 19.35 46.65 8.25 33 8.25Z" fill="white"/>
<path d="M40.5 35.25H25.5C24.27 35.25 23.25 34.23 23.25 33C23.25 31.77 24.27 30.75 25.5 30.75H40.5C41.73 30.75 42.75 31.77 42.75 33C42.75 34.23 41.73 35.25 40.5 35.25Z" fill="white"/>
<path d="M33 42.75C31.77 42.75 30.75 41.73 30.75 40.5V25.5C30.75 24.27 31.77 23.25 33 23.25C34.23 23.25 35.25 24.27 35.25 25.5V40.5C35.25 41.73 34.23 42.75 33 42.75Z" fill="white"/>
<path d="M60.4803 68.37C60.2403 68.37 60.0003 68.34 59.7903 68.31C58.3803 68.13 55.8303 67.17 54.3903 62.88C53.6403 60.63 53.9103 58.38 55.1403 56.67C56.3703 54.96 58.4403 54 60.8103 54C63.8703 54 66.2703 55.17 67.3503 57.24C68.4303 59.31 68.1303 61.95 66.4203 64.5C64.2903 67.71 61.9803 68.37 60.4803 68.37ZM58.6803 61.47C59.1903 63.03 59.9103 63.81 60.3903 63.87C60.8703 63.93 61.7703 63.36 62.7003 62.01C63.5703 60.72 63.6303 59.79 63.4203 59.37C63.2103 58.95 62.3703 58.5 60.8103 58.5C59.8803 58.5 59.1903 58.8 58.8003 59.31C58.4403 59.82 58.3803 60.6 58.6803 61.47Z" fill="white"/>
</svg>
