<svg width="1138" height="300" viewBox="0 0 1138 300" fill="none" xmlns="http://www.w3.org/2000/svg">
<g filter="url(#filter0_d_298_37447)">
<path d="M61.5339 58.4C61.2939 60.224 60.5979 61.736 59.4459 62.936C58.3419 64.088 56.8299 64.736 54.9099 64.88H54.2619C53.1579 64.88 52.0779 64.784 51.0219 64.592C50.0139 64.4 49.1259 64.376 48.3579 64.52C47.6379 64.664 47.0859 65.096 46.7019 65.816C46.3179 66.536 46.1979 67.784 46.3419 69.56C46.4379 70.856 46.5339 72.176 46.6299 73.52C46.7259 74.816 46.7739 76.16 46.7739 77.552C46.7739 79.088 46.5819 80.552 46.1979 81.944C45.8619 83.288 45.3099 84.488 44.5419 85.544C43.8219 86.6 42.8859 87.44 41.7339 88.064C40.6299 88.688 39.3339 89 37.8459 89C32.9979 89 29.4939 87.968 27.3339 85.904C25.2219 83.792 24.1659 80.576 24.1659 76.256C24.1659 73.424 24.1419 70.448 24.0939 67.328C24.0939 64.16 24.0939 61.184 24.0939 58.4C24.0939 57.68 24.0939 56.96 24.0939 56.24C24.1419 55.52 24.1659 54.8 24.1659 54.08C24.2619 50.48 24.6219 47.312 25.2459 44.576C25.9179 41.792 26.9739 39.464 28.4139 37.592C29.9019 35.672 31.8459 34.208 34.2459 33.2C36.6939 32.192 39.7179 31.64 43.3179 31.544H45.1179C47.1339 31.544 49.0779 31.664 50.9499 31.904C52.8699 32.096 54.5979 32.504 56.1339 33.128C57.6699 33.704 58.9419 34.568 59.9499 35.72C60.9579 36.824 61.5339 38.312 61.6779 40.184V40.616C61.6779 41.768 61.4619 42.824 61.0299 43.784C60.5979 44.696 59.9979 45.488 59.2299 46.16C58.4619 46.832 57.5739 47.36 56.5659 47.744C55.5579 48.128 54.4779 48.32 53.3259 48.32C53.1819 48.32 53.0379 48.32 52.8939 48.32C52.7499 48.272 52.6059 48.248 52.4619 48.248C51.9339 48.2 51.3579 48.152 50.7339 48.104C50.1099 48.008 49.5339 48.008 49.0059 48.104C48.5259 48.152 48.1179 48.32 47.7819 48.608C47.4459 48.896 47.2779 49.376 47.2779 50.048C47.2779 50.48 47.5179 50.792 47.9979 50.984C48.4779 51.128 49.0299 51.2 49.6539 51.2C50.3259 51.2 50.9979 51.176 51.6699 51.128C52.3899 51.032 52.9659 50.984 53.3979 50.984C55.7499 50.984 57.6939 51.536 59.2299 52.64C60.8139 53.744 61.6059 55.448 61.6059 57.752C61.6059 57.848 61.5819 57.968 61.5339 58.112C61.5339 58.256 61.5339 58.376 61.5339 58.472V58.4ZM95.7001 57.32C95.7001 56.312 95.2921 55.472 94.4761 54.8C93.6601 54.08 92.7241 53.72 91.6681 53.72C90.7561 53.72 89.9161 54.032 89.1481 54.656C88.3321 55.328 87.9241 56.192 87.9241 57.248C87.9241 58.16 88.2601 58.952 88.9321 59.624C89.3161 60.008 89.7481 60.32 90.2281 60.56C90.7561 60.752 91.3081 60.848 91.8841 60.848C92.7481 60.848 93.5161 60.608 94.1881 60.128C94.6201 59.792 94.9801 59.384 95.2681 58.904C95.5561 58.424 95.7001 57.896 95.7001 57.32ZM92.3161 36.872C95.6281 36.872 98.8681 37.448 102.036 38.6C105.204 39.752 108.036 41.408 110.532 43.568C113.172 45.872 115.284 48.632 116.868 51.848C118.452 55.064 119.316 58.424 119.46 61.928V62.936C119.46 66.392 118.764 69.752 117.372 73.016C115.98 76.28 114.036 79.136 111.54 81.584C108.948 84.08 105.972 86 102.612 87.344C99.3001 88.64 95.8441 89.288 92.2441 89.288H91.6681C88.3561 89.192 85.1401 88.568 82.0201 87.416C78.9481 86.216 76.1881 84.512 73.7401 82.304C71.2921 80.096 69.3001 77.504 67.7641 74.528C66.2761 71.552 65.4121 68.408 65.1721 65.096C65.1241 64.76 65.1001 64.448 65.1001 64.16C65.1001 63.872 65.1001 63.56 65.1001 63.224C65.1001 59.912 65.7001 56.744 66.9001 53.72C68.1481 50.648 69.9001 47.912 72.1561 45.512C74.6041 42.92 77.4841 40.88 80.7961 39.392C84.1561 37.856 87.6361 37.016 91.2361 36.872H92.3161ZM134.712 36.872C136.872 36.872 138.744 37.448 140.328 38.6C141.912 39.752 143.064 41.096 143.784 42.632C144.312 43.784 144.624 45.008 144.72 46.304C144.864 47.6 144.936 48.872 144.936 50.12C144.936 53.48 144.816 56.84 144.576 60.2C144.336 63.512 143.976 66.824 143.496 70.136C144.264 69.944 145.128 69.848 146.088 69.848C147.432 69.848 148.704 70.064 149.904 70.496C151.152 70.928 152.232 71.528 153.144 72.296C154.104 73.064 154.848 74 155.376 75.104C155.952 76.16 156.24 77.36 156.24 78.704C156.24 79.76 156.024 80.792 155.592 81.8C155.208 82.808 154.68 83.72 154.008 84.536C152.664 86.12 150.936 87.32 148.824 88.136C146.76 88.952 144.36 89.36 141.624 89.36C138.36 89.36 135.336 88.976 132.552 88.208C129.768 87.392 127.608 86.024 126.072 84.104C125.4 83.24 124.872 82.304 124.488 81.296C124.104 80.288 123.816 79.208 123.624 78.056C123.432 76.856 123.312 75.608 123.264 74.312C123.216 72.968 123.192 71.576 123.192 70.136C123.192 66.968 123.24 63.8 123.336 60.632C123.432 57.464 123.528 54.296 123.624 51.128C123.672 49.208 123.912 47.384 124.344 45.656C124.776 43.928 125.424 42.416 126.288 41.12C127.152 39.824 128.28 38.792 129.672 38.024C131.064 37.256 132.744 36.872 134.712 36.872ZM171.429 36.872C173.589 36.872 175.461 37.448 177.045 38.6C178.629 39.752 179.781 41.096 180.501 42.632C181.029 43.784 181.341 45.008 181.437 46.304C181.581 47.6 181.653 48.872 181.653 50.12C181.653 53.48 181.533 56.84 181.293 60.2C181.053 63.512 180.693 66.824 180.213 70.136C180.981 69.944 181.845 69.848 182.805 69.848C184.149 69.848 185.421 70.064 186.621 70.496C187.869 70.928 188.949 71.528 189.861 72.296C190.821 73.064 191.565 74 192.093 75.104C192.669 76.16 192.957 77.36 192.957 78.704C192.957 79.76 192.741 80.792 192.309 81.8C191.925 82.808 191.397 83.72 190.725 84.536C189.381 86.12 187.653 87.32 185.541 88.136C183.477 88.952 181.077 89.36 178.341 89.36C175.077 89.36 172.053 88.976 169.269 88.208C166.485 87.392 164.325 86.024 162.789 84.104C162.117 83.24 161.589 82.304 161.205 81.296C160.821 80.288 160.533 79.208 160.341 78.056C160.149 76.856 160.029 75.608 159.981 74.312C159.933 72.968 159.909 71.576 159.909 70.136C159.909 66.968 159.957 63.8 160.053 60.632C160.149 57.464 160.245 54.296 160.341 51.128C160.389 49.208 160.629 47.384 161.061 45.656C161.493 43.928 162.141 42.416 163.005 41.12C163.869 39.824 164.997 38.792 166.389 38.024C167.781 37.256 169.461 36.872 171.429 36.872ZM222.867 57.32C222.867 56.312 222.459 55.472 221.643 54.8C220.827 54.08 219.891 53.72 218.835 53.72C217.923 53.72 217.083 54.032 216.315 54.656C215.499 55.328 215.091 56.192 215.091 57.248C215.091 58.16 215.427 58.952 216.099 59.624C216.483 60.008 216.915 60.32 217.395 60.56C217.923 60.752 218.475 60.848 219.051 60.848C219.915 60.848 220.683 60.608 221.355 60.128C221.787 59.792 222.147 59.384 222.435 58.904C222.723 58.424 222.867 57.896 222.867 57.32ZM219.483 36.872C222.795 36.872 226.035 37.448 229.203 38.6C232.371 39.752 235.203 41.408 237.699 43.568C240.339 45.872 242.451 48.632 244.035 51.848C245.619 55.064 246.483 58.424 246.627 61.928V62.936C246.627 66.392 245.931 69.752 244.539 73.016C243.147 76.28 241.203 79.136 238.707 81.584C236.115 84.08 233.139 86 229.779 87.344C226.467 88.64 223.011 89.288 219.411 89.288H218.835C215.523 89.192 212.307 88.568 209.187 87.416C206.115 86.216 203.355 84.512 200.907 82.304C198.459 80.096 196.467 77.504 194.931 74.528C193.443 71.552 192.579 68.408 192.339 65.096C192.291 64.76 192.267 64.448 192.267 64.16C192.267 63.872 192.267 63.56 192.267 63.224C192.267 59.912 192.867 56.744 194.067 53.72C195.315 50.648 197.067 47.912 199.323 45.512C201.771 42.92 204.651 40.88 207.963 39.392C211.323 37.856 214.803 37.016 218.403 36.872H219.483ZM284.238 55.88C284.43 55.88 284.622 55.616 284.814 55.088C285.054 54.56 285.246 53.888 285.39 53.072C285.582 52.208 285.75 51.296 285.894 50.336C286.086 49.328 286.23 48.392 286.326 47.528C286.47 46.664 286.566 45.92 286.614 45.296C286.71 44.624 286.782 44.192 286.83 44C287.07 42.416 287.598 41.048 288.414 39.896C289.23 38.744 290.31 37.904 291.654 37.376C292.23 37.136 292.806 36.968 293.382 36.872C293.958 36.776 294.534 36.728 295.11 36.728C296.742 36.728 298.206 37.112 299.502 37.88C300.846 38.648 301.902 39.632 302.67 40.832C303.39 41.936 303.846 43.184 304.038 44.576C304.278 45.968 304.446 47.504 304.542 49.184C304.59 50.288 304.638 51.464 304.686 52.712C304.734 53.912 304.758 55.136 304.758 56.384C304.758 59.264 304.638 62.24 304.398 65.312C304.206 68.384 303.798 71.288 303.174 74.024C302.598 76.712 301.806 79.136 300.798 81.296C299.79 83.456 298.494 85.088 296.91 86.192C295.806 86.96 294.63 87.536 293.382 87.92C292.182 88.256 290.982 88.424 289.782 88.424C287.862 88.424 286.062 87.992 284.382 87.128C282.75 86.264 281.454 85.064 280.494 83.528C279.63 82.136 278.958 80.912 278.478 79.856C277.998 78.8 277.638 77.936 277.398 77.264C277.158 76.544 276.99 76.016 276.894 75.68C276.846 75.296 276.798 75.104 276.75 75.104C276.702 75.104 276.63 75.272 276.534 75.608C276.486 75.944 276.318 76.448 276.03 77.12C275.79 77.744 275.43 78.56 274.95 79.568C274.47 80.576 273.798 81.752 272.934 83.096C272.406 83.912 271.758 84.656 270.99 85.328C270.27 86 269.478 86.552 268.614 86.984C266.886 87.848 265.11 88.28 263.286 88.28C260.886 88.28 258.654 87.584 256.59 86.192C255.006 85.088 253.71 83.456 252.702 81.296C251.694 79.136 250.878 76.712 250.254 74.024C249.678 71.288 249.27 68.384 249.03 65.312C248.838 62.24 248.742 59.264 248.742 56.384C248.742 55.136 248.742 53.912 248.742 52.712C248.79 51.464 248.838 50.288 248.886 49.184C248.982 47.504 249.126 45.968 249.318 44.576C249.558 43.184 250.038 41.936 250.758 40.832C251.526 39.632 252.582 38.648 253.926 37.88C255.27 37.112 256.758 36.728 258.39 36.728C258.966 36.728 259.542 36.776 260.118 36.872C260.694 36.968 261.27 37.136 261.846 37.376C263.19 37.904 264.27 38.744 265.086 39.896C265.902 41.048 266.43 42.416 266.67 44C266.718 44.24 266.814 44.984 266.958 46.232C267.102 47.48 267.294 48.8 267.534 50.192C267.774 51.536 268.038 52.76 268.326 53.864C268.614 54.968 268.902 55.52 269.19 55.52C269.43 55.52 269.598 54.992 269.694 53.936C269.838 52.832 270.102 51.632 270.486 50.336C270.87 48.992 271.494 47.792 272.358 46.736C273.27 45.632 274.59 45.08 276.318 45.08C277.854 45.08 279.078 45.344 279.99 45.872C280.95 46.4 281.694 47.072 282.222 47.888C282.798 48.704 283.182 49.568 283.374 50.48C283.614 51.392 283.758 52.256 283.806 53.072C283.902 53.888 283.95 54.56 283.95 55.088C283.998 55.616 284.094 55.88 284.238 55.88ZM375.756 34.136C377.244 35.24 378.324 36.656 378.996 38.384C379.668 40.112 380.004 41.864 380.004 43.64C380.004 44.84 379.86 46.016 379.572 47.168C379.284 48.272 378.852 49.256 378.276 50.12C377.748 50.984 377.076 51.68 376.26 52.208C375.492 52.736 374.628 53 373.668 53C373.044 53 372.468 52.904 371.94 52.712C371.748 52.664 371.58 52.64 371.436 52.64C371.34 52.592 371.22 52.568 371.076 52.568C370.5 52.568 370.068 52.784 369.78 53.216C369.54 53.648 369.42 54.224 369.42 54.944C369.42 55.04 369.42 55.16 369.42 55.304C369.468 55.448 369.492 55.568 369.492 55.664C369.636 57.68 369.78 59.696 369.924 61.712C370.068 63.728 370.14 65.768 370.14 67.832C370.14 69.224 370.092 70.64 369.996 72.08C369.9 73.472 369.732 74.912 369.492 76.4C369.252 77.888 368.868 79.376 368.34 80.864C367.812 82.352 367.14 83.72 366.324 84.968C365.508 86.168 364.524 87.152 363.372 87.92C362.268 88.688 360.996 89.072 359.556 89.072C359.268 89.072 358.956 89.048 358.62 89C358.332 88.952 358.02 88.88 357.684 88.784C356.436 88.496 355.332 87.992 354.372 87.272C353.412 86.552 352.548 85.688 351.78 84.68C351.06 83.624 350.46 82.472 349.98 81.224C349.5 79.928 349.116 78.608 348.828 77.264C348.636 76.4 348.516 75.584 348.468 74.816C348.42 74.048 348.396 73.304 348.396 72.584C348.396 71 348.516 69.536 348.756 68.192C349.044 66.8 349.332 65.432 349.62 64.088C349.908 62.696 350.172 61.28 350.412 59.84C350.7 58.4 350.844 56.864 350.844 55.232C350.844 54.992 350.82 54.752 350.772 54.512C350.772 54.272 350.772 54.032 350.772 53.792C350.676 52.64 350.388 51.896 349.908 51.56C349.476 51.176 348.924 50.984 348.252 50.984C347.772 50.984 347.268 51.032 346.74 51.128C346.212 51.224 345.684 51.272 345.156 51.272C344.916 51.272 344.556 51.224 344.076 51.128C342.636 50.744 341.532 49.952 340.764 48.752C339.996 47.504 339.612 45.992 339.612 44.216C339.612 44.072 339.612 43.928 339.612 43.784C339.66 43.592 339.684 43.424 339.684 43.28C340.068 38.24 342.324 34.904 346.452 33.272C348.276 32.6 350.508 32.072 353.148 31.688C355.788 31.304 358.5 31.112 361.284 31.112C364.308 31.112 367.14 31.352 369.78 31.832C372.42 32.312 374.412 33.08 375.756 34.136ZM404.774 52.784C405.302 52.784 405.83 52.784 406.358 52.784C406.934 52.784 407.51 52.808 408.086 52.856C408.278 50.024 408.662 47.408 409.238 45.008C409.862 42.608 411.014 40.664 412.694 39.176C413.654 38.36 414.686 37.76 415.79 37.376C416.942 36.944 418.142 36.728 419.39 36.728C420.686 36.728 421.934 36.968 423.134 37.448C424.382 37.88 425.462 38.552 426.374 39.464C427.862 40.904 428.822 42.704 429.254 44.864C429.734 47.024 430.022 49.448 430.118 52.136C430.262 55.448 430.334 58.784 430.334 62.144C430.334 64.544 430.286 66.92 430.19 69.272C430.142 71.576 430.022 73.928 429.83 76.328C429.734 77.528 429.59 78.704 429.398 79.856C429.254 81.008 428.918 82.136 428.39 83.24C427.67 84.776 426.518 86.144 424.934 87.344C423.398 88.496 421.55 89.072 419.39 89.072C418.91 89.072 418.55 89.048 418.31 89C416.342 88.76 414.662 88.088 413.27 86.984C411.878 85.832 410.774 84.536 409.958 83.096C409.142 81.56 408.566 79.808 408.23 77.84C407.942 75.824 407.75 73.712 407.654 71.504C407.174 71.504 406.694 71.504 406.214 71.504C405.734 71.504 405.23 71.48 404.702 71.432C404.654 72.248 404.606 73.064 404.558 73.88C404.558 74.696 404.51 75.512 404.414 76.328C404.318 77.528 404.174 78.704 403.982 79.856C403.838 81.008 403.502 82.136 402.974 83.24C402.302 84.776 401.174 86.144 399.59 87.344C398.006 88.496 396.134 89.072 393.974 89.072C393.494 89.072 393.134 89.048 392.894 89C390.974 88.76 389.294 88.088 387.854 86.984C386.462 85.832 385.358 84.536 384.542 83.096C383.582 81.272 382.958 79.16 382.67 76.76C382.382 74.36 382.238 71.864 382.238 69.272C382.238 67.88 382.238 66.512 382.238 65.168C382.286 63.776 382.334 62.408 382.382 61.064C382.43 59 382.478 56.912 382.526 54.8C382.622 52.64 382.814 50.6 383.102 48.68C383.39 46.712 383.846 44.912 384.47 43.28C385.142 41.648 386.078 40.28 387.278 39.176C388.238 38.36 389.27 37.76 390.374 37.376C391.526 36.944 392.726 36.728 393.974 36.728C395.27 36.728 396.518 36.968 397.718 37.448C398.966 37.88 400.046 38.552 400.958 39.464C402.446 40.904 403.406 42.704 403.838 44.864C404.318 47.024 404.606 49.448 404.702 52.136L404.774 52.784ZM467.986 45.584C467.986 45.68 467.986 45.752 467.986 45.8C468.034 45.848 468.058 45.92 468.058 46.016C468.058 46.976 467.866 47.936 467.482 48.896C467.098 49.808 466.57 50.624 465.898 51.344C465.274 52.064 464.506 52.64 463.594 53.072C462.682 53.504 461.698 53.72 460.642 53.72C460.498 53.72 460.33 53.72 460.138 53.72C459.994 53.72 459.826 53.696 459.634 53.648C459.25 53.6 458.842 53.552 458.41 53.504C457.978 53.408 457.546 53.36 457.114 53.36C456.634 53.36 456.202 53.432 455.818 53.576C455.482 53.72 455.242 54.008 455.098 54.44C455.002 54.728 454.954 54.92 454.954 55.016C454.954 55.4 455.122 55.664 455.458 55.808C455.842 55.952 456.25 56.024 456.682 56.024C457.018 56.024 457.282 56 457.474 55.952C457.858 55.904 458.218 55.88 458.554 55.88C458.89 55.832 459.25 55.808 459.634 55.808C460.018 55.808 460.402 55.832 460.786 55.88C461.17 55.88 461.554 55.904 461.938 55.952C464.53 56.24 466.282 57.344 467.194 59.264C467.674 60.272 467.914 61.376 467.914 62.576C467.914 64.016 467.554 65.36 466.834 66.608C466.114 67.808 465.202 68.672 464.098 69.2C463.282 69.584 462.322 69.776 461.218 69.776C460.546 69.776 459.874 69.728 459.202 69.632C458.53 69.488 457.858 69.344 457.186 69.2C456.994 69.152 456.706 69.128 456.322 69.128C455.842 69.128 455.434 69.224 455.098 69.416C454.81 69.608 454.666 69.944 454.666 70.424C454.666 71.096 454.882 71.576 455.314 71.864C455.794 72.104 456.346 72.224 456.97 72.224C457.21 72.224 457.45 72.224 457.69 72.224C457.978 72.176 458.242 72.128 458.482 72.08C458.818 72.032 459.154 72.008 459.49 72.008C459.826 71.96 460.138 71.936 460.426 71.936C462.586 71.936 464.314 72.536 465.61 73.736C466.954 74.888 467.626 76.568 467.626 78.776C467.626 78.872 467.602 78.968 467.554 79.064C467.554 79.112 467.554 79.184 467.554 79.28C467.458 81.056 467.002 82.568 466.186 83.816C465.37 85.016 464.29 86.024 462.946 86.84C461.65 87.608 460.162 88.184 458.482 88.568C456.802 88.904 455.026 89.072 453.154 89.072C451.378 89.072 449.602 88.928 447.826 88.64C446.386 88.4 444.946 88.04 443.506 87.56C442.114 87.032 440.866 86.288 439.762 85.328C438.466 84.224 437.434 82.808 436.666 81.08C435.946 79.304 435.37 77.384 434.938 75.32C434.554 73.208 434.29 70.976 434.146 68.624C434.05 66.272 434.002 63.92 434.002 61.568V57.392C434.05 53.744 434.41 50.456 435.082 47.528C435.802 44.6 437.266 42.272 439.474 40.544C441.01 39.296 442.978 38.408 445.378 37.88C447.778 37.304 450.322 37.016 453.01 37.016C453.922 37.016 454.834 37.04 455.746 37.088C456.658 37.136 457.57 37.232 458.482 37.376C459.49 37.52 460.474 37.736 461.434 38.024C462.442 38.312 463.378 38.72 464.242 39.248C465.346 39.92 466.21 40.832 466.834 41.984C467.506 43.136 467.89 44.336 467.986 45.584ZM550.384 49.904C549.664 50.432 548.848 50.84 547.936 51.128C547.072 51.368 546.16 51.488 545.2 51.488C544.96 51.488 544.72 51.488 544.48 51.488C544.288 51.488 544.072 51.464 543.832 51.416C542.776 51.272 541.744 51.008 540.736 50.624C539.728 50.24 538.696 50 537.64 49.904C537.4 49.856 537.04 49.832 536.56 49.832C535.456 49.832 534.376 50.048 533.32 50.48C532.312 50.864 531.376 51.392 530.512 52.064C529.696 52.736 528.976 53.504 528.352 54.368C527.776 55.232 527.344 56.12 527.056 57.032C526.72 58.088 526.552 59.24 526.552 60.488C526.552 62.456 526.96 64.232 527.776 65.816C528.64 67.4 529.672 68.6 530.872 69.416C531.256 69.656 531.808 69.896 532.528 70.136C533.296 70.376 534.04 70.496 534.76 70.496C535.336 70.496 535.84 70.4 536.272 70.208C536.752 69.968 537.04 69.584 537.136 69.056V68.552C537.136 68.12 537.016 67.784 536.776 67.544C536.536 67.256 536.248 67.064 535.912 66.968C535.576 66.824 535.216 66.728 534.832 66.68C534.448 66.584 534.088 66.488 533.752 66.392C532.84 66.104 532.12 65.528 531.592 64.664C531.064 63.752 530.8 62.744 530.8 61.64C530.8 60.824 530.944 60.008 531.232 59.192C531.76 57.8 532.576 56.648 533.68 55.736C534.784 54.776 536.032 54.08 537.424 53.648C538.192 53.408 538.96 53.264 539.728 53.216C540.496 53.12 541.288 53.072 542.104 53.072C542.536 53.072 542.968 53.072 543.4 53.072C543.88 53.072 544.336 53.096 544.768 53.144C549.28 53.384 552.76 54.728 555.208 57.176C557.656 59.624 558.88 63.368 558.88 68.408C558.88 69.656 558.784 70.904 558.592 72.152C558.4 73.352 558.088 74.552 557.656 75.752C557.032 77.48 556.168 79.088 555.064 80.576C554.008 82.016 552.784 83.312 551.392 84.464C550 85.568 548.488 86.552 546.856 87.416C545.224 88.232 543.52 88.904 541.744 89.432C538.528 90.344 535.336 90.8 532.168 90.8C529.096 90.8 526.168 90.392 523.384 89.576C520.648 88.76 518.128 87.656 515.824 86.264C513.52 84.872 511.504 83.24 509.776 81.368C508.048 79.496 506.656 77.48 505.6 75.32C504.64 73.352 503.944 71.336 503.512 69.272C503.128 67.16 502.936 65.024 502.936 62.864C502.936 60.416 503.2 57.872 503.728 55.232C504.448 51.584 505.576 48.296 507.112 45.368C508.696 42.44 510.688 39.944 513.088 37.88C515.536 35.816 518.392 34.232 521.656 33.128C524.92 32.024 528.616 31.472 532.744 31.472H534.04C535.912 31.52 537.76 31.688 539.584 31.976C541.408 32.216 543.136 32.6 544.768 33.128C546.4 33.608 547.84 34.256 549.088 35.072C550.384 35.84 551.44 36.8 552.256 37.952C552.784 38.72 553.168 39.536 553.408 40.4C553.648 41.216 553.768 42.056 553.768 42.92C553.768 44.312 553.456 45.632 552.832 46.88C552.256 48.128 551.44 49.136 550.384 49.904ZM582.661 53.576C582.757 54.152 582.997 54.56 583.381 54.8C583.765 55.04 584.173 55.16 584.605 55.16C585.133 55.16 585.637 54.992 586.117 54.656C586.645 54.32 586.909 53.84 586.909 53.216C586.909 53.12 586.861 52.88 586.765 52.496C586.429 51.584 585.805 51.128 584.893 51.128C584.365 51.128 583.861 51.32 583.381 51.704C582.901 52.04 582.661 52.52 582.661 53.144V53.576ZM588.277 37.736C591.973 38.072 595.309 38.84 598.285 40.04C601.309 41.24 603.685 43.064 605.413 45.512C607.093 47.912 607.933 50.648 607.933 53.72C607.933 55.112 607.765 56.408 607.429 57.608C607.045 59.096 606.421 60.512 605.557 61.856C604.741 63.152 603.733 64.28 602.533 65.24C603.781 66.824 604.957 68.696 606.061 70.856C607.213 72.968 607.861 75.176 608.005 77.48V78.344C608.005 81.032 607.261 83.36 605.773 85.328C604.333 87.296 602.485 88.52 600.229 89C599.509 89.144 598.837 89.216 598.213 89.216C596.197 89.216 594.421 88.688 592.885 87.632C591.349 86.528 590.149 85.352 589.285 84.104C588.181 82.568 587.413 80.864 586.981 78.992C586.549 77.12 586.309 75.224 586.261 73.304C586.261 72.632 586.213 72.008 586.117 71.432C586.021 70.856 585.757 70.424 585.325 70.136C585.085 69.992 584.893 69.92 584.749 69.92C584.413 69.92 584.173 70.112 584.029 70.496C583.885 70.832 583.813 71.192 583.813 71.576C583.813 72.536 583.861 73.472 583.957 74.384C584.101 75.248 584.173 76.136 584.173 77.048C584.173 77.24 584.149 77.408 584.101 77.552C584.101 77.696 584.101 77.864 584.101 78.056C584.005 80.36 583.381 82.424 582.229 84.248C581.125 86.072 579.661 87.392 577.837 88.208C576.445 88.784 575.125 89.072 573.877 89.072C571.957 89.072 570.205 88.568 568.621 87.56C567.085 86.504 565.909 85.304 565.093 83.96C564.133 82.376 563.485 80.648 563.149 78.776C562.861 76.904 562.693 75.032 562.645 73.16V71.576C562.645 69.368 562.693 67.184 562.789 65.024C562.885 62.864 562.981 60.68 563.077 58.472C563.125 56.84 563.173 55.208 563.221 53.576C563.317 51.944 563.605 50.36 564.085 48.824C564.613 47.096 565.405 45.488 566.461 44C567.565 42.512 568.885 41.288 570.421 40.328C572.101 39.32 574.069 38.6 576.325 38.168C578.629 37.736 581.053 37.52 583.597 37.52C585.133 37.52 586.693 37.592 588.277 37.736ZM645.37 45.584C645.37 45.68 645.37 45.752 645.37 45.8C645.418 45.848 645.442 45.92 645.442 46.016C645.442 46.976 645.25 47.936 644.866 48.896C644.482 49.808 643.954 50.624 643.282 51.344C642.658 52.064 641.89 52.64 640.978 53.072C640.066 53.504 639.082 53.72 638.026 53.72C637.882 53.72 637.714 53.72 637.522 53.72C637.378 53.72 637.21 53.696 637.018 53.648C636.634 53.6 636.226 53.552 635.794 53.504C635.362 53.408 634.93 53.36 634.498 53.36C634.018 53.36 633.586 53.432 633.202 53.576C632.866 53.72 632.626 54.008 632.482 54.44C632.386 54.728 632.338 54.92 632.338 55.016C632.338 55.4 632.506 55.664 632.842 55.808C633.226 55.952 633.634 56.024 634.066 56.024C634.402 56.024 634.666 56 634.858 55.952C635.242 55.904 635.602 55.88 635.938 55.88C636.274 55.832 636.634 55.808 637.018 55.808C637.402 55.808 637.786 55.832 638.17 55.88C638.554 55.88 638.938 55.904 639.322 55.952C641.914 56.24 643.666 57.344 644.578 59.264C645.058 60.272 645.298 61.376 645.298 62.576C645.298 64.016 644.938 65.36 644.218 66.608C643.498 67.808 642.586 68.672 641.482 69.2C640.666 69.584 639.706 69.776 638.602 69.776C637.93 69.776 637.258 69.728 636.586 69.632C635.914 69.488 635.242 69.344 634.57 69.2C634.378 69.152 634.09 69.128 633.706 69.128C633.226 69.128 632.818 69.224 632.482 69.416C632.194 69.608 632.05 69.944 632.05 70.424C632.05 71.096 632.266 71.576 632.698 71.864C633.178 72.104 633.73 72.224 634.354 72.224C634.594 72.224 634.834 72.224 635.074 72.224C635.362 72.176 635.626 72.128 635.866 72.08C636.202 72.032 636.538 72.008 636.874 72.008C637.21 71.96 637.522 71.936 637.81 71.936C639.97 71.936 641.698 72.536 642.994 73.736C644.338 74.888 645.01 76.568 645.01 78.776C645.01 78.872 644.986 78.968 644.938 79.064C644.938 79.112 644.938 79.184 644.938 79.28C644.842 81.056 644.386 82.568 643.57 83.816C642.754 85.016 641.674 86.024 640.33 86.84C639.034 87.608 637.546 88.184 635.866 88.568C634.186 88.904 632.41 89.072 630.538 89.072C628.762 89.072 626.986 88.928 625.21 88.64C623.77 88.4 622.33 88.04 620.89 87.56C619.498 87.032 618.25 86.288 617.146 85.328C615.85 84.224 614.818 82.808 614.05 81.08C613.33 79.304 612.754 77.384 612.322 75.32C611.938 73.208 611.674 70.976 611.53 68.624C611.434 66.272 611.386 63.92 611.386 61.568V57.392C611.434 53.744 611.794 50.456 612.466 47.528C613.186 44.6 614.65 42.272 616.858 40.544C618.394 39.296 620.362 38.408 622.762 37.88C625.162 37.304 627.706 37.016 630.394 37.016C631.306 37.016 632.218 37.04 633.13 37.088C634.042 37.136 634.954 37.232 635.866 37.376C636.874 37.52 637.858 37.736 638.818 38.024C639.826 38.312 640.762 38.72 641.626 39.248C642.73 39.92 643.594 40.832 644.218 41.984C644.89 43.136 645.274 44.336 645.37 45.584ZM695.339 73.88C695.339 74.216 695.363 74.672 695.411 75.248C695.459 75.824 695.483 76.448 695.483 77.12C695.483 78.272 695.387 79.544 695.195 80.936C695.003 82.328 694.595 83.624 693.971 84.824C693.347 86.024 692.435 87.032 691.235 87.848C690.035 88.616 688.427 89 686.411 89C684.635 89 683.195 88.76 682.091 88.28C680.987 87.8 680.075 87.104 679.355 86.192C678.635 85.232 678.059 84.08 677.627 82.736C677.195 81.392 676.763 79.832 676.331 78.056C675.035 78.2 673.691 78.272 672.299 78.272C671.483 78.272 670.667 78.248 669.851 78.2C669.083 78.152 668.291 78.08 667.475 77.984C667.187 79.904 666.851 81.56 666.467 82.952C666.131 84.344 665.627 85.496 664.955 86.408C664.283 87.272 663.347 87.92 662.147 88.352C660.947 88.784 659.339 89 657.323 89C655.163 89 653.459 88.544 652.211 87.632C650.963 86.72 650.027 85.592 649.403 84.248C648.779 82.904 648.371 81.488 648.179 80C648.035 78.512 647.963 77.216 647.963 76.112V74.024C647.963 66.728 648.563 60.704 649.763 55.952C650.963 51.152 652.547 47.36 654.515 44.576C656.531 41.792 658.835 39.848 661.427 38.744C664.019 37.64 666.707 37.088 669.491 37.088C673.043 37.088 676.379 37.568 679.499 38.528C682.667 39.488 685.403 41.312 687.707 44C690.059 46.688 691.907 50.432 693.251 55.232C694.643 59.984 695.339 66.2 695.339 73.88ZM675.035 61.424C674.699 59.264 674.219 57.632 673.595 56.528C672.971 55.424 672.299 54.872 671.579 54.872C670.907 54.872 670.259 55.4 669.635 56.456C669.011 57.512 668.555 59.12 668.267 61.28C668.267 61.808 668.555 62.168 669.131 62.36C669.707 62.552 670.379 62.648 671.147 62.648C672.107 62.648 672.995 62.528 673.811 62.288C674.627 62.048 675.035 61.76 675.035 61.424ZM729.716 39.32C731.06 40.328 732.044 41.6 732.668 43.136C733.292 44.672 733.604 46.256 733.604 47.888C733.604 48.992 733.46 50.072 733.172 51.128C732.932 52.136 732.548 53.048 732.02 53.864C731.54 54.632 730.94 55.256 730.22 55.736C729.5 56.216 728.708 56.456 727.844 56.456C727.604 56.456 727.34 56.432 727.052 56.384C726.812 56.336 726.548 56.264 726.26 56.168C725.876 56.072 725.612 56.024 725.468 56.024C724.94 56.024 724.556 56.216 724.316 56.6C724.124 56.984 724.028 57.512 724.028 58.184C724.028 58.28 724.028 58.4 724.028 58.544C724.076 58.64 724.1 58.736 724.1 58.832C724.244 60.656 724.388 62.48 724.532 64.304C724.676 66.128 724.748 67.976 724.748 69.848C724.748 71.144 724.7 72.44 724.604 73.736C724.508 74.984 724.34 76.28 724.1 77.624C723.86 78.968 723.476 80.312 722.948 81.656C722.42 83 721.748 84.224 720.932 85.328C720.116 86.432 719.132 87.344 717.98 88.064C716.876 88.736 715.604 89.072 714.164 89.072C713.54 89.072 712.916 89 712.292 88.856C711.044 88.616 709.94 88.16 708.98 87.488C708.02 86.816 707.156 86.024 706.388 85.112C705.668 84.152 705.068 83.12 704.588 82.016C704.108 80.864 703.724 79.664 703.436 78.416C703.244 77.648 703.124 76.904 703.076 76.184C703.028 75.464 703.004 74.768 703.004 74.096C703.004 72.704 703.124 71.384 703.364 70.136C703.604 68.888 703.868 67.64 704.156 66.392C704.492 65.144 704.78 63.896 705.02 62.648C705.26 61.352 705.38 59.96 705.38 58.472V57.176C705.284 56.12 705.02 55.424 704.588 55.088C704.156 54.752 703.628 54.584 703.004 54.584C702.572 54.584 702.116 54.632 701.636 54.728C701.156 54.776 700.676 54.8 700.196 54.8C699.716 54.8 699.38 54.776 699.188 54.728C697.892 54.392 696.884 53.672 696.164 52.568C695.444 51.416 695.084 50.048 695.084 48.464V47.6C695.468 43.04 697.652 40.016 701.636 38.528C703.364 37.904 705.5 37.424 708.044 37.088C710.588 36.752 713.204 36.584 715.892 36.584C717.332 36.584 718.748 36.656 720.14 36.8C721.532 36.896 722.828 37.064 724.028 37.304C725.228 37.496 726.308 37.76 727.268 38.096C728.276 38.432 729.092 38.84 729.716 39.32ZM824.176 58.76C824.176 58.952 824.176 59.144 824.176 59.336C824.224 59.528 824.248 59.72 824.248 59.912C824.248 63.752 823.456 67.472 821.872 71.072C820.336 74.672 818.176 77.816 815.392 80.504C812.56 83.24 809.44 85.352 806.032 86.84C802.624 88.28 798.976 89 795.088 89C793.648 89 792.256 89 790.912 89C789.616 89 788.32 88.976 787.024 88.928C784.336 88.88 781.528 88.736 778.6 88.496C774.28 88.064 771.376 86.144 769.888 82.736C769.648 82.208 769.456 81.368 769.312 80.216C769.168 79.064 769.048 77.72 768.952 76.184C768.856 74.648 768.784 72.992 768.736 71.216C768.688 69.44 768.664 67.64 768.664 65.816C768.664 64.184 768.64 62.384 768.592 60.416C768.544 58.4 768.52 56.336 768.52 54.224C768.568 52.112 768.616 50.024 768.664 47.96C768.76 45.848 768.928 43.904 769.168 42.128C769.408 40.304 769.744 38.72 770.176 37.376C770.608 35.984 771.184 34.928 771.904 34.208C772.624 33.488 773.464 32.912 774.424 32.48C775.384 32.048 776.44 31.712 777.592 31.472C778.744 31.232 779.944 31.064 781.192 30.968C782.488 30.872 783.76 30.824 785.008 30.824C790.336 30.824 795.376 31.328 800.128 32.336C804.88 33.344 809.032 34.976 812.584 37.232C816.136 39.44 818.944 42.32 821.008 45.872C823.072 49.376 824.104 53.672 824.104 58.76H824.176ZM798.904 53.72C798.904 52.856 798.712 52.16 798.328 51.632C797.992 51.104 797.56 50.72 797.032 50.48C796.504 50.192 795.928 50.024 795.304 49.976C794.68 49.88 794.08 49.832 793.504 49.832C792.592 49.832 791.968 50.048 791.632 50.48C791.392 50.816 791.224 51.248 791.128 51.776C791.032 52.304 790.984 52.88 790.984 53.504C790.984 54.272 791.032 54.992 791.128 55.664C791.224 56.336 791.32 56.792 791.416 57.032C791.608 57.416 791.944 57.704 792.424 57.896C792.904 58.04 793.432 58.112 794.008 58.112C794.536 58.112 795.088 58.04 795.664 57.896C796.24 57.752 796.768 57.512 797.248 57.176C797.728 56.84 798.112 56.336 798.4 55.664C798.736 54.992 798.904 54.344 798.904 53.72ZM847.894 53.576C847.99 54.152 848.23 54.56 848.614 54.8C848.998 55.04 849.406 55.16 849.838 55.16C850.366 55.16 850.87 54.992 851.35 54.656C851.878 54.32 852.142 53.84 852.142 53.216C852.142 53.12 852.094 52.88 851.998 52.496C851.662 51.584 851.038 51.128 850.126 51.128C849.598 51.128 849.094 51.32 848.614 51.704C848.134 52.04 847.894 52.52 847.894 53.144V53.576ZM853.51 37.736C857.206 38.072 860.542 38.84 863.518 40.04C866.542 41.24 868.918 43.064 870.646 45.512C872.326 47.912 873.166 50.648 873.166 53.72C873.166 55.112 872.998 56.408 872.662 57.608C872.278 59.096 871.654 60.512 870.79 61.856C869.974 63.152 868.966 64.28 867.766 65.24C869.014 66.824 870.19 68.696 871.294 70.856C872.446 72.968 873.094 75.176 873.238 77.48V78.344C873.238 81.032 872.494 83.36 871.006 85.328C869.566 87.296 867.718 88.52 865.462 89C864.742 89.144 864.07 89.216 863.446 89.216C861.43 89.216 859.654 88.688 858.118 87.632C856.582 86.528 855.382 85.352 854.518 84.104C853.414 82.568 852.646 80.864 852.214 78.992C851.782 77.12 851.542 75.224 851.494 73.304C851.494 72.632 851.446 72.008 851.35 71.432C851.254 70.856 850.99 70.424 850.558 70.136C850.318 69.992 850.126 69.92 849.982 69.92C849.646 69.92 849.406 70.112 849.262 70.496C849.118 70.832 849.046 71.192 849.046 71.576C849.046 72.536 849.094 73.472 849.19 74.384C849.334 75.248 849.406 76.136 849.406 77.048C849.406 77.24 849.382 77.408 849.334 77.552C849.334 77.696 849.334 77.864 849.334 78.056C849.238 80.36 848.614 82.424 847.462 84.248C846.358 86.072 844.894 87.392 843.07 88.208C841.678 88.784 840.358 89.072 839.11 89.072C837.19 89.072 835.438 88.568 833.854 87.56C832.318 86.504 831.142 85.304 830.326 83.96C829.366 82.376 828.718 80.648 828.382 78.776C828.094 76.904 827.926 75.032 827.878 73.16V71.576C827.878 69.368 827.926 67.184 828.022 65.024C828.118 62.864 828.214 60.68 828.31 58.472C828.358 56.84 828.406 55.208 828.454 53.576C828.55 51.944 828.838 50.36 829.318 48.824C829.846 47.096 830.638 45.488 831.694 44C832.798 42.512 834.118 41.288 835.654 40.328C837.334 39.32 839.302 38.6 841.558 38.168C843.862 37.736 846.286 37.52 848.83 37.52C850.366 37.52 851.926 37.592 853.51 37.736ZM923.643 73.88C923.643 74.216 923.667 74.672 923.715 75.248C923.763 75.824 923.787 76.448 923.787 77.12C923.787 78.272 923.691 79.544 923.499 80.936C923.307 82.328 922.899 83.624 922.275 84.824C921.651 86.024 920.739 87.032 919.539 87.848C918.339 88.616 916.731 89 914.715 89C912.939 89 911.499 88.76 910.395 88.28C909.291 87.8 908.379 87.104 907.659 86.192C906.939 85.232 906.363 84.08 905.931 82.736C905.499 81.392 905.067 79.832 904.635 78.056C903.339 78.2 901.995 78.272 900.603 78.272C899.787 78.272 898.971 78.248 898.155 78.2C897.387 78.152 896.595 78.08 895.779 77.984C895.491 79.904 895.155 81.56 894.771 82.952C894.435 84.344 893.931 85.496 893.259 86.408C892.587 87.272 891.651 87.92 890.451 88.352C889.251 88.784 887.643 89 885.627 89C883.467 89 881.763 88.544 880.515 87.632C879.267 86.72 878.331 85.592 877.707 84.248C877.083 82.904 876.675 81.488 876.483 80C876.339 78.512 876.267 77.216 876.267 76.112V74.024C876.267 66.728 876.867 60.704 878.067 55.952C879.267 51.152 880.851 47.36 882.819 44.576C884.835 41.792 887.139 39.848 889.731 38.744C892.323 37.64 895.011 37.088 897.795 37.088C901.347 37.088 904.683 37.568 907.803 38.528C910.971 39.488 913.707 41.312 916.011 44C918.363 46.688 920.211 50.432 921.555 55.232C922.947 59.984 923.643 66.2 923.643 73.88ZM903.339 61.424C903.003 59.264 902.523 57.632 901.899 56.528C901.275 55.424 900.603 54.872 899.883 54.872C899.211 54.872 898.563 55.4 897.939 56.456C897.315 57.512 896.859 59.12 896.571 61.28C896.571 61.808 896.859 62.168 897.435 62.36C898.011 62.552 898.683 62.648 899.451 62.648C900.411 62.648 901.299 62.528 902.115 62.288C902.931 62.048 903.339 61.76 903.339 61.424ZM961.91 55.88C962.102 55.88 962.294 55.616 962.486 55.088C962.726 54.56 962.918 53.888 963.062 53.072C963.254 52.208 963.422 51.296 963.566 50.336C963.758 49.328 963.902 48.392 963.998 47.528C964.142 46.664 964.238 45.92 964.286 45.296C964.382 44.624 964.454 44.192 964.502 44C964.742 42.416 965.27 41.048 966.086 39.896C966.902 38.744 967.982 37.904 969.326 37.376C969.902 37.136 970.478 36.968 971.054 36.872C971.63 36.776 972.206 36.728 972.782 36.728C974.414 36.728 975.878 37.112 977.174 37.88C978.518 38.648 979.574 39.632 980.342 40.832C981.062 41.936 981.518 43.184 981.71 44.576C981.95 45.968 982.118 47.504 982.214 49.184C982.262 50.288 982.31 51.464 982.358 52.712C982.406 53.912 982.43 55.136 982.43 56.384C982.43 59.264 982.31 62.24 982.07 65.312C981.878 68.384 981.47 71.288 980.846 74.024C980.27 76.712 979.478 79.136 978.47 81.296C977.462 83.456 976.166 85.088 974.582 86.192C973.478 86.96 972.302 87.536 971.054 87.92C969.854 88.256 968.654 88.424 967.454 88.424C965.534 88.424 963.734 87.992 962.054 87.128C960.422 86.264 959.126 85.064 958.166 83.528C957.302 82.136 956.63 80.912 956.15 79.856C955.67 78.8 955.31 77.936 955.07 77.264C954.83 76.544 954.662 76.016 954.566 75.68C954.518 75.296 954.47 75.104 954.422 75.104C954.374 75.104 954.302 75.272 954.206 75.608C954.158 75.944 953.99 76.448 953.702 77.12C953.462 77.744 953.102 78.56 952.622 79.568C952.142 80.576 951.47 81.752 950.606 83.096C950.078 83.912 949.43 84.656 948.662 85.328C947.942 86 947.15 86.552 946.286 86.984C944.558 87.848 942.782 88.28 940.958 88.28C938.558 88.28 936.326 87.584 934.262 86.192C932.678 85.088 931.382 83.456 930.374 81.296C929.366 79.136 928.55 76.712 927.926 74.024C927.35 71.288 926.942 68.384 926.702 65.312C926.51 62.24 926.414 59.264 926.414 56.384C926.414 55.136 926.414 53.912 926.414 52.712C926.462 51.464 926.51 50.288 926.558 49.184C926.654 47.504 926.798 45.968 926.99 44.576C927.23 43.184 927.71 41.936 928.43 40.832C929.198 39.632 930.254 38.648 931.598 37.88C932.942 37.112 934.43 36.728 936.062 36.728C936.638 36.728 937.214 36.776 937.79 36.872C938.366 36.968 938.942 37.136 939.518 37.376C940.862 37.904 941.942 38.744 942.758 39.896C943.574 41.048 944.102 42.416 944.342 44C944.39 44.24 944.486 44.984 944.63 46.232C944.774 47.48 944.966 48.8 945.206 50.192C945.446 51.536 945.71 52.76 945.998 53.864C946.286 54.968 946.574 55.52 946.862 55.52C947.102 55.52 947.27 54.992 947.366 53.936C947.51 52.832 947.774 51.632 948.158 50.336C948.542 48.992 949.166 47.792 950.03 46.736C950.942 45.632 952.262 45.08 953.99 45.08C955.526 45.08 956.75 45.344 957.662 45.872C958.622 46.4 959.366 47.072 959.894 47.888C960.47 48.704 960.854 49.568 961.046 50.48C961.286 51.392 961.43 52.256 961.478 53.072C961.574 53.888 961.622 54.56 961.622 55.088C961.67 55.616 961.766 55.88 961.91 55.88ZM1008.88 52.136C1009.02 55.592 1009.09 59.072 1009.09 62.576C1009.09 64.88 1009.04 67.184 1008.95 69.488C1008.9 71.744 1008.78 74.024 1008.59 76.328C1008.49 77.528 1008.35 78.704 1008.16 79.856C1008.01 81.008 1007.68 82.136 1007.15 83.24C1006.43 84.776 1005.28 86.144 1003.69 87.344C1002.16 88.496 1000.31 89.072 998.148 89.072C997.668 89.072 997.308 89.048 997.068 89C995.1 88.76 993.42 88.088 992.028 86.984C990.636 85.832 989.532 84.536 988.716 83.096C987.756 81.272 987.132 79.16 986.844 76.76C986.556 74.36 986.412 71.864 986.412 69.272C986.412 67.88 986.412 66.512 986.412 65.168C986.46 63.776 986.508 62.408 986.556 61.064C986.604 59 986.652 56.912 986.7 54.8C986.796 52.64 986.988 50.6 987.276 48.68C987.564 46.712 988.02 44.912 988.644 43.28C989.268 41.648 990.204 40.28 991.452 39.176C992.364 38.36 993.396 37.76 994.548 37.376C995.7 36.944 996.9 36.728 998.148 36.728C999.444 36.728 1000.69 36.968 1001.89 37.448C1003.09 37.88 1004.17 38.552 1005.13 39.464C1006.62 40.904 1007.58 42.704 1008.01 44.864C1008.49 47.024 1008.78 49.448 1008.88 52.136ZM1031.57 75.536C1031.57 76.784 1031.55 78.032 1031.5 79.28C1031.45 80.528 1031.31 81.704 1031.07 82.808C1030.68 84.728 1029.87 86.288 1028.62 87.488C1027.37 88.688 1025.59 89.288 1023.29 89.288C1020.55 89.288 1018.39 88.544 1016.81 87.056C1015.27 85.568 1014.29 83.648 1013.86 81.296C1013.52 79.424 1013.31 77.456 1013.21 75.392C1013.16 73.28 1013.14 71.144 1013.14 68.984V66.176V62.648C1013.14 59.864 1013.21 57.008 1013.35 54.08C1013.55 51.152 1014 48.488 1014.72 46.088C1015.44 43.688 1016.55 41.72 1018.03 40.184C1019.52 38.648 1021.61 37.88 1024.3 37.88C1025.93 37.88 1027.27 38.096 1028.33 38.528C1029.43 38.912 1030.49 39.536 1031.5 40.4C1032.7 41.456 1033.63 42.752 1034.31 44.288C1034.98 45.824 1035.55 47.408 1036.03 49.04C1036.56 50.672 1037.11 52.28 1037.69 53.864C1038.27 55.4 1039.11 56.696 1040.21 57.752C1040.31 57.848 1040.38 57.896 1040.43 57.896C1040.57 57.896 1040.67 57.8 1040.71 57.608C1040.81 57.368 1040.88 57.104 1040.93 56.816C1041.03 56.48 1041.07 56.144 1041.07 55.808C1041.12 55.472 1041.15 55.208 1041.15 55.016V54.296C1041.15 53.144 1041.15 52.016 1041.15 50.912C1041.19 49.76 1041.22 48.584 1041.22 47.384C1041.22 45.512 1041.41 43.88 1041.79 42.488C1042.18 41.096 1042.92 39.896 1044.03 38.888C1044.75 38.216 1045.56 37.736 1046.47 37.448C1047.39 37.112 1048.32 36.944 1049.28 36.944C1050.67 36.944 1052.07 37.256 1053.46 37.88C1054.9 38.504 1056.03 39.32 1056.84 40.328C1057.95 41.672 1058.67 43.136 1059 44.72C1059.39 46.304 1059.58 48.152 1059.58 50.264V50.984C1059.58 52.808 1059.58 54.656 1059.58 56.528C1059.63 58.4 1059.6 60.248 1059.51 62.072C1059.41 64.376 1059.29 66.608 1059.15 68.768C1059.05 70.928 1058.86 73.112 1058.57 75.32C1058.33 77.096 1057.99 78.848 1057.56 80.576C1057.13 82.256 1056.51 83.768 1055.69 85.112C1054.87 86.456 1053.79 87.536 1052.45 88.352C1051.15 89.168 1049.47 89.576 1047.41 89.576C1045.73 89.576 1044.29 89.408 1043.09 89.072C1041.94 88.736 1040.93 88.208 1040.07 87.488C1039.2 86.72 1038.46 85.76 1037.83 84.608C1037.21 83.408 1036.63 81.968 1036.11 80.288C1035.91 79.76 1035.7 79.088 1035.46 78.272C1035.22 77.456 1034.95 76.64 1034.67 75.824C1034.38 74.96 1034.07 74.168 1033.73 73.448C1033.39 72.68 1033.03 72.104 1032.65 71.72C1032.46 71.528 1032.31 71.432 1032.22 71.432C1031.98 71.432 1031.79 71.6 1031.64 71.936C1031.55 72.272 1031.5 72.704 1031.5 73.232L1031.57 75.032V75.536ZM1106.34 55.376C1105.67 55.904 1104.92 56.312 1104.11 56.6C1103.29 56.84 1102.45 56.96 1101.59 56.96C1101.35 56.96 1101.13 56.96 1100.94 56.96C1100.79 56.96 1100.6 56.936 1100.36 56.888C1099.4 56.744 1098.47 56.48 1097.55 56.096C1096.69 55.712 1095.78 55.472 1094.82 55.376C1094.58 55.328 1094.22 55.304 1093.74 55.304C1092.73 55.304 1091.77 55.496 1090.86 55.88C1089.95 56.216 1089.11 56.672 1088.34 57.248C1087.62 57.824 1086.97 58.496 1086.39 59.264C1085.87 60.032 1085.48 60.8 1085.24 61.568C1084.91 62.528 1084.74 63.536 1084.74 64.592C1084.74 66.272 1085.1 67.808 1085.82 69.2C1086.59 70.592 1087.52 71.648 1088.63 72.368C1088.96 72.608 1089.47 72.824 1090.14 73.016C1090.81 73.208 1091.48 73.304 1092.15 73.304C1092.68 73.304 1093.14 73.232 1093.52 73.088C1093.91 72.896 1094.15 72.56 1094.24 72.08C1094.24 71.984 1094.24 71.912 1094.24 71.864C1094.29 71.816 1094.31 71.744 1094.31 71.648C1094.31 71.264 1094.22 70.976 1094.03 70.784C1093.83 70.544 1093.57 70.376 1093.23 70.28C1092.95 70.184 1092.61 70.112 1092.23 70.064C1091.89 69.968 1091.58 69.872 1091.29 69.776C1090.47 69.536 1089.8 69.032 1089.27 68.264C1088.79 67.496 1088.55 66.632 1088.55 65.672C1088.55 65 1088.7 64.304 1088.99 63.584C1089.47 62.432 1090.21 61.448 1091.22 60.632C1092.23 59.816 1093.35 59.216 1094.6 58.832C1095.9 58.496 1097.29 58.328 1098.78 58.328C1099.16 58.328 1099.57 58.352 1100 58.4C1100.43 58.4 1100.84 58.4 1101.23 58.4C1105.35 58.4 1108.47 59.456 1110.59 61.568C1112.84 63.728 1113.97 67.04 1113.97 71.504C1113.97 72.608 1113.87 73.688 1113.68 74.744C1113.54 75.8 1113.27 76.832 1112.89 77.84C1111.74 80.864 1109.84 83.36 1107.2 85.328C1104.61 87.296 1101.71 88.736 1098.49 89.648C1097 90.08 1095.51 90.392 1094.03 90.584C1092.59 90.776 1091.17 90.872 1089.78 90.872C1086.99 90.872 1084.35 90.488 1081.86 89.72C1079.36 89 1077.08 88.016 1075.02 86.768C1072.95 85.52 1071.13 84.056 1069.55 82.376C1067.96 80.648 1066.71 78.8 1065.8 76.832C1064.94 75.056 1064.31 73.232 1063.93 71.36C1063.55 69.44 1063.35 67.472 1063.35 65.456C1063.35 64.304 1063.4 63.152 1063.5 62C1063.64 60.848 1063.83 59.696 1064.07 58.544C1064.7 55.232 1065.73 52.256 1067.17 49.616C1068.61 46.928 1070.41 44.648 1072.57 42.776C1074.78 40.904 1077.37 39.464 1080.35 38.456C1083.32 37.448 1086.66 36.944 1090.35 36.944H1091.51C1093.19 36.992 1094.84 37.16 1096.47 37.448C1098.15 37.688 1099.71 38.072 1101.15 38.6C1102.64 39.08 1103.96 39.728 1105.11 40.544C1106.31 41.312 1107.27 42.272 1107.99 43.424C1108.91 44.912 1109.36 46.568 1109.36 48.392C1109.36 49.784 1109.1 51.104 1108.57 52.352C1108.04 53.6 1107.3 54.608 1106.34 55.376Z" fill="url(#paint0_linear_298_37447)"/>
</g>
<path d="M64.0303 154.4H88.0303V157.568H77.7103V188H74.3503V157.568H64.0303V154.4ZM94.5452 164V167.984C96.0332 165.056 98.5292 163.616 102.129 163.616V166.688C97.7612 166.688 94.5452 169.136 94.5452 174.656V188H91.3772V164H94.5452ZM128.058 168.704V164H131.226V188H128.058V183.296C125.85 186.8 122.634 188.576 118.362 188.576C114.954 188.576 112.026 187.376 109.578 184.928C107.178 182.48 105.978 179.504 105.978 176C105.978 172.496 107.178 169.52 109.578 167.072C112.026 164.624 114.954 163.424 118.362 163.424C122.634 163.424 125.85 165.2 128.058 168.704ZM111.882 182.768C113.706 184.592 115.962 185.504 118.602 185.504C121.242 185.504 123.498 184.592 125.322 182.768C127.146 180.896 128.058 178.64 128.058 176C128.058 173.36 127.146 171.104 125.322 169.28C123.498 167.408 121.242 166.496 118.602 166.496C115.962 166.496 113.706 167.408 111.882 169.28C110.058 171.104 109.146 173.36 109.146 176C109.146 178.64 110.058 180.896 111.882 182.768ZM151.517 188.576C147.917 188.576 144.893 187.376 142.493 184.976C140.093 182.528 138.893 179.552 138.893 176C138.893 172.448 140.093 169.472 142.493 167.072C144.893 164.624 147.917 163.424 151.517 163.424C156.269 163.424 160.301 165.872 162.029 169.712L159.437 171.2C158.141 168.32 155.117 166.496 151.517 166.496C148.877 166.496 146.621 167.408 144.797 169.28C142.973 171.104 142.061 173.36 142.061 176C142.061 178.64 142.973 180.896 144.797 182.768C146.621 184.592 148.877 185.504 151.517 185.504C155.117 185.504 158.045 183.68 159.629 180.8L162.269 182.336C160.301 186.176 156.173 188.576 151.517 188.576ZM180.306 163.424C183.858 163.424 186.738 164.672 188.898 167.216C191.106 169.712 192.21 172.688 192.21 176.096C192.21 176.432 192.162 176.96 192.114 177.584H171.042C171.666 182.432 175.458 185.504 180.594 185.504C184.242 185.504 186.978 183.872 188.322 181.424L191.106 183.056C188.994 186.464 185.202 188.576 180.546 188.576C176.754 188.576 173.682 187.376 171.33 185.024C168.978 182.672 167.778 179.648 167.778 176C167.778 172.4 168.93 169.424 171.282 167.024C173.634 164.624 176.61 163.424 180.306 163.424ZM180.306 166.496C175.314 166.496 171.666 169.76 171.042 174.512H188.946C188.61 171.968 187.65 170 186.018 168.608C184.386 167.216 182.466 166.496 180.306 166.496ZM216.545 170.288C216.545 172.448 218.753 173.648 221.489 174.368C225.521 175.376 230.561 176.48 230.561 181.664C230.561 183.728 229.745 185.36 228.113 186.656C226.529 187.952 224.417 188.576 221.873 188.576C217.265 188.576 213.905 186.32 212.609 183.056L215.297 181.472C216.209 183.968 218.657 185.504 221.873 185.504C224.993 185.504 227.393 184.304 227.393 181.664C227.393 179.504 225.185 178.304 222.449 177.584C218.417 176.576 213.377 175.472 213.377 170.288C213.377 168.32 214.145 166.688 215.681 165.392C217.265 164.096 219.233 163.424 221.585 163.424C225.473 163.424 228.593 165.296 229.985 168.32L227.345 169.856C226.433 167.6 224.513 166.496 221.585 166.496C218.849 166.496 216.545 167.84 216.545 170.288ZM244.774 175.52L257.638 188H253.414L241.414 176.432V188H238.246V154.4H241.414V174.608L252.838 164H257.158L244.774 175.52ZM275.453 163.424C279.005 163.424 281.885 164.672 284.045 167.216C286.253 169.712 287.357 172.688 287.357 176.096C287.357 176.432 287.309 176.96 287.261 177.584H266.189C266.813 182.432 270.605 185.504 275.741 185.504C279.389 185.504 282.125 183.872 283.469 181.424L286.253 183.056C284.141 186.464 280.349 188.576 275.693 188.576C271.901 188.576 268.829 187.376 266.477 185.024C264.125 182.672 262.925 179.648 262.925 176C262.925 172.4 264.077 169.424 266.429 167.024C268.781 164.624 271.757 163.424 275.453 163.424ZM275.453 166.496C270.461 166.496 266.813 169.76 266.189 174.512H284.093C283.757 171.968 282.797 170 281.165 168.608C279.533 167.216 277.613 166.496 275.453 166.496ZM306.813 164V167.072H299.901V181.616C299.901 185.744 302.205 185.408 306.813 185.216V188C300.093 189.008 296.733 187.184 296.733 181.616V167.072H291.693V164H296.733V158.24L299.901 157.28V164H306.813ZM325.677 188.576C322.077 188.576 319.053 187.376 316.653 184.976C314.253 182.528 313.053 179.552 313.053 176C313.053 172.448 314.253 169.472 316.653 167.072C319.053 164.624 322.077 163.424 325.677 163.424C330.429 163.424 334.461 165.872 336.189 169.712L333.597 171.2C332.301 168.32 329.277 166.496 325.677 166.496C323.037 166.496 320.781 167.408 318.957 169.28C317.133 171.104 316.221 173.36 316.221 176C316.221 178.64 317.133 180.896 318.957 182.768C320.781 184.592 323.037 185.504 325.677 185.504C329.277 185.504 332.205 183.68 333.789 180.8L336.429 182.336C334.461 186.176 330.333 188.576 325.677 188.576ZM354.609 163.424C360.417 163.424 364.017 167.264 364.017 173.264V188H360.849V173.264C360.849 168.992 358.497 166.496 354.321 166.496C349.713 166.496 346.545 169.328 346.545 175.424V188H343.377V154.4H346.545V167.744C348.321 164.864 351.009 163.424 354.609 163.424ZM383.631 163.424C387.183 163.424 390.063 164.672 392.223 167.216C394.431 169.712 395.535 172.688 395.535 176.096C395.535 176.432 395.487 176.96 395.439 177.584H374.367C374.991 182.432 378.783 185.504 383.919 185.504C387.567 185.504 390.303 183.872 391.647 181.424L394.431 183.056C392.319 186.464 388.527 188.576 383.871 188.576C380.079 188.576 377.007 187.376 374.655 185.024C372.303 182.672 371.103 179.648 371.103 176C371.103 172.4 372.255 169.424 374.607 167.024C376.959 164.624 379.935 163.424 383.631 163.424ZM383.631 166.496C378.639 166.496 374.991 169.76 374.367 174.512H392.271C391.935 171.968 390.975 170 389.343 168.608C387.711 167.216 385.791 166.496 383.631 166.496ZM404.533 170.288C404.533 172.448 406.741 173.648 409.477 174.368C413.509 175.376 418.549 176.48 418.549 181.664C418.549 183.728 417.733 185.36 416.101 186.656C414.517 187.952 412.405 188.576 409.861 188.576C405.253 188.576 401.893 186.32 400.597 183.056L403.285 181.472C404.197 183.968 406.645 185.504 409.861 185.504C412.981 185.504 415.381 184.304 415.381 181.664C415.381 179.504 413.173 178.304 410.437 177.584C406.405 176.576 401.365 175.472 401.365 170.288C401.365 168.32 402.133 166.688 403.669 165.392C405.253 164.096 407.221 163.424 409.573 163.424C413.461 163.424 416.581 165.296 417.973 168.32L415.333 169.856C414.421 167.6 412.501 166.496 409.573 166.496C406.837 166.496 404.533 167.84 404.533 170.288ZM443.849 159.824C442.937 160.736 441.497 160.736 440.585 159.824C439.673 158.912 439.673 157.472 440.585 156.56C441.497 155.648 442.937 155.648 443.849 156.56C444.761 157.472 444.761 158.912 443.849 159.824ZM443.801 188H440.633V164H443.801V188ZM455.42 170.288C455.42 172.448 457.628 173.648 460.364 174.368C464.396 175.376 469.436 176.48 469.436 181.664C469.436 183.728 468.62 185.36 466.988 186.656C465.404 187.952 463.292 188.576 460.748 188.576C456.14 188.576 452.78 186.32 451.484 183.056L454.172 181.472C455.084 183.968 457.532 185.504 460.748 185.504C463.868 185.504 466.268 184.304 466.268 181.664C466.268 179.504 464.06 178.304 461.324 177.584C457.292 176.576 452.252 175.472 452.252 170.288C452.252 168.32 453.02 166.688 454.556 165.392C456.14 164.096 458.108 163.424 460.46 163.424C464.348 163.424 467.468 165.296 468.86 168.32L466.22 169.856C465.308 167.6 463.388 166.496 460.46 166.496C457.724 166.496 455.42 167.84 455.42 170.288ZM512.161 168.704V164H515.329V188H512.161V183.296C509.953 186.8 506.737 188.576 502.465 188.576C499.057 188.576 496.129 187.376 493.681 184.928C491.281 182.48 490.081 179.504 490.081 176C490.081 172.496 491.281 169.52 493.681 167.072C496.129 164.624 499.057 163.424 502.465 163.424C506.737 163.424 509.953 165.2 512.161 168.704ZM495.985 182.768C497.809 184.592 500.065 185.504 502.705 185.504C505.345 185.504 507.601 184.592 509.425 182.768C511.249 180.896 512.161 178.64 512.161 176C512.161 173.36 511.249 171.104 509.425 169.28C507.601 167.408 505.345 166.496 502.705 166.496C500.065 166.496 497.809 167.408 495.985 169.28C494.161 171.104 493.249 173.36 493.249 176C493.249 178.64 494.161 180.896 495.985 182.768ZM559.477 168.704V154.4H562.645V188H559.477V183.296C557.269 186.8 554.053 188.576 549.781 188.576C546.373 188.576 543.445 187.376 540.997 184.928C538.597 182.48 537.397 179.504 537.397 176C537.397 172.496 538.597 169.52 540.997 167.072C543.445 164.624 546.373 163.424 549.781 163.424C554.053 163.424 557.269 165.2 559.477 168.704ZM543.301 182.768C545.125 184.592 547.381 185.504 550.021 185.504C552.661 185.504 554.917 184.592 556.741 182.768C558.565 180.896 559.477 178.64 559.477 176C559.477 173.36 558.565 171.104 556.741 169.28C554.917 167.408 552.661 166.496 550.021 166.496C547.381 166.496 545.125 167.408 543.301 169.28C541.477 171.104 540.565 173.36 540.565 176C540.565 178.64 541.477 180.896 543.301 182.768ZM574.92 164V167.984C576.408 165.056 578.904 163.616 582.504 163.616V166.688C578.136 166.688 574.92 169.136 574.92 174.656V188H571.752V164H574.92ZM608.433 168.704V164H611.601V188H608.433V183.296C606.225 186.8 603.009 188.576 598.737 188.576C595.329 188.576 592.401 187.376 589.953 184.928C587.553 182.48 586.353 179.504 586.353 176C586.353 172.496 587.553 169.52 589.953 167.072C592.401 164.624 595.329 163.424 598.737 163.424C603.009 163.424 606.225 165.2 608.433 168.704ZM592.257 182.768C594.081 184.592 596.337 185.504 598.977 185.504C601.617 185.504 603.873 184.592 605.697 182.768C607.521 180.896 608.433 178.64 608.433 176C608.433 173.36 607.521 171.104 605.697 169.28C603.873 167.408 601.617 166.496 598.977 166.496C596.337 166.496 594.081 167.408 592.257 169.28C590.433 171.104 589.521 173.36 589.521 176C589.521 178.64 590.433 180.896 592.257 182.768ZM643.7 183.92L649.604 164H652.868L645.476 188H642.02L635.828 168.656L629.636 188H626.18L618.788 164H622.052L627.956 183.92L634.244 164H637.412L643.7 183.92ZM663.262 159.824C662.35 160.736 660.91 160.736 659.998 159.824C659.086 158.912 659.086 157.472 659.998 156.56C660.91 155.648 662.35 155.648 663.262 156.56C664.174 157.472 664.174 158.912 663.262 159.824ZM663.214 188H660.046V164H663.214V188ZM683.569 163.424C689.377 163.424 692.977 167.264 692.977 173.264V188H689.809V173.264C689.809 168.992 687.457 166.496 683.281 166.496C678.673 166.496 675.505 169.328 675.505 175.424V188H672.337V164H675.505V167.744C677.281 164.864 679.969 163.424 683.569 163.424ZM722.142 168.704V164H725.31V187.04C725.31 190.496 724.11 193.232 721.758 195.2C719.406 197.168 716.574 198.176 713.262 198.176C707.646 198.176 703.854 196.208 701.886 192.32L704.67 190.736C706.11 193.664 708.99 195.104 713.262 195.104C718.782 195.104 722.142 191.984 722.142 187.04V183.296C719.934 186.8 716.718 188.576 712.446 188.576C709.038 188.576 706.11 187.376 703.662 184.928C701.262 182.48 700.062 179.504 700.062 176C700.062 172.496 701.262 169.52 703.662 167.072C706.11 164.624 709.038 163.424 712.446 163.424C716.718 163.424 719.934 165.2 722.142 168.704ZM705.966 182.768C707.79 184.592 710.046 185.504 712.686 185.504C715.326 185.504 717.582 184.592 719.406 182.768C721.23 180.896 722.142 178.64 722.142 176C722.142 173.36 721.23 171.104 719.406 169.28C717.582 167.408 715.326 166.496 712.686 166.496C710.046 166.496 707.79 167.408 705.966 169.28C704.142 171.104 703.23 173.36 703.23 176C703.23 178.64 704.142 180.896 705.966 182.768ZM769.458 168.704V164H772.626V188H769.458V183.296C767.25 186.8 764.034 188.576 759.762 188.576C756.354 188.576 753.426 187.376 750.978 184.928C748.578 182.48 747.378 179.504 747.378 176C747.378 172.496 748.578 169.52 750.978 167.072C753.426 164.624 756.354 163.424 759.762 163.424C764.034 163.424 767.25 165.2 769.458 168.704ZM753.282 182.768C755.106 184.592 757.362 185.504 760.002 185.504C762.642 185.504 764.898 184.592 766.722 182.768C768.546 180.896 769.458 178.64 769.458 176C769.458 173.36 768.546 171.104 766.722 169.28C764.898 167.408 762.642 166.496 760.002 166.496C757.362 166.496 755.106 167.408 753.282 169.28C751.458 171.104 750.546 173.36 750.546 176C750.546 178.64 751.458 180.896 753.282 182.768ZM794.597 163.424C798.005 163.424 800.933 164.624 803.333 167.072C805.781 169.52 806.981 172.496 806.981 176C806.981 179.504 805.781 182.48 803.333 184.928C800.933 187.376 798.005 188.576 794.597 188.576C790.325 188.576 787.109 186.8 784.901 183.296V197.6H781.733V164H784.901V168.704C787.109 165.2 790.325 163.424 794.597 163.424ZM787.637 182.768C789.461 184.592 791.717 185.504 794.357 185.504C796.997 185.504 799.253 184.592 801.077 182.768C802.901 180.896 803.813 178.64 803.813 176C803.813 173.36 802.901 171.104 801.077 169.28C799.253 167.408 796.997 166.496 794.357 166.496C791.717 166.496 789.461 167.408 787.637 169.28C785.813 171.104 784.901 173.36 784.901 176C784.901 178.64 785.813 180.896 787.637 182.768ZM827.513 163.424C830.921 163.424 833.849 164.624 836.249 167.072C838.697 169.52 839.897 172.496 839.897 176C839.897 179.504 838.697 182.48 836.249 184.928C833.849 187.376 830.921 188.576 827.513 188.576C823.241 188.576 820.025 186.8 817.817 183.296V197.6H814.649V164H817.817V168.704C820.025 165.2 823.241 163.424 827.513 163.424ZM820.553 182.768C822.377 184.592 824.633 185.504 827.273 185.504C829.913 185.504 832.169 184.592 833.993 182.768C835.817 180.896 836.729 178.64 836.729 176C836.729 173.36 835.817 171.104 833.993 169.28C832.169 167.408 829.913 166.496 827.273 166.496C824.633 166.496 822.377 167.408 820.553 169.28C818.729 171.104 817.817 173.36 817.817 176C817.817 178.64 818.729 180.896 820.553 182.768ZM882.605 168.704V154.4H885.773V188H882.605V183.296C880.397 186.8 877.181 188.576 872.909 188.576C869.501 188.576 866.573 187.376 864.125 184.928C861.725 182.48 860.525 179.504 860.525 176C860.525 172.496 861.725 169.52 864.125 167.072C866.573 164.624 869.501 163.424 872.909 163.424C877.181 163.424 880.397 165.2 882.605 168.704ZM866.429 182.768C868.253 184.592 870.509 185.504 873.149 185.504C875.789 185.504 878.045 184.592 879.869 182.768C881.693 180.896 882.605 178.64 882.605 176C882.605 173.36 881.693 171.104 879.869 169.28C878.045 167.408 875.789 166.496 873.149 166.496C870.509 166.496 868.253 167.408 866.429 169.28C864.605 171.104 863.693 173.36 863.693 176C863.693 178.64 864.605 180.896 866.429 182.768ZM905.968 163.424C909.52 163.424 912.4 164.672 914.56 167.216C916.768 169.712 917.872 172.688 917.872 176.096C917.872 176.432 917.824 176.96 917.776 177.584H896.704C897.328 182.432 901.12 185.504 906.256 185.504C909.904 185.504 912.64 183.872 913.984 181.424L916.768 183.056C914.656 186.464 910.864 188.576 906.208 188.576C902.416 188.576 899.344 187.376 896.992 185.024C894.64 182.672 893.44 179.648 893.44 176C893.44 172.4 894.592 169.424 896.944 167.024C899.296 164.624 902.272 163.424 905.968 163.424ZM905.968 166.496C900.976 166.496 897.328 169.76 896.704 174.512H914.608C914.272 171.968 913.312 170 911.68 168.608C910.048 167.216 908.128 166.496 905.968 166.496ZM926.87 170.288C926.87 172.448 929.078 173.648 931.814 174.368C935.846 175.376 940.886 176.48 940.886 181.664C940.886 183.728 940.07 185.36 938.438 186.656C936.854 187.952 934.742 188.576 932.198 188.576C927.59 188.576 924.23 186.32 922.934 183.056L925.622 181.472C926.534 183.968 928.982 185.504 932.198 185.504C935.318 185.504 937.718 184.304 937.718 181.664C937.718 179.504 935.51 178.304 932.774 177.584C928.742 176.576 923.702 175.472 923.702 170.288C923.702 168.32 924.47 166.688 926.006 165.392C927.59 164.096 929.558 163.424 931.91 163.424C935.798 163.424 938.918 165.296 940.31 168.32L937.67 169.856C936.758 167.6 934.838 166.496 931.91 166.496C929.174 166.496 926.87 167.84 926.87 170.288ZM951.787 159.824C950.875 160.736 949.435 160.736 948.523 159.824C947.611 158.912 947.611 157.472 948.523 156.56C949.435 155.648 950.875 155.648 951.787 156.56C952.699 157.472 952.699 158.912 951.787 159.824ZM951.739 188H948.571V164H951.739V188ZM981.502 168.704V164H984.67V187.04C984.67 190.496 983.47 193.232 981.118 195.2C978.766 197.168 975.934 198.176 972.622 198.176C967.006 198.176 963.214 196.208 961.246 192.32L964.03 190.736C965.47 193.664 968.35 195.104 972.622 195.104C978.142 195.104 981.502 191.984 981.502 187.04V183.296C979.294 186.8 976.078 188.576 971.806 188.576C968.398 188.576 965.47 187.376 963.022 184.928C960.622 182.48 959.422 179.504 959.422 176C959.422 172.496 960.622 169.52 963.022 167.072C965.47 164.624 968.398 163.424 971.806 163.424C976.078 163.424 979.294 165.2 981.502 168.704ZM965.326 182.768C967.15 184.592 969.406 185.504 972.046 185.504C974.686 185.504 976.942 184.592 978.766 182.768C980.59 180.896 981.502 178.64 981.502 176C981.502 173.36 980.59 171.104 978.766 169.28C976.942 167.408 974.686 166.496 972.046 166.496C969.406 166.496 967.15 167.408 965.326 169.28C963.502 171.104 962.59 173.36 962.59 176C962.59 178.64 963.502 180.896 965.326 182.768ZM1005.01 163.424C1010.82 163.424 1014.42 167.264 1014.42 173.264V188H1011.25V173.264C1011.25 168.992 1008.9 166.496 1004.72 166.496C1000.11 166.496 996.945 169.328 996.945 175.424V188H993.777V164H996.945V167.744C998.721 164.864 1001.41 163.424 1005.01 163.424ZM1034.03 163.424C1037.58 163.424 1040.46 164.672 1042.62 167.216C1044.83 169.712 1045.93 172.688 1045.93 176.096C1045.93 176.432 1045.89 176.96 1045.84 177.584H1024.77C1025.39 182.432 1029.18 185.504 1034.32 185.504C1037.97 185.504 1040.7 183.872 1042.05 181.424L1044.83 183.056C1042.72 186.464 1038.93 188.576 1034.27 188.576C1030.48 188.576 1027.41 187.376 1025.05 185.024C1022.7 182.672 1021.5 179.648 1021.5 176C1021.5 172.4 1022.65 169.424 1025.01 167.024C1027.36 164.624 1030.33 163.424 1034.03 163.424ZM1034.03 166.496C1029.04 166.496 1025.39 169.76 1024.77 174.512H1042.67C1042.33 171.968 1041.37 170 1039.74 168.608C1038.11 167.216 1036.19 166.496 1034.03 166.496ZM1074.01 168.704V154.4H1077.18V188H1074.01V183.296C1071.81 186.8 1068.59 188.576 1064.32 188.576C1060.91 188.576 1057.98 187.376 1055.53 184.928C1053.13 182.48 1051.93 179.504 1051.93 176C1051.93 172.496 1053.13 169.52 1055.53 167.072C1057.98 164.624 1060.91 163.424 1064.32 163.424C1068.59 163.424 1071.81 165.2 1074.01 168.704ZM1057.84 182.768C1059.66 184.592 1061.92 185.504 1064.56 185.504C1067.2 185.504 1069.45 184.592 1071.28 182.768C1073.1 180.896 1074.01 178.64 1074.01 176C1074.01 173.36 1073.1 171.104 1071.28 169.28C1069.45 167.408 1067.2 166.496 1064.56 166.496C1061.92 166.496 1059.66 167.408 1057.84 169.28C1056.01 171.104 1055.1 173.36 1055.1 176C1055.1 178.64 1056.01 180.896 1057.84 182.768ZM122.483 203.824V206.896C117.827 206.512 115.571 208.432 115.571 213.04V214H122.483V217.072H115.571V238H112.403V217.072H108.323V214H112.403V213.04C112.403 206.752 116.003 203.392 122.483 203.824ZM148.37 234.976C145.922 237.376 142.946 238.576 139.442 238.576C135.938 238.576 132.914 237.376 130.466 234.976C128.018 232.528 126.818 229.552 126.818 226C126.818 222.448 128.018 219.472 130.466 217.072C132.914 214.624 135.938 213.424 139.442 213.424C142.946 213.424 145.922 214.624 148.37 217.072C150.818 219.472 152.066 222.448 152.066 226C152.066 229.552 150.818 232.528 148.37 234.976ZM132.722 232.768C134.546 234.592 136.802 235.504 139.442 235.504C142.082 235.504 144.338 234.592 146.162 232.768C147.986 230.896 148.898 228.64 148.898 226C148.898 223.36 147.986 221.104 146.162 219.28C144.338 217.408 142.082 216.496 139.442 216.496C136.802 216.496 134.546 217.408 132.722 219.28C130.898 221.104 129.986 223.36 129.986 226C129.986 228.64 130.898 230.896 132.722 232.768ZM162.936 214V217.984C164.424 215.056 166.92 213.616 170.52 213.616V216.688C166.152 216.688 162.936 219.136 162.936 224.656V238H159.768V214H162.936ZM212.302 218.704V214H215.47V238H212.302V233.296C210.094 236.8 206.878 238.576 202.606 238.576C199.198 238.576 196.27 237.376 193.822 234.928C191.422 232.48 190.222 229.504 190.222 226C190.222 222.496 191.422 219.52 193.822 217.072C196.27 214.624 199.198 213.424 202.606 213.424C206.878 213.424 210.094 215.2 212.302 218.704ZM196.126 232.768C197.95 234.592 200.206 235.504 202.846 235.504C205.486 235.504 207.742 234.592 209.566 232.768C211.39 230.896 212.302 228.64 212.302 226C212.302 223.36 211.39 221.104 209.566 219.28C207.742 217.408 205.486 216.496 202.846 216.496C200.206 216.496 197.95 217.408 196.126 219.28C194.302 221.104 193.39 223.36 193.39 226C193.39 228.64 194.302 230.896 196.126 232.768ZM235.809 213.424C241.617 213.424 245.217 217.264 245.217 223.264V238H242.049V223.264C242.049 218.992 239.697 216.496 235.521 216.496C230.913 216.496 227.745 219.328 227.745 225.424V238H224.577V214H227.745V217.744C229.521 214.864 232.209 213.424 235.809 213.424ZM262.778 234.112L270.554 214H273.914L263.642 240.208C261.77 244.96 258.17 247.936 253.946 247.6V244.624C256.826 244.96 259.034 243.28 260.522 239.632L261.146 238.144L250.394 214H253.754L262.778 234.112ZM300.255 234.976C297.807 237.376 294.831 238.576 291.327 238.576C287.823 238.576 284.799 237.376 282.351 234.976C279.903 232.528 278.703 229.552 278.703 226C278.703 222.448 279.903 219.472 282.351 217.072C284.799 214.624 287.823 213.424 291.327 213.424C294.831 213.424 297.807 214.624 300.255 217.072C302.703 219.472 303.951 222.448 303.951 226C303.951 229.552 302.703 232.528 300.255 234.976ZM284.607 232.768C286.431 234.592 288.687 235.504 291.327 235.504C293.967 235.504 296.223 234.592 298.047 232.768C299.871 230.896 300.783 228.64 300.783 226C300.783 223.36 299.871 221.104 298.047 219.28C296.223 217.408 293.967 216.496 291.327 216.496C288.687 216.496 286.431 217.408 284.607 219.28C282.783 221.104 281.871 223.36 281.871 226C281.871 228.64 282.783 230.896 284.607 232.768ZM322.884 213.424C328.692 213.424 332.292 217.264 332.292 223.264V238H329.124V223.264C329.124 218.992 326.772 216.496 322.596 216.496C317.988 216.496 314.82 219.328 314.82 225.424V238H311.652V214H314.82V217.744C316.596 214.864 319.284 213.424 322.884 213.424ZM351.906 213.424C355.458 213.424 358.338 214.672 360.498 217.216C362.706 219.712 363.81 222.688 363.81 226.096C363.81 226.432 363.762 226.96 363.714 227.584H342.642C343.266 232.432 347.058 235.504 352.194 235.504C355.842 235.504 358.578 233.872 359.922 231.424L362.706 233.056C360.594 236.464 356.802 238.576 352.146 238.576C348.354 238.576 345.282 237.376 342.93 235.024C340.578 232.672 339.378 229.648 339.378 226C339.378 222.4 340.53 219.424 342.882 217.024C345.234 214.624 348.21 213.424 351.906 213.424ZM351.906 216.496C346.914 216.496 343.266 219.76 342.642 224.512H360.546C360.21 221.968 359.25 220 357.618 218.608C355.986 217.216 354.066 216.496 351.906 216.496ZM408.641 233.92L414.545 214H417.809L410.417 238H406.961L400.769 218.656L394.577 238H391.121L383.729 214H386.993L392.897 233.92L399.185 214H402.353L408.641 233.92ZM436.219 213.424C442.027 213.424 445.627 217.264 445.627 223.264V238H442.459V223.264C442.459 218.992 440.107 216.496 435.931 216.496C431.323 216.496 428.155 219.328 428.155 225.424V238H424.987V204.4H428.155V217.744C429.931 214.864 432.619 213.424 436.219 213.424ZM474.264 234.976C471.816 237.376 468.84 238.576 465.336 238.576C461.832 238.576 458.808 237.376 456.36 234.976C453.912 232.528 452.712 229.552 452.712 226C452.712 222.448 453.912 219.472 456.36 217.072C458.808 214.624 461.832 213.424 465.336 213.424C468.84 213.424 471.816 214.624 474.264 217.072C476.712 219.472 477.96 222.448 477.96 226C477.96 229.552 476.712 232.528 474.264 234.976ZM458.616 232.768C460.44 234.592 462.696 235.504 465.336 235.504C467.976 235.504 470.232 234.592 472.056 232.768C473.88 230.896 474.792 228.64 474.792 226C474.792 223.36 473.88 221.104 472.056 219.28C470.232 217.408 467.976 216.496 465.336 216.496C462.696 216.496 460.44 217.408 458.616 219.28C456.792 221.104 455.88 223.36 455.88 226C455.88 228.64 456.792 230.896 458.616 232.768ZM523.054 233.92L528.958 214H532.222L524.83 238H521.374L515.182 218.656L508.99 238H505.534L498.142 214H501.406L507.31 233.92L513.598 214H516.766L523.054 233.92ZM559.102 218.704V214H562.27V238H559.102V233.296C556.894 236.8 553.678 238.576 549.406 238.576C545.998 238.576 543.07 237.376 540.622 234.928C538.222 232.48 537.022 229.504 537.022 226C537.022 222.496 538.222 219.52 540.622 217.072C543.07 214.624 545.998 213.424 549.406 213.424C553.678 213.424 556.894 215.2 559.102 218.704ZM542.926 232.768C544.75 234.592 547.006 235.504 549.646 235.504C552.286 235.504 554.542 234.592 556.366 232.768C558.19 230.896 559.102 228.64 559.102 226C559.102 223.36 558.19 221.104 556.366 219.28C554.542 217.408 552.286 216.496 549.646 216.496C547.006 216.496 544.75 217.408 542.926 219.28C541.102 221.104 540.19 223.36 540.19 226C540.19 228.64 541.102 230.896 542.926 232.768ZM582.609 213.424C588.417 213.424 592.017 217.264 592.017 223.264V238H588.849V223.264C588.849 218.992 586.497 216.496 582.321 216.496C577.713 216.496 574.545 219.328 574.545 225.424V238H571.377V214H574.545V217.744C576.321 214.864 579.009 213.424 582.609 213.424ZM613.263 214V217.072H606.351V231.616C606.351 235.744 608.655 235.408 613.263 235.216V238C606.543 239.008 603.183 237.184 603.183 231.616V217.072H598.143V214H603.183V208.24L606.351 207.28V214H613.263ZM621.986 220.288C621.986 222.448 624.194 223.648 626.93 224.368C630.962 225.376 636.002 226.48 636.002 231.664C636.002 233.728 635.186 235.36 633.554 236.656C631.97 237.952 629.858 238.576 627.314 238.576C622.706 238.576 619.346 236.32 618.05 233.056L620.738 231.472C621.65 233.968 624.098 235.504 627.314 235.504C630.434 235.504 632.834 234.304 632.834 231.664C632.834 229.504 630.626 228.304 627.89 227.584C623.858 226.576 618.818 225.472 618.818 220.288C618.818 218.32 619.586 216.688 621.122 215.392C622.706 214.096 624.674 213.424 627.026 213.424C630.914 213.424 634.034 215.296 635.426 218.32L632.786 219.856C631.874 217.6 629.954 216.496 627.026 216.496C624.29 216.496 621.986 217.84 621.986 220.288ZM670.807 214V217.072H663.895V231.616C663.895 235.744 666.199 235.408 670.807 235.216V238C664.087 239.008 660.727 237.184 660.727 231.616V217.072H655.687V214H660.727V208.24L663.895 207.28V214H670.807ZM698.599 234.976C696.151 237.376 693.175 238.576 689.671 238.576C686.167 238.576 683.143 237.376 680.695 234.976C678.247 232.528 677.047 229.552 677.047 226C677.047 222.448 678.247 219.472 680.695 217.072C683.143 214.624 686.167 213.424 689.671 213.424C693.175 213.424 696.151 214.624 698.599 217.072C701.047 219.472 702.295 222.448 702.295 226C702.295 229.552 701.047 232.528 698.599 234.976ZM682.951 232.768C684.775 234.592 687.031 235.504 689.671 235.504C692.311 235.504 694.567 234.592 696.391 232.768C698.215 230.896 699.127 228.64 699.127 226C699.127 223.36 698.215 221.104 696.391 219.28C694.567 217.408 692.311 216.496 689.671 216.496C687.031 216.496 684.775 217.408 682.951 219.28C681.127 221.104 680.215 223.36 680.215 226C680.215 228.64 681.127 230.896 682.951 232.768ZM727.612 209.824C726.7 210.736 725.26 210.736 724.348 209.824C723.436 208.912 723.436 207.472 724.348 206.56C725.26 205.648 726.7 205.648 727.612 206.56C728.524 207.472 728.524 208.912 727.612 209.824ZM727.564 238H724.396V214H727.564V238ZM762.271 213.424C767.647 213.424 771.247 217.12 771.247 223.024V238H768.079V223.024C768.079 218.848 765.727 216.496 762.223 216.496C758.239 216.496 755.551 219.088 755.551 224.704V238H752.383V223.024C752.383 218.8 750.223 216.496 746.767 216.496C742.927 216.496 739.855 219.136 739.855 224.704V238H736.687V214H739.855V217.504C741.583 214.768 744.031 213.424 747.199 213.424C750.655 213.424 753.103 214.864 754.495 217.792C756.223 214.864 758.815 213.424 762.271 213.424ZM792.638 213.424C796.046 213.424 798.974 214.624 801.374 217.072C803.822 219.52 805.022 222.496 805.022 226C805.022 229.504 803.822 232.48 801.374 234.928C798.974 237.376 796.046 238.576 792.638 238.576C788.366 238.576 785.15 236.8 782.942 233.296V247.6H779.774V214H782.942V218.704C785.15 215.2 788.366 213.424 792.638 213.424ZM785.678 232.768C787.502 234.592 789.758 235.504 792.398 235.504C795.038 235.504 797.294 234.592 799.118 232.768C800.942 230.896 801.854 228.64 801.854 226C801.854 223.36 800.942 221.104 799.118 219.28C797.294 217.408 795.038 216.496 792.398 216.496C789.758 216.496 787.502 217.408 785.678 219.28C783.854 221.104 782.942 223.36 782.942 226C782.942 228.64 783.854 230.896 785.678 232.768ZM815.858 214V217.984C817.346 215.056 819.842 213.616 823.442 213.616V216.688C819.074 216.688 815.858 219.136 815.858 224.656V238H812.69V214H815.858ZM850.295 234.976C847.847 237.376 844.871 238.576 841.367 238.576C837.863 238.576 834.839 237.376 832.391 234.976C829.943 232.528 828.743 229.552 828.743 226C828.743 222.448 829.943 219.472 832.391 217.072C834.839 214.624 837.863 213.424 841.367 213.424C844.871 213.424 847.847 214.624 850.295 217.072C852.743 219.472 853.991 222.448 853.991 226C853.991 229.552 852.743 232.528 850.295 234.976ZM834.647 232.768C836.471 234.592 838.727 235.504 841.367 235.504C844.007 235.504 846.263 234.592 848.087 232.768C849.911 230.896 850.823 228.64 850.823 226C850.823 223.36 849.911 221.104 848.087 219.28C846.263 217.408 844.007 216.496 841.367 216.496C838.727 216.496 836.471 217.408 834.647 219.28C832.823 221.104 831.911 223.36 831.911 226C831.911 228.64 832.823 230.896 834.647 232.768ZM869.635 234.688L878.035 214H881.395L871.555 238H867.715L857.875 214H861.235L869.635 234.688ZM898.712 213.424C902.264 213.424 905.144 214.672 907.304 217.216C909.512 219.712 910.616 222.688 910.616 226.096C910.616 226.432 910.568 226.96 910.52 227.584H889.448C890.072 232.432 893.864 235.504 899 235.504C902.648 235.504 905.384 233.872 906.728 231.424L909.512 233.056C907.4 236.464 903.608 238.576 898.952 238.576C895.16 238.576 892.088 237.376 889.736 235.024C887.384 232.672 886.184 229.648 886.184 226C886.184 222.4 887.336 219.424 889.688 217.024C892.04 214.624 895.016 213.424 898.712 213.424ZM898.712 216.496C893.72 216.496 890.072 219.76 889.448 224.512H907.352C907.016 221.968 906.056 220 904.424 218.608C902.792 217.216 900.872 216.496 898.712 216.496ZM945.175 214V217.072H938.263V231.616C938.263 235.744 940.567 235.408 945.175 235.216V238C938.455 239.008 935.095 237.184 935.095 231.616V217.072H930.055V214H935.095V208.24L938.263 207.28V214H945.175ZM964.087 213.424C969.895 213.424 973.495 217.264 973.495 223.264V238H970.327V223.264C970.327 218.992 967.975 216.496 963.799 216.496C959.191 216.496 956.023 219.328 956.023 225.424V238H952.855V204.4H956.023V217.744C957.799 214.864 960.487 213.424 964.087 213.424ZM993.109 213.424C996.661 213.424 999.541 214.672 1001.7 217.216C1003.91 219.712 1005.01 222.688 1005.01 226.096C1005.01 226.432 1004.96 226.96 1004.92 227.584H983.845C984.469 232.432 988.261 235.504 993.397 235.504C997.045 235.504 999.781 233.872 1001.12 231.424L1003.91 233.056C1001.8 236.464 998.005 238.576 993.349 238.576C989.557 238.576 986.485 237.376 984.133 235.024C981.781 232.672 980.581 229.648 980.581 226C980.581 222.4 981.733 219.424 984.085 217.024C986.437 214.624 989.413 213.424 993.109 213.424ZM993.109 216.496C988.117 216.496 984.469 219.76 983.845 224.512H1001.75C1001.41 221.968 1000.45 220 998.821 218.608C997.189 217.216 995.269 216.496 993.109 216.496ZM1015.67 209.824C1014.76 210.736 1013.32 210.736 1012.4 209.824C1011.49 208.912 1011.49 207.472 1012.4 206.56C1013.32 205.648 1014.76 205.648 1015.67 206.56C1016.58 207.472 1016.58 208.912 1015.67 209.824ZM1015.62 238H1012.45V214H1015.62V238ZM1027.91 214V217.984C1029.4 215.056 1031.89 213.616 1035.49 213.616V216.688C1031.13 216.688 1027.91 219.136 1027.91 224.656V238H1024.74V214H1027.91ZM517.867 270.288C517.867 272.448 520.075 273.648 522.811 274.368C526.843 275.376 531.883 276.48 531.883 281.664C531.883 283.728 531.067 285.36 529.435 286.656C527.851 287.952 525.739 288.576 523.195 288.576C518.587 288.576 515.227 286.32 513.931 283.056L516.619 281.472C517.531 283.968 519.979 285.504 523.195 285.504C526.315 285.504 528.715 284.304 528.715 281.664C528.715 279.504 526.507 278.304 523.771 277.584C519.739 276.576 514.699 275.472 514.699 270.288C514.699 268.32 515.467 266.688 517.003 265.392C518.587 264.096 520.555 263.424 522.907 263.424C526.795 263.424 529.915 265.296 531.307 268.32L528.667 269.856C527.755 267.6 525.835 266.496 522.907 266.496C520.171 266.496 517.867 267.84 517.867 270.288ZM546.096 275.52L558.96 288H554.736L542.736 276.432V288H539.568V254.4H542.736V274.608L554.16 264H558.48L546.096 275.52ZM568.903 259.824C567.991 260.736 566.551 260.736 565.639 259.824C564.727 258.912 564.727 257.472 565.639 256.56C566.551 255.648 567.991 255.648 568.903 256.56C569.815 257.472 569.815 258.912 568.903 259.824ZM568.855 288H565.687V264H568.855V288ZM581.145 288H577.977V252.96H581.145V288ZM593.436 288H590.268V252.96H593.436V288ZM605.054 270.288C605.054 272.448 607.262 273.648 609.998 274.368C614.03 275.376 619.07 276.48 619.07 281.664C619.07 283.728 618.254 285.36 616.622 286.656C615.038 287.952 612.926 288.576 610.382 288.576C605.774 288.576 602.414 286.32 601.118 283.056L603.806 281.472C604.718 283.968 607.166 285.504 610.382 285.504C613.502 285.504 615.902 284.304 615.902 281.664C615.902 279.504 613.694 278.304 610.958 277.584C606.926 276.576 601.886 275.472 601.886 270.288C601.886 268.32 602.654 266.688 604.19 265.392C605.774 264.096 607.742 263.424 610.094 263.424C613.982 263.424 617.102 265.296 618.494 268.32L615.854 269.856C614.942 267.6 613.022 266.496 610.094 266.496C607.358 266.496 605.054 267.84 605.054 270.288ZM630.319 287.712C629.311 288.72 627.583 288.72 626.575 287.712C625.567 286.704 625.567 284.976 626.575 283.968C627.583 282.96 629.311 282.96 630.319 283.968C631.327 284.976 631.327 286.704 630.319 287.712Z" fill="white"/>
<defs>
<filter id="filter0_d_298_37447" x="0.09375" y="18.824" width="1137.88" height="108.048" filterUnits="userSpaceOnUse" color-interpolation-filters="sRGB">
<feFlood flood-opacity="0" result="BackgroundImageFix"/>
<feColorMatrix in="SourceAlpha" type="matrix" values="0 0 0 0 0 0 0 0 0 0 0 0 0 0 0 0 0 0 127 0" result="hardAlpha"/>
<feOffset dy="12"/>
<feGaussianBlur stdDeviation="12"/>
<feComposite in2="hardAlpha" operator="out"/>
<feColorMatrix type="matrix" values="0 0 0 0 0 0 0 0 0 0 0 0 0 0 0 0 0 0 1 0"/>
<feBlend mode="normal" in2="BackgroundImageFix" result="effect1_dropShadow_298_37447"/>
<feBlend mode="normal" in="SourceGraphic" in2="effect1_dropShadow_298_37447" result="shape"/>
</filter>
<linearGradient id="paint0_linear_298_37447" x1="24" y1="63.5" x2="1114" y2="63.5" gradientUnits="userSpaceOnUse">
<stop stop-color="#EC4899"/>
<stop offset="0.505208" stop-color="#EF4444"/>
<stop offset="1" stop-color="#EAB308"/>
</linearGradient>
</defs>
</svg>
