<svg width="1050" height="300" viewBox="0 0 1050 300" fill="none" xmlns="http://www.w3.org/2000/svg">
<g filter="url(#filter0_d_298_38097)">
<path d="M162.612 79.496C161.604 79.496 160.716 79.256 159.948 78.776C159.228 78.248 158.604 77.6 158.076 76.832C157.596 76.016 157.164 75.176 156.78 74.312C156.444 73.4 156.156 72.56 155.916 71.792C155.676 70.976 155.46 70.328 155.268 69.848C155.076 69.32 154.908 69.056 154.764 69.056C154.524 69.056 154.308 69.344 154.116 69.92C153.972 70.496 153.9 71.024 153.9 71.504C153.9 71.984 153.9 72.464 153.9 72.944C153.948 73.376 153.972 73.832 153.972 74.312C153.972 76.52 153.828 78.632 153.54 80.648C153.012 84.296 151.404 86.744 148.716 87.992C147.516 88.52 146.364 88.784 145.26 88.784C143.628 88.784 142.14 88.352 140.796 87.488C139.5 86.576 138.468 85.472 137.7 84.176C136.98 82.928 136.5 81.536 136.26 80C136.068 78.464 135.924 76.784 135.828 74.96C135.732 72.608 135.612 70.064 135.468 67.328C135.324 64.592 135.252 61.784 135.252 58.904C135.252 56.264 135.324 53.672 135.468 51.128C135.66 48.536 135.996 46.136 136.476 43.928C136.956 41.72 137.604 39.776 138.42 38.096C139.236 36.368 140.292 35.024 141.588 34.064C142.644 33.296 143.796 32.72 145.044 32.336C146.34 31.904 147.636 31.688 148.932 31.688C151.044 31.688 152.964 32.168 154.692 33.128C155.604 33.656 156.444 34.28 157.212 35C157.98 35.672 158.628 36.488 159.156 37.448C159.828 38.648 160.308 39.944 160.596 41.336C160.932 42.68 161.196 44.048 161.388 45.44C161.772 48.128 162.084 50.096 162.324 51.344C162.564 52.592 162.804 53.216 163.044 53.216C163.284 53.216 163.524 52.52 163.764 51.128C164.004 49.688 164.316 47.624 164.7 44.936C164.892 43.544 165.132 42.176 165.42 40.832C165.756 39.44 166.26 38.144 166.932 36.944C167.46 35.984 168.108 35.168 168.876 34.496C169.644 33.824 170.484 33.224 171.396 32.696C172.308 32.168 173.244 31.808 174.204 31.616C175.212 31.376 176.22 31.256 177.228 31.256C178.524 31.256 179.796 31.448 181.044 31.832C182.292 32.216 183.444 32.792 184.5 33.56C185.796 34.52 186.852 35.864 187.668 37.592C188.484 39.272 189.132 41.216 189.612 43.424C190.092 45.632 190.404 48.032 190.548 50.624C190.74 53.168 190.836 55.76 190.836 58.4C190.836 61.28 190.764 64.088 190.62 66.824C190.476 69.56 190.356 72.104 190.26 74.456C190.164 76.28 190.02 78.056 189.828 79.784C189.636 81.464 189.18 82.928 188.46 84.176C187.692 85.472 186.636 86.576 185.292 87.488C183.948 88.352 182.46 88.784 180.828 88.784C179.724 88.784 178.572 88.52 177.372 87.992C176.028 87.368 174.948 86.36 174.132 84.968C173.316 83.528 172.788 81.92 172.548 80.144C172.404 79.136 172.308 78.104 172.26 77.048C172.212 75.992 172.188 74.912 172.188 73.808V71C172.188 70.52 172.092 69.992 171.9 69.416C171.756 68.84 171.564 68.552 171.324 68.552C171.132 68.552 171.012 68.84 170.964 69.416C170.916 69.944 170.82 70.616 170.676 71.432C170.532 72.2 170.316 73.064 170.028 74.024C169.74 74.984 169.308 75.872 168.732 76.688C168.156 77.456 167.364 78.128 166.356 78.704C165.396 79.232 164.148 79.496 162.612 79.496ZM225.21 57.32C225.21 56.312 224.802 55.472 223.986 54.8C223.17 54.08 222.234 53.72 221.178 53.72C220.266 53.72 219.426 54.032 218.658 54.656C217.842 55.328 217.434 56.192 217.434 57.248C217.434 58.16 217.77 58.952 218.442 59.624C218.826 60.008 219.258 60.32 219.738 60.56C220.266 60.752 220.818 60.848 221.394 60.848C222.258 60.848 223.026 60.608 223.698 60.128C224.13 59.792 224.49 59.384 224.778 58.904C225.066 58.424 225.21 57.896 225.21 57.32ZM221.826 36.872C225.138 36.872 228.378 37.448 231.546 38.6C234.714 39.752 237.546 41.408 240.042 43.568C242.682 45.872 244.794 48.632 246.378 51.848C247.962 55.064 248.826 58.424 248.97 61.928V62.936C248.97 66.392 248.274 69.752 246.882 73.016C245.49 76.28 243.546 79.136 241.05 81.584C238.458 84.08 235.482 86 232.122 87.344C228.81 88.64 225.354 89.288 221.754 89.288H221.178C217.866 89.192 214.65 88.568 211.53 87.416C208.458 86.216 205.698 84.512 203.25 82.304C200.802 80.096 198.81 77.504 197.274 74.528C195.786 71.552 194.922 68.408 194.682 65.096C194.634 64.76 194.61 64.448 194.61 64.16C194.61 63.872 194.61 63.56 194.61 63.224C194.61 59.912 195.21 56.744 196.41 53.72C197.658 50.648 199.41 47.912 201.666 45.512C204.114 42.92 206.994 40.88 210.306 39.392C213.666 37.856 217.146 37.016 220.746 36.872H221.826ZM273.023 41.192C273.647 42.2 274.079 43.304 274.319 44.504C274.559 45.656 274.679 46.832 274.679 48.032C274.679 48.32 274.679 48.632 274.679 48.968C274.679 49.256 274.655 49.544 274.607 49.832C274.415 51.848 274.103 53.888 273.671 55.952C273.287 57.968 273.095 60.056 273.095 62.216C273.095 62.84 273.119 63.464 273.167 64.088C273.263 64.664 273.359 65.288 273.455 65.96C273.551 66.488 273.695 66.992 273.887 67.472C274.127 67.952 274.439 68.312 274.823 68.552C275.207 68.792 275.519 68.912 275.759 68.912C276.431 68.912 276.935 68.552 277.271 67.832C277.607 67.112 277.823 66.44 277.919 65.816C278.063 64.76 278.135 63.656 278.135 62.504C278.135 59.864 277.919 57.272 277.487 54.728C277.055 52.136 276.815 49.544 276.767 46.952V46.52C276.767 45.656 276.815 44.816 276.911 44C277.007 43.136 277.247 42.296 277.631 41.48C278.351 39.8 279.551 38.504 281.231 37.592C282.047 37.112 282.863 36.776 283.679 36.584C284.543 36.392 285.407 36.296 286.271 36.296C287.903 36.296 289.463 36.656 290.951 37.376C292.439 38.048 293.663 38.984 294.623 40.184C295.775 41.576 296.519 43.208 296.855 45.08C297.239 46.904 297.431 48.92 297.431 51.128C297.431 51.656 297.431 52.184 297.431 52.712C297.431 53.24 297.407 53.768 297.359 54.296C297.263 56.888 297.167 59.504 297.071 62.144C296.975 64.784 296.735 67.328 296.351 69.776C296.015 72.224 295.487 74.528 294.767 76.688C294.095 78.8 293.135 80.648 291.887 82.232C290.207 84.344 287.999 86 285.263 87.2C282.575 88.4 279.479 89 275.975 89H275.327C270.863 88.904 266.903 87.92 263.447 86.048C260.039 84.128 257.423 81.656 255.599 78.632C254.159 76.28 253.199 73.712 252.719 70.928C252.239 68.144 251.999 65.12 251.999 61.856C251.999 60.944 251.999 60.032 251.999 59.12C252.047 58.208 252.095 57.272 252.143 56.312C252.239 54.824 252.311 53.36 252.359 51.92C252.455 50.432 252.671 48.968 253.007 47.528C253.487 45.32 254.303 43.352 255.455 41.624C256.655 39.848 258.191 38.504 260.063 37.592C261.551 36.872 263.063 36.512 264.599 36.512C266.375 36.512 268.007 36.944 269.495 37.808C270.983 38.672 272.159 39.8 273.023 41.192ZM319.524 75.536C319.524 76.784 319.5 78.032 319.452 79.28C319.404 80.528 319.26 81.704 319.02 82.808C318.636 84.728 317.82 86.288 316.572 87.488C315.324 88.688 313.548 89.288 311.244 89.288C308.508 89.288 306.348 88.544 304.764 87.056C303.228 85.568 302.244 83.648 301.812 81.296C301.476 79.424 301.26 77.456 301.164 75.392C301.116 73.28 301.092 71.144 301.092 68.984V66.176V62.648C301.092 59.864 301.164 57.008 301.308 54.08C301.5 51.152 301.956 48.488 302.676 46.088C303.396 43.688 304.5 41.72 305.988 40.184C307.476 38.648 309.564 37.88 312.252 37.88C313.884 37.88 315.228 38.096 316.284 38.528C317.388 38.912 318.444 39.536 319.452 40.4C320.652 41.456 321.588 42.752 322.26 44.288C322.932 45.824 323.508 47.408 323.988 49.04C324.516 50.672 325.068 52.28 325.644 53.864C326.22 55.4 327.06 56.696 328.164 57.752C328.26 57.848 328.332 57.896 328.38 57.896C328.524 57.896 328.62 57.8 328.668 57.608C328.764 57.368 328.836 57.104 328.884 56.816C328.98 56.48 329.028 56.144 329.028 55.808C329.076 55.472 329.1 55.208 329.1 55.016V54.296C329.1 53.144 329.1 52.016 329.1 50.912C329.148 49.76 329.172 48.584 329.172 47.384C329.172 45.512 329.364 43.88 329.748 42.488C330.132 41.096 330.876 39.896 331.98 38.888C332.7 38.216 333.516 37.736 334.428 37.448C335.34 37.112 336.276 36.944 337.236 36.944C338.628 36.944 340.02 37.256 341.412 37.88C342.852 38.504 343.98 39.32 344.796 40.328C345.9 41.672 346.62 43.136 346.956 44.72C347.34 46.304 347.532 48.152 347.532 50.264V50.984C347.532 52.808 347.532 54.656 347.532 56.528C347.58 58.4 347.556 60.248 347.46 62.072C347.364 64.376 347.244 66.608 347.1 68.768C347.004 70.928 346.812 73.112 346.524 75.32C346.284 77.096 345.948 78.848 345.516 80.576C345.084 82.256 344.46 83.768 343.644 85.112C342.828 86.456 341.748 87.536 340.404 88.352C339.108 89.168 337.428 89.576 335.364 89.576C333.684 89.576 332.244 89.408 331.044 89.072C329.892 88.736 328.884 88.208 328.02 87.488C327.156 86.72 326.412 85.76 325.788 84.608C325.164 83.408 324.588 81.968 324.06 80.288C323.868 79.76 323.652 79.088 323.412 78.272C323.172 77.456 322.908 76.64 322.62 75.824C322.332 74.96 322.02 74.168 321.684 73.448C321.348 72.68 320.988 72.104 320.604 71.72C320.412 71.528 320.268 71.432 320.172 71.432C319.932 71.432 319.74 71.6 319.596 71.936C319.5 72.272 319.452 72.704 319.452 73.232L319.524 75.032V75.536ZM384.744 39.32C386.088 40.328 387.072 41.6 387.696 43.136C388.32 44.672 388.632 46.256 388.632 47.888C388.632 48.992 388.488 50.072 388.2 51.128C387.96 52.136 387.576 53.048 387.048 53.864C386.568 54.632 385.968 55.256 385.248 55.736C384.528 56.216 383.736 56.456 382.872 56.456C382.632 56.456 382.368 56.432 382.08 56.384C381.84 56.336 381.576 56.264 381.288 56.168C380.904 56.072 380.64 56.024 380.496 56.024C379.968 56.024 379.584 56.216 379.344 56.6C379.152 56.984 379.056 57.512 379.056 58.184C379.056 58.28 379.056 58.4 379.056 58.544C379.104 58.64 379.128 58.736 379.128 58.832C379.272 60.656 379.416 62.48 379.56 64.304C379.704 66.128 379.776 67.976 379.776 69.848C379.776 71.144 379.728 72.44 379.632 73.736C379.536 74.984 379.368 76.28 379.128 77.624C378.888 78.968 378.504 80.312 377.976 81.656C377.448 83 376.776 84.224 375.96 85.328C375.144 86.432 374.16 87.344 373.008 88.064C371.904 88.736 370.632 89.072 369.192 89.072C368.568 89.072 367.944 89 367.32 88.856C366.072 88.616 364.968 88.16 364.008 87.488C363.048 86.816 362.184 86.024 361.416 85.112C360.696 84.152 360.096 83.12 359.616 82.016C359.136 80.864 358.752 79.664 358.464 78.416C358.272 77.648 358.152 76.904 358.104 76.184C358.056 75.464 358.032 74.768 358.032 74.096C358.032 72.704 358.152 71.384 358.392 70.136C358.632 68.888 358.896 67.64 359.184 66.392C359.52 65.144 359.808 63.896 360.048 62.648C360.288 61.352 360.408 59.96 360.408 58.472V57.176C360.312 56.12 360.048 55.424 359.616 55.088C359.184 54.752 358.656 54.584 358.032 54.584C357.6 54.584 357.144 54.632 356.664 54.728C356.184 54.776 355.704 54.8 355.224 54.8C354.744 54.8 354.408 54.776 354.216 54.728C352.92 54.392 351.912 53.672 351.192 52.568C350.472 51.416 350.112 50.048 350.112 48.464V47.6C350.496 43.04 352.68 40.016 356.664 38.528C358.392 37.904 360.528 37.424 363.072 37.088C365.616 36.752 368.232 36.584 370.92 36.584C372.36 36.584 373.776 36.656 375.168 36.8C376.56 36.896 377.856 37.064 379.056 37.304C380.256 37.496 381.336 37.76 382.296 38.096C383.304 38.432 384.12 38.84 384.744 39.32ZM460.916 64.304C460.964 65.408 461.012 66.32 461.06 67.04C461.108 67.76 461.132 68.6 461.132 69.56C461.132 70.28 461.108 71.12 461.06 72.08C461.012 73.04 460.94 74.216 460.844 75.608C460.748 76.904 460.58 78.2 460.34 79.496C460.148 80.792 459.764 82.04 459.188 83.24C458.372 84.92 457.1 86.408 455.372 87.704C453.644 89 451.604 89.648 449.252 89.648C449.06 89.648 448.868 89.648 448.676 89.648C448.532 89.648 448.34 89.624 448.1 89.576C445.94 89.336 444.068 88.592 442.484 87.344C440.948 86.048 439.748 84.608 438.884 83.024C438.02 81.44 437.372 79.256 436.94 76.472C436.556 73.64 436.364 70.616 436.364 67.4C436.364 66.728 436.364 66.032 436.364 65.312C436.364 64.592 436.388 63.872 436.436 63.152C435.188 61.904 433.964 60.56 432.764 59.12C431.564 57.632 430.412 56.144 429.308 54.656C427.724 52.496 426.356 50.432 425.204 48.464C424.1 46.448 423.548 44.408 423.548 42.344C423.548 42.152 423.548 41.96 423.548 41.768C423.548 41.576 423.572 41.36 423.62 41.12C423.812 39.776 424.244 38.528 424.916 37.376C425.636 36.176 426.524 35.144 427.58 34.28C428.684 33.416 429.884 32.744 431.18 32.264C432.524 31.784 433.892 31.544 435.284 31.544C436.58 31.544 437.804 31.832 438.956 32.408C440.156 32.984 441.332 33.752 442.484 34.712C443.636 35.624 444.74 36.68 445.796 37.88C446.9 39.08 447.98 40.28 449.036 41.48C450.092 40.28 451.172 39.08 452.276 37.88C453.428 36.68 454.58 35.624 455.732 34.712C456.884 33.752 458.06 32.984 459.26 32.408C460.46 31.832 461.636 31.544 462.788 31.544C464.18 31.544 465.524 31.784 466.82 32.264C468.164 32.744 469.364 33.416 470.42 34.28C471.524 35.144 472.412 36.176 473.084 37.376C473.804 38.528 474.26 39.776 474.452 41.12C474.5 41.36 474.524 41.576 474.524 41.768C474.524 41.96 474.524 42.176 474.524 42.416C474.524 44.432 473.996 46.448 472.94 48.464C471.884 50.432 470.588 52.496 469.052 54.656L460.916 64.304ZM504.224 57.32C504.224 56.312 503.816 55.472 503 54.8C502.184 54.08 501.248 53.72 500.192 53.72C499.28 53.72 498.44 54.032 497.672 54.656C496.856 55.328 496.448 56.192 496.448 57.248C496.448 58.16 496.784 58.952 497.456 59.624C497.84 60.008 498.272 60.32 498.752 60.56C499.28 60.752 499.832 60.848 500.408 60.848C501.272 60.848 502.04 60.608 502.712 60.128C503.144 59.792 503.504 59.384 503.792 58.904C504.08 58.424 504.224 57.896 504.224 57.32ZM500.84 36.872C504.152 36.872 507.392 37.448 510.56 38.6C513.728 39.752 516.56 41.408 519.056 43.568C521.696 45.872 523.808 48.632 525.392 51.848C526.976 55.064 527.84 58.424 527.984 61.928V62.936C527.984 66.392 527.288 69.752 525.896 73.016C524.504 76.28 522.56 79.136 520.064 81.584C517.472 84.08 514.496 86 511.136 87.344C507.824 88.64 504.368 89.288 500.768 89.288H500.192C496.88 89.192 493.664 88.568 490.544 87.416C487.472 86.216 484.712 84.512 482.264 82.304C479.816 80.096 477.824 77.504 476.288 74.528C474.8 71.552 473.936 68.408 473.696 65.096C473.648 64.76 473.624 64.448 473.624 64.16C473.624 63.872 473.624 63.56 473.624 63.224C473.624 59.912 474.224 56.744 475.424 53.72C476.672 50.648 478.424 47.912 480.68 45.512C483.128 42.92 486.008 40.88 489.32 39.392C492.68 37.856 496.16 37.016 499.76 36.872H500.84ZM552.037 41.192C552.661 42.2 553.093 43.304 553.333 44.504C553.573 45.656 553.693 46.832 553.693 48.032C553.693 48.32 553.693 48.632 553.693 48.968C553.693 49.256 553.669 49.544 553.621 49.832C553.429 51.848 553.117 53.888 552.685 55.952C552.301 57.968 552.109 60.056 552.109 62.216C552.109 62.84 552.133 63.464 552.181 64.088C552.277 64.664 552.373 65.288 552.469 65.96C552.565 66.488 552.709 66.992 552.901 67.472C553.141 67.952 553.453 68.312 553.837 68.552C554.221 68.792 554.533 68.912 554.773 68.912C555.445 68.912 555.949 68.552 556.285 67.832C556.621 67.112 556.837 66.44 556.933 65.816C557.077 64.76 557.149 63.656 557.149 62.504C557.149 59.864 556.933 57.272 556.501 54.728C556.069 52.136 555.829 49.544 555.781 46.952V46.52C555.781 45.656 555.829 44.816 555.925 44C556.021 43.136 556.261 42.296 556.645 41.48C557.365 39.8 558.565 38.504 560.245 37.592C561.061 37.112 561.877 36.776 562.693 36.584C563.557 36.392 564.421 36.296 565.285 36.296C566.917 36.296 568.477 36.656 569.965 37.376C571.453 38.048 572.677 38.984 573.637 40.184C574.789 41.576 575.533 43.208 575.869 45.08C576.253 46.904 576.445 48.92 576.445 51.128C576.445 51.656 576.445 52.184 576.445 52.712C576.445 53.24 576.421 53.768 576.373 54.296C576.277 56.888 576.181 59.504 576.085 62.144C575.989 64.784 575.749 67.328 575.365 69.776C575.029 72.224 574.501 74.528 573.781 76.688C573.109 78.8 572.149 80.648 570.901 82.232C569.221 84.344 567.013 86 564.277 87.2C561.589 88.4 558.493 89 554.989 89H554.341C549.877 88.904 545.917 87.92 542.461 86.048C539.053 84.128 536.437 81.656 534.613 78.632C533.173 76.28 532.213 73.712 531.733 70.928C531.253 68.144 531.013 65.12 531.013 61.856C531.013 60.944 531.013 60.032 531.013 59.12C531.061 58.208 531.109 57.272 531.157 56.312C531.253 54.824 531.325 53.36 531.373 51.92C531.469 50.432 531.685 48.968 532.021 47.528C532.501 45.32 533.317 43.352 534.469 41.624C535.669 39.848 537.205 38.504 539.077 37.592C540.565 36.872 542.077 36.512 543.613 36.512C545.389 36.512 547.021 36.944 548.509 37.808C549.997 38.672 551.173 39.8 552.037 41.192ZM600.122 53.576C600.218 54.152 600.458 54.56 600.842 54.8C601.226 55.04 601.634 55.16 602.066 55.16C602.594 55.16 603.098 54.992 603.578 54.656C604.106 54.32 604.37 53.84 604.37 53.216C604.37 53.12 604.322 52.88 604.226 52.496C603.89 51.584 603.266 51.128 602.354 51.128C601.826 51.128 601.322 51.32 600.842 51.704C600.362 52.04 600.122 52.52 600.122 53.144V53.576ZM605.738 37.736C609.434 38.072 612.77 38.84 615.746 40.04C618.77 41.24 621.146 43.064 622.874 45.512C624.554 47.912 625.394 50.648 625.394 53.72C625.394 55.112 625.226 56.408 624.89 57.608C624.506 59.096 623.882 60.512 623.018 61.856C622.202 63.152 621.194 64.28 619.994 65.24C621.242 66.824 622.418 68.696 623.522 70.856C624.674 72.968 625.322 75.176 625.466 77.48V78.344C625.466 81.032 624.722 83.36 623.234 85.328C621.794 87.296 619.946 88.52 617.69 89C616.97 89.144 616.298 89.216 615.674 89.216C613.658 89.216 611.882 88.688 610.346 87.632C608.81 86.528 607.61 85.352 606.746 84.104C605.642 82.568 604.874 80.864 604.442 78.992C604.01 77.12 603.77 75.224 603.722 73.304C603.722 72.632 603.674 72.008 603.578 71.432C603.482 70.856 603.218 70.424 602.786 70.136C602.546 69.992 602.354 69.92 602.21 69.92C601.874 69.92 601.634 70.112 601.49 70.496C601.346 70.832 601.274 71.192 601.274 71.576C601.274 72.536 601.322 73.472 601.418 74.384C601.562 75.248 601.634 76.136 601.634 77.048C601.634 77.24 601.61 77.408 601.562 77.552C601.562 77.696 601.562 77.864 601.562 78.056C601.466 80.36 600.842 82.424 599.69 84.248C598.586 86.072 597.122 87.392 595.298 88.208C593.906 88.784 592.586 89.072 591.338 89.072C589.418 89.072 587.666 88.568 586.082 87.56C584.546 86.504 583.37 85.304 582.554 83.96C581.594 82.376 580.946 80.648 580.61 78.776C580.322 76.904 580.154 75.032 580.106 73.16V71.576C580.106 69.368 580.154 67.184 580.25 65.024C580.346 62.864 580.442 60.68 580.538 58.472C580.586 56.84 580.634 55.208 580.682 53.576C580.778 51.944 581.066 50.36 581.546 48.824C582.074 47.096 582.866 45.488 583.922 44C585.026 42.512 586.346 41.288 587.882 40.328C589.562 39.32 591.53 38.6 593.786 38.168C596.09 37.736 598.514 37.52 601.058 37.52C602.594 37.52 604.154 37.592 605.738 37.736ZM716.087 58.76C716.087 58.952 716.087 59.144 716.087 59.336C716.135 59.528 716.159 59.72 716.159 59.912C716.159 63.752 715.367 67.472 713.783 71.072C712.247 74.672 710.087 77.816 707.303 80.504C704.471 83.24 701.351 85.352 697.943 86.84C694.535 88.28 690.887 89 686.999 89C685.559 89 684.167 89 682.823 89C681.527 89 680.231 88.976 678.935 88.928C676.247 88.88 673.439 88.736 670.511 88.496C666.191 88.064 663.287 86.144 661.799 82.736C661.559 82.208 661.367 81.368 661.223 80.216C661.079 79.064 660.959 77.72 660.863 76.184C660.767 74.648 660.695 72.992 660.647 71.216C660.599 69.44 660.575 67.64 660.575 65.816C660.575 64.184 660.551 62.384 660.503 60.416C660.455 58.4 660.431 56.336 660.431 54.224C660.479 52.112 660.527 50.024 660.575 47.96C660.671 45.848 660.839 43.904 661.079 42.128C661.319 40.304 661.655 38.72 662.087 37.376C662.519 35.984 663.095 34.928 663.815 34.208C664.535 33.488 665.375 32.912 666.335 32.48C667.295 32.048 668.351 31.712 669.503 31.472C670.655 31.232 671.855 31.064 673.103 30.968C674.399 30.872 675.671 30.824 676.919 30.824C682.247 30.824 687.287 31.328 692.039 32.336C696.791 33.344 700.943 34.976 704.495 37.232C708.047 39.44 710.855 42.32 712.919 45.872C714.983 49.376 716.015 53.672 716.015 58.76H716.087ZM690.815 53.72C690.815 52.856 690.623 52.16 690.239 51.632C689.903 51.104 689.471 50.72 688.943 50.48C688.415 50.192 687.839 50.024 687.215 49.976C686.591 49.88 685.991 49.832 685.415 49.832C684.503 49.832 683.879 50.048 683.543 50.48C683.303 50.816 683.135 51.248 683.039 51.776C682.943 52.304 682.895 52.88 682.895 53.504C682.895 54.272 682.943 54.992 683.039 55.664C683.135 56.336 683.231 56.792 683.327 57.032C683.519 57.416 683.855 57.704 684.335 57.896C684.815 58.04 685.343 58.112 685.919 58.112C686.447 58.112 686.999 58.04 687.575 57.896C688.151 57.752 688.679 57.512 689.159 57.176C689.639 56.84 690.023 56.336 690.311 55.664C690.647 54.992 690.815 54.344 690.815 53.72ZM753.772 45.584C753.772 45.68 753.772 45.752 753.772 45.8C753.82 45.848 753.844 45.92 753.844 46.016C753.844 46.976 753.652 47.936 753.268 48.896C752.884 49.808 752.356 50.624 751.684 51.344C751.06 52.064 750.292 52.64 749.38 53.072C748.468 53.504 747.484 53.72 746.428 53.72C746.284 53.72 746.116 53.72 745.924 53.72C745.78 53.72 745.612 53.696 745.42 53.648C745.036 53.6 744.628 53.552 744.196 53.504C743.764 53.408 743.332 53.36 742.9 53.36C742.42 53.36 741.988 53.432 741.604 53.576C741.268 53.72 741.028 54.008 740.884 54.44C740.788 54.728 740.74 54.92 740.74 55.016C740.74 55.4 740.908 55.664 741.244 55.808C741.628 55.952 742.036 56.024 742.468 56.024C742.804 56.024 743.068 56 743.26 55.952C743.644 55.904 744.004 55.88 744.34 55.88C744.676 55.832 745.036 55.808 745.42 55.808C745.804 55.808 746.188 55.832 746.572 55.88C746.956 55.88 747.34 55.904 747.724 55.952C750.316 56.24 752.068 57.344 752.98 59.264C753.46 60.272 753.7 61.376 753.7 62.576C753.7 64.016 753.34 65.36 752.62 66.608C751.9 67.808 750.988 68.672 749.884 69.2C749.068 69.584 748.108 69.776 747.004 69.776C746.332 69.776 745.66 69.728 744.988 69.632C744.316 69.488 743.644 69.344 742.972 69.2C742.78 69.152 742.492 69.128 742.108 69.128C741.628 69.128 741.22 69.224 740.884 69.416C740.596 69.608 740.452 69.944 740.452 70.424C740.452 71.096 740.668 71.576 741.1 71.864C741.58 72.104 742.132 72.224 742.756 72.224C742.996 72.224 743.236 72.224 743.476 72.224C743.764 72.176 744.028 72.128 744.268 72.08C744.604 72.032 744.94 72.008 745.276 72.008C745.612 71.96 745.924 71.936 746.212 71.936C748.372 71.936 750.1 72.536 751.396 73.736C752.74 74.888 753.412 76.568 753.412 78.776C753.412 78.872 753.388 78.968 753.34 79.064C753.34 79.112 753.34 79.184 753.34 79.28C753.244 81.056 752.788 82.568 751.972 83.816C751.156 85.016 750.076 86.024 748.732 86.84C747.436 87.608 745.948 88.184 744.268 88.568C742.588 88.904 740.812 89.072 738.94 89.072C737.164 89.072 735.388 88.928 733.612 88.64C732.172 88.4 730.732 88.04 729.292 87.56C727.9 87.032 726.652 86.288 725.548 85.328C724.252 84.224 723.22 82.808 722.452 81.08C721.732 79.304 721.156 77.384 720.724 75.32C720.34 73.208 720.076 70.976 719.932 68.624C719.836 66.272 719.788 63.92 719.788 61.568V57.392C719.836 53.744 720.196 50.456 720.868 47.528C721.588 44.6 723.052 42.272 725.26 40.544C726.796 39.296 728.764 38.408 731.164 37.88C733.564 37.304 736.108 37.016 738.796 37.016C739.708 37.016 740.62 37.04 741.532 37.088C742.444 37.136 743.356 37.232 744.268 37.376C745.276 37.52 746.26 37.736 747.22 38.024C748.228 38.312 749.164 38.72 750.028 39.248C751.132 39.92 751.996 40.832 752.62 41.984C753.292 43.136 753.676 44.336 753.772 45.584ZM778.397 89.792C776.477 89.792 774.605 89.192 772.781 87.992C770.957 86.792 769.229 85.208 767.597 83.24C765.965 81.224 764.453 78.896 763.061 76.256C761.717 73.616 760.541 70.856 759.533 67.976C758.525 65.096 757.733 62.192 757.157 59.264C756.629 56.336 756.365 53.576 756.365 50.984C756.365 49.064 756.533 47.288 756.869 45.656C757.205 44.024 757.709 42.584 758.381 41.336C759.197 39.896 760.277 38.816 761.621 38.096C763.013 37.376 764.477 37.016 766.013 37.016C767.597 37.016 769.157 37.376 770.693 38.096C771.701 38.576 772.541 39.368 773.213 40.472C773.933 41.576 774.533 42.848 775.013 44.288C775.493 45.728 775.877 47.264 776.165 48.896C776.501 50.48 776.789 52.016 777.029 53.504C777.269 54.992 777.485 56.36 777.677 57.608C777.869 58.808 778.109 59.72 778.397 60.344C778.685 59.72 778.949 58.808 779.189 57.608C779.477 56.408 779.789 55.088 780.125 53.648C780.509 52.208 780.917 50.72 781.349 49.184C781.781 47.6 782.285 46.112 782.861 44.72C783.437 43.328 784.085 42.08 784.805 40.976C785.573 39.824 786.437 38.984 787.397 38.456C789.317 37.4 791.093 36.872 792.725 36.872C794.261 36.872 795.629 37.304 796.829 38.168C798.077 38.984 799.109 40.112 799.925 41.552C800.453 42.512 800.837 43.664 801.077 45.008C801.317 46.304 801.437 47.744 801.437 49.328C801.437 51.824 801.149 54.56 800.573 57.536C799.997 60.512 799.181 63.512 798.125 66.536C797.117 69.512 795.893 72.392 794.453 75.176C793.061 77.96 791.501 80.456 789.773 82.664C788.093 84.824 786.269 86.552 784.301 87.848C782.381 89.144 780.413 89.792 778.397 89.792ZM826.803 52.136C826.947 55.592 827.019 59.072 827.019 62.576C827.019 64.88 826.971 67.184 826.875 69.488C826.827 71.744 826.707 74.024 826.515 76.328C826.419 77.528 826.275 78.704 826.083 79.856C825.939 81.008 825.603 82.136 825.075 83.24C824.355 84.776 823.203 86.144 821.619 87.344C820.083 88.496 818.235 89.072 816.075 89.072C815.595 89.072 815.235 89.048 814.995 89C813.027 88.76 811.347 88.088 809.955 86.984C808.563 85.832 807.459 84.536 806.643 83.096C805.683 81.272 805.059 79.16 804.771 76.76C804.483 74.36 804.339 71.864 804.339 69.272C804.339 67.88 804.339 66.512 804.339 65.168C804.387 63.776 804.435 62.408 804.483 61.064C804.531 59 804.579 56.912 804.627 54.8C804.723 52.64 804.915 50.6 805.203 48.68C805.491 46.712 805.947 44.912 806.571 43.28C807.195 41.648 808.131 40.28 809.379 39.176C810.291 38.36 811.323 37.76 812.475 37.376C813.627 36.944 814.827 36.728 816.075 36.728C817.371 36.728 818.619 36.968 819.819 37.448C821.019 37.88 822.099 38.552 823.059 39.464C824.547 40.904 825.507 42.704 825.939 44.864C826.419 47.024 826.707 49.448 826.803 52.136ZM860.585 57.608C860.201 57.224 859.769 56.96 859.289 56.816C858.809 56.672 858.305 56.6 857.777 56.6C856.817 56.6 855.929 56.912 855.113 57.536C854.297 58.112 853.889 58.952 853.889 60.056C853.889 61.16 854.273 62.048 855.041 62.72C855.857 63.344 856.817 63.656 857.921 63.656C858.017 63.656 858.065 63.656 858.065 63.656C858.113 63.608 858.185 63.584 858.281 63.584C858.809 63.536 859.289 63.464 859.721 63.368C860.201 63.272 860.705 63.176 861.233 63.08C862.481 62.792 863.609 62.552 864.617 62.36C865.673 62.168 866.657 62.072 867.569 62.072C868.721 62.072 869.825 62.264 870.881 62.648C871.937 63.032 873.089 63.704 874.337 64.664C875.681 65.672 876.665 66.848 877.289 68.192C877.913 69.536 878.225 70.976 878.225 72.512C878.225 74.432 877.745 76.376 876.785 78.344C875.825 80.264 874.457 82.016 872.681 83.6C870.905 85.184 868.745 86.48 866.201 87.488C863.657 88.496 860.801 89 857.633 89C853.745 89 850.313 88.328 847.337 86.984C844.409 85.592 841.865 83.936 839.705 82.016C838.553 81.008 837.449 79.832 836.393 78.488C835.385 77.144 834.473 75.68 833.657 74.096C832.889 72.512 832.265 70.808 831.785 68.984C831.305 67.112 831.065 65.144 831.065 63.08C831.065 62.216 831.113 61.352 831.209 60.488C831.305 59.624 831.449 58.712 831.641 57.752C832.457 53.864 833.921 50.504 836.033 47.672C838.193 44.84 840.737 42.512 843.665 40.688C845.681 39.44 847.985 38.432 850.577 37.664C853.169 36.848 855.977 36.44 859.001 36.44C859.865 36.44 860.729 36.488 861.593 36.584C862.457 36.68 863.345 36.8 864.257 36.944C866.897 37.424 869.249 38.408 871.313 39.896C873.377 41.336 874.745 43.28 875.417 45.728C875.657 46.688 875.777 47.696 875.777 48.752C875.777 49.856 875.657 50.96 875.417 52.064C875.177 53.168 874.817 54.104 874.337 54.872C873.377 56.312 872.129 57.392 870.593 58.112C869.105 58.832 867.545 59.192 865.913 59.192C863.849 59.192 862.073 58.664 860.585 57.608ZM914.774 45.584C914.774 45.68 914.774 45.752 914.774 45.8C914.822 45.848 914.846 45.92 914.846 46.016C914.846 46.976 914.654 47.936 914.27 48.896C913.886 49.808 913.358 50.624 912.686 51.344C912.062 52.064 911.294 52.64 910.382 53.072C909.47 53.504 908.486 53.72 907.43 53.72C907.286 53.72 907.118 53.72 906.926 53.72C906.782 53.72 906.614 53.696 906.422 53.648C906.038 53.6 905.63 53.552 905.198 53.504C904.766 53.408 904.334 53.36 903.902 53.36C903.422 53.36 902.99 53.432 902.606 53.576C902.27 53.72 902.03 54.008 901.886 54.44C901.79 54.728 901.742 54.92 901.742 55.016C901.742 55.4 901.91 55.664 902.246 55.808C902.63 55.952 903.038 56.024 903.47 56.024C903.806 56.024 904.07 56 904.262 55.952C904.646 55.904 905.006 55.88 905.342 55.88C905.678 55.832 906.038 55.808 906.422 55.808C906.806 55.808 907.19 55.832 907.574 55.88C907.958 55.88 908.342 55.904 908.726 55.952C911.318 56.24 913.07 57.344 913.982 59.264C914.462 60.272 914.702 61.376 914.702 62.576C914.702 64.016 914.342 65.36 913.622 66.608C912.902 67.808 911.99 68.672 910.886 69.2C910.07 69.584 909.11 69.776 908.006 69.776C907.334 69.776 906.662 69.728 905.99 69.632C905.318 69.488 904.646 69.344 903.974 69.2C903.782 69.152 903.494 69.128 903.11 69.128C902.63 69.128 902.222 69.224 901.886 69.416C901.598 69.608 901.454 69.944 901.454 70.424C901.454 71.096 901.67 71.576 902.102 71.864C902.582 72.104 903.134 72.224 903.758 72.224C903.998 72.224 904.238 72.224 904.478 72.224C904.766 72.176 905.03 72.128 905.27 72.08C905.606 72.032 905.942 72.008 906.278 72.008C906.614 71.96 906.926 71.936 907.214 71.936C909.374 71.936 911.102 72.536 912.398 73.736C913.742 74.888 914.414 76.568 914.414 78.776C914.414 78.872 914.39 78.968 914.342 79.064C914.342 79.112 914.342 79.184 914.342 79.28C914.246 81.056 913.79 82.568 912.974 83.816C912.158 85.016 911.078 86.024 909.734 86.84C908.438 87.608 906.95 88.184 905.27 88.568C903.59 88.904 901.814 89.072 899.942 89.072C898.166 89.072 896.39 88.928 894.614 88.64C893.174 88.4 891.734 88.04 890.294 87.56C888.902 87.032 887.654 86.288 886.55 85.328C885.254 84.224 884.222 82.808 883.454 81.08C882.734 79.304 882.158 77.384 881.726 75.32C881.342 73.208 881.078 70.976 880.934 68.624C880.838 66.272 880.79 63.92 880.79 61.568V57.392C880.838 53.744 881.198 50.456 881.87 47.528C882.59 44.6 884.054 42.272 886.262 40.544C887.798 39.296 889.766 38.408 892.166 37.88C894.566 37.304 897.11 37.016 899.798 37.016C900.71 37.016 901.622 37.04 902.534 37.088C903.446 37.136 904.358 37.232 905.27 37.376C906.278 37.52 907.262 37.736 908.222 38.024C909.23 38.312 910.166 38.72 911.03 39.248C912.134 39.92 912.998 40.832 913.622 41.984C914.294 43.136 914.678 44.336 914.774 45.584Z" fill="url(#paint0_linear_298_38097)"/>
</g>
<path d="M48.9454 188.576C43.8574 188.576 39.6334 186.896 36.3214 183.536C33.0094 180.176 31.3294 176.048 31.3294 171.2C31.3294 166.352 33.0094 162.224 36.3214 158.864C39.6334 155.504 43.8574 153.824 48.9454 153.824C55.1374 153.824 60.6574 157.04 63.4894 162.08L60.5134 163.808C58.4014 159.728 53.9374 157.088 48.9454 157.088C44.7694 157.088 41.3134 158.432 38.6734 161.168C36.0334 163.904 34.6894 167.216 34.6894 171.2C34.6894 175.184 36.0334 178.496 38.6734 181.232C41.3134 183.968 44.7694 185.312 48.9454 185.312C53.9374 185.312 58.4014 182.672 60.5134 178.592L63.4894 180.272C60.7534 185.312 55.1374 188.576 48.9454 188.576ZM82.167 163.424C87.975 163.424 91.575 167.264 91.575 173.264V188H88.407V173.264C88.407 168.992 86.055 166.496 81.879 166.496C77.271 166.496 74.103 169.328 74.103 175.424V188H70.935V154.4H74.103V167.744C75.879 164.864 78.567 163.424 82.167 163.424ZM120.213 184.976C117.765 187.376 114.789 188.576 111.285 188.576C107.781 188.576 104.757 187.376 102.309 184.976C99.8606 182.528 98.6606 179.552 98.6606 176C98.6606 172.448 99.8606 169.472 102.309 167.072C104.757 164.624 107.781 163.424 111.285 163.424C114.789 163.424 117.765 164.624 120.213 167.072C122.661 169.472 123.909 172.448 123.909 176C123.909 179.552 122.661 182.528 120.213 184.976ZM104.565 182.768C106.389 184.592 108.645 185.504 111.285 185.504C113.925 185.504 116.181 184.592 118.005 182.768C119.829 180.896 120.741 178.64 120.741 176C120.741 173.36 119.829 171.104 118.005 169.28C116.181 167.408 113.925 166.496 111.285 166.496C108.645 166.496 106.389 167.408 104.565 169.28C102.741 171.104 101.829 173.36 101.829 176C101.829 178.64 102.741 180.896 104.565 182.768ZM151.722 184.976C149.274 187.376 146.298 188.576 142.794 188.576C139.29 188.576 136.266 187.376 133.818 184.976C131.37 182.528 130.17 179.552 130.17 176C130.17 172.448 131.37 169.472 133.818 167.072C136.266 164.624 139.29 163.424 142.794 163.424C146.298 163.424 149.274 164.624 151.722 167.072C154.17 169.472 155.418 172.448 155.418 176C155.418 179.552 154.17 182.528 151.722 184.976ZM136.074 182.768C137.898 184.592 140.154 185.504 142.794 185.504C145.434 185.504 147.69 184.592 149.514 182.768C151.338 180.896 152.25 178.64 152.25 176C152.25 173.36 151.338 171.104 149.514 169.28C147.69 167.408 145.434 166.496 142.794 166.496C140.154 166.496 137.898 167.408 136.074 169.28C134.25 171.104 133.338 173.36 133.338 176C133.338 178.64 134.25 180.896 136.074 182.768ZM165.147 170.288C165.147 172.448 167.355 173.648 170.091 174.368C174.123 175.376 179.163 176.48 179.163 181.664C179.163 183.728 178.347 185.36 176.715 186.656C175.131 187.952 173.019 188.576 170.475 188.576C165.867 188.576 162.507 186.32 161.211 183.056L163.899 181.472C164.811 183.968 167.259 185.504 170.475 185.504C173.595 185.504 175.995 184.304 175.995 181.664C175.995 179.504 173.787 178.304 171.051 177.584C167.019 176.576 161.979 175.472 161.979 170.288C161.979 168.32 162.747 166.688 164.283 165.392C165.867 164.096 167.835 163.424 170.187 163.424C174.075 163.424 177.195 165.296 178.587 168.32L175.947 169.856C175.035 167.6 173.115 166.496 170.187 166.496C167.451 166.496 165.147 167.84 165.147 170.288ZM197.935 163.424C201.487 163.424 204.367 164.672 206.527 167.216C208.735 169.712 209.839 172.688 209.839 176.096C209.839 176.432 209.791 176.96 209.743 177.584H188.671C189.295 182.432 193.087 185.504 198.223 185.504C201.871 185.504 204.607 183.872 205.951 181.424L208.735 183.056C206.623 186.464 202.831 188.576 198.175 188.576C194.383 188.576 191.311 187.376 188.959 185.024C186.607 182.672 185.407 179.648 185.407 176C185.407 172.4 186.559 169.424 188.911 167.024C191.263 164.624 194.239 163.424 197.935 163.424ZM197.935 166.496C192.943 166.496 189.295 169.76 188.671 174.512H206.575C206.239 171.968 205.279 170 203.647 168.608C202.015 167.216 200.095 166.496 197.935 166.496ZM252.319 168.704V164H255.487V188H252.319V183.296C250.111 186.8 246.895 188.576 242.623 188.576C239.215 188.576 236.287 187.376 233.839 184.928C231.439 182.48 230.239 179.504 230.239 176C230.239 172.496 231.439 169.52 233.839 167.072C236.287 164.624 239.215 163.424 242.623 163.424C246.895 163.424 250.111 165.2 252.319 168.704ZM236.143 182.768C237.967 184.592 240.223 185.504 242.863 185.504C245.503 185.504 247.759 184.592 249.583 182.768C251.407 180.896 252.319 178.64 252.319 176C252.319 173.36 251.407 171.104 249.583 169.28C247.759 167.408 245.503 166.496 242.863 166.496C240.223 166.496 237.967 167.408 236.143 169.28C234.319 171.104 233.407 173.36 233.407 176C233.407 178.64 234.319 180.896 236.143 182.768ZM275.826 163.424C281.634 163.424 285.234 167.264 285.234 173.264V188H282.066V173.264C282.066 168.992 279.714 166.496 275.538 166.496C270.93 166.496 267.762 169.328 267.762 175.424V188H264.594V164H267.762V167.744C269.538 164.864 272.226 163.424 275.826 163.424ZM311.376 159.824C310.464 160.736 309.024 160.736 308.112 159.824C307.2 158.912 307.2 157.472 308.112 156.56C309.024 155.648 310.464 155.648 311.376 156.56C312.288 157.472 312.288 158.912 311.376 159.824ZM311.328 188H308.16V164H311.328V188ZM346.035 163.424C351.411 163.424 355.011 167.12 355.011 173.024V188H351.843V173.024C351.843 168.848 349.491 166.496 345.987 166.496C342.003 166.496 339.315 169.088 339.315 174.704V188H336.147V173.024C336.147 168.8 333.987 166.496 330.531 166.496C326.691 166.496 323.619 169.136 323.619 174.704V188H320.451V164H323.619V167.504C325.347 164.768 327.795 163.424 330.963 163.424C334.419 163.424 336.867 164.864 338.259 167.792C339.987 164.864 342.579 163.424 346.035 163.424ZM384.178 168.704V164H387.346V188H384.178V183.296C381.97 186.8 378.754 188.576 374.482 188.576C371.074 188.576 368.146 187.376 365.698 184.928C363.298 182.48 362.098 179.504 362.098 176C362.098 172.496 363.298 169.52 365.698 167.072C368.146 164.624 371.074 163.424 374.482 163.424C378.754 163.424 381.97 165.2 384.178 168.704ZM368.002 182.768C369.826 184.592 372.082 185.504 374.722 185.504C377.362 185.504 379.618 184.592 381.442 182.768C383.266 180.896 384.178 178.64 384.178 176C384.178 173.36 383.266 171.104 381.442 169.28C379.618 167.408 377.362 166.496 374.722 166.496C372.082 166.496 369.826 167.408 368.002 169.28C366.178 171.104 365.266 173.36 365.266 176C365.266 178.64 366.178 180.896 368.002 182.768ZM417.094 168.704V164H420.262V187.04C420.262 190.496 419.062 193.232 416.71 195.2C414.358 197.168 411.526 198.176 408.214 198.176C402.598 198.176 398.806 196.208 396.838 192.32L399.622 190.736C401.062 193.664 403.942 195.104 408.214 195.104C413.734 195.104 417.094 191.984 417.094 187.04V183.296C414.886 186.8 411.67 188.576 407.398 188.576C403.99 188.576 401.062 187.376 398.614 184.928C396.214 182.48 395.014 179.504 395.014 176C395.014 172.496 396.214 169.52 398.614 167.072C401.062 164.624 403.99 163.424 407.398 163.424C411.67 163.424 414.886 165.2 417.094 168.704ZM400.918 182.768C402.742 184.592 404.998 185.504 407.638 185.504C410.278 185.504 412.534 184.592 414.358 182.768C416.182 180.896 417.094 178.64 417.094 176C417.094 173.36 416.182 171.104 414.358 169.28C412.534 167.408 410.278 166.496 407.638 166.496C404.998 166.496 402.742 167.408 400.918 169.28C399.094 171.104 398.182 173.36 398.182 176C398.182 178.64 399.094 180.896 400.918 182.768ZM440.457 163.424C444.009 163.424 446.889 164.672 449.049 167.216C451.257 169.712 452.361 172.688 452.361 176.096C452.361 176.432 452.313 176.96 452.265 177.584H431.193C431.817 182.432 435.609 185.504 440.745 185.504C444.393 185.504 447.129 183.872 448.473 181.424L451.257 183.056C449.145 186.464 445.353 188.576 440.697 188.576C436.905 188.576 433.833 187.376 431.481 185.024C429.129 182.672 427.929 179.648 427.929 176C427.929 172.4 429.081 169.424 431.433 167.024C433.785 164.624 436.761 163.424 440.457 163.424ZM440.457 166.496C435.465 166.496 431.817 169.76 431.193 174.512H449.097C448.761 171.968 447.801 170 446.169 168.608C444.537 167.216 442.617 166.496 440.457 166.496ZM494.841 168.704V164H498.009V188H494.841V183.296C492.633 186.8 489.417 188.576 485.145 188.576C481.737 188.576 478.809 187.376 476.361 184.928C473.961 182.48 472.761 179.504 472.761 176C472.761 172.496 473.961 169.52 476.361 167.072C478.809 164.624 481.737 163.424 485.145 163.424C489.417 163.424 492.633 165.2 494.841 168.704ZM478.665 182.768C480.489 184.592 482.745 185.504 485.385 185.504C488.025 185.504 490.281 184.592 492.105 182.768C493.929 180.896 494.841 178.64 494.841 176C494.841 173.36 493.929 171.104 492.105 169.28C490.281 167.408 488.025 166.496 485.385 166.496C482.745 166.496 480.489 167.408 478.665 169.28C476.841 171.104 475.929 173.36 475.929 176C475.929 178.64 476.841 180.896 478.665 182.768ZM518.348 163.424C524.156 163.424 527.756 167.264 527.756 173.264V188H524.588V173.264C524.588 168.992 522.236 166.496 518.06 166.496C513.452 166.496 510.284 169.328 510.284 175.424V188H507.116V164H510.284V167.744C512.06 164.864 514.748 163.424 518.348 163.424ZM556.922 168.704V154.4H560.09V188H556.922V183.296C554.714 186.8 551.498 188.576 547.226 188.576C543.818 188.576 540.89 187.376 538.442 184.928C536.042 182.48 534.842 179.504 534.842 176C534.842 172.496 536.042 169.52 538.442 167.072C540.89 164.624 543.818 163.424 547.226 163.424C551.498 163.424 554.714 165.2 556.922 168.704ZM540.746 182.768C542.57 184.592 544.826 185.504 547.466 185.504C550.106 185.504 552.362 184.592 554.186 182.768C556.01 180.896 556.922 178.64 556.922 176C556.922 173.36 556.01 171.104 554.186 169.28C552.362 167.408 550.106 166.496 547.466 166.496C544.826 166.496 542.57 167.408 540.746 169.28C538.922 171.104 538.01 173.36 538.01 176C538.01 178.64 538.922 180.896 540.746 182.768ZM609.181 163.424C614.557 163.424 618.157 167.12 618.157 173.024V188H614.989V173.024C614.989 168.848 612.637 166.496 609.133 166.496C605.149 166.496 602.461 169.088 602.461 174.704V188H599.293V173.024C599.293 168.8 597.133 166.496 593.677 166.496C589.837 166.496 586.765 169.136 586.765 174.704V188H583.597V164H586.765V167.504C588.493 164.768 590.941 163.424 594.109 163.424C597.565 163.424 600.013 164.864 601.405 167.792C603.133 164.864 605.725 163.424 609.181 163.424ZM646.797 184.976C644.349 187.376 641.373 188.576 637.869 188.576C634.365 188.576 631.341 187.376 628.893 184.976C626.445 182.528 625.245 179.552 625.245 176C625.245 172.448 626.445 169.472 628.893 167.072C631.341 164.624 634.365 163.424 637.869 163.424C641.373 163.424 644.349 164.624 646.797 167.072C649.245 169.472 650.493 172.448 650.493 176C650.493 179.552 649.245 182.528 646.797 184.976ZM631.149 182.768C632.973 184.592 635.229 185.504 637.869 185.504C640.509 185.504 642.765 184.592 644.589 182.768C646.413 180.896 647.325 178.64 647.325 176C647.325 173.36 646.413 171.104 644.589 169.28C642.765 167.408 640.509 166.496 637.869 166.496C635.229 166.496 632.973 167.408 631.149 169.28C629.325 171.104 628.413 173.36 628.413 176C628.413 178.64 629.325 180.896 631.149 182.768ZM675.09 176.576V164H678.258V188H675.09V184.256C673.314 187.136 670.626 188.576 667.026 188.576C661.218 188.576 657.618 184.736 657.618 178.736V164H660.786V178.736C660.786 183.008 663.138 185.504 667.314 185.504C671.922 185.504 675.09 182.672 675.09 176.576ZM698.592 163.424C704.4 163.424 708 167.264 708 173.264V188H704.832V173.264C704.832 168.992 702.48 166.496 698.304 166.496C693.696 166.496 690.528 169.328 690.528 175.424V188H687.36V164H690.528V167.744C692.304 164.864 694.992 163.424 698.592 163.424ZM729.246 164V167.072H722.334V181.616C722.334 185.744 724.638 185.408 729.246 185.216V188C722.526 189.008 719.166 187.184 719.166 181.616V167.072H714.126V164H719.166V158.24L722.334 157.28V164H729.246ZM760.83 184.112L768.606 164H771.966L761.694 190.208C759.822 194.96 756.222 197.936 751.998 197.6V194.624C754.878 194.96 757.086 193.28 758.574 189.632L759.198 188.144L748.446 164H751.806L760.83 184.112ZM798.306 184.976C795.858 187.376 792.882 188.576 789.378 188.576C785.874 188.576 782.85 187.376 780.402 184.976C777.954 182.528 776.754 179.552 776.754 176C776.754 172.448 777.954 169.472 780.402 167.072C782.85 164.624 785.874 163.424 789.378 163.424C792.882 163.424 795.858 164.624 798.306 167.072C800.754 169.472 802.002 172.448 802.002 176C802.002 179.552 800.754 182.528 798.306 184.976ZM782.658 182.768C784.482 184.592 786.738 185.504 789.378 185.504C792.018 185.504 794.274 184.592 796.098 182.768C797.922 180.896 798.834 178.64 798.834 176C798.834 173.36 797.922 171.104 796.098 169.28C794.274 167.408 792.018 166.496 789.378 166.496C786.738 166.496 784.482 167.408 782.658 169.28C780.834 171.104 779.922 173.36 779.922 176C779.922 178.64 780.834 180.896 782.658 182.768ZM826.6 176.576V164H829.768V188H826.6V184.256C824.824 187.136 822.136 188.576 818.536 188.576C812.728 188.576 809.128 184.736 809.128 178.736V164H812.296V178.736C812.296 183.008 814.648 185.504 818.824 185.504C823.432 185.504 826.6 182.672 826.6 176.576ZM842.037 164V167.984C843.525 165.056 846.021 163.616 849.621 163.616V166.688C845.253 166.688 842.037 169.136 842.037 174.656V188H838.869V164H842.037ZM883.627 163.424C887.035 163.424 889.963 164.624 892.363 167.072C894.811 169.52 896.011 172.496 896.011 176C896.011 179.504 894.811 182.48 892.363 184.928C889.963 187.376 887.035 188.576 883.627 188.576C879.355 188.576 876.139 186.8 873.931 183.296V197.6H870.763V164H873.931V168.704C876.139 165.2 879.355 163.424 883.627 163.424ZM876.667 182.768C878.491 184.592 880.747 185.504 883.387 185.504C886.027 185.504 888.283 184.592 890.107 182.768C891.931 180.896 892.843 178.64 892.843 176C892.843 173.36 891.931 171.104 890.107 169.28C888.283 167.408 886.027 166.496 883.387 166.496C880.747 166.496 878.491 167.408 876.667 169.28C874.843 171.104 873.931 173.36 873.931 176C873.931 178.64 874.843 180.896 876.667 182.768ZM914.911 163.424C920.719 163.424 924.319 167.264 924.319 173.264V188H921.151V173.264C921.151 168.992 918.799 166.496 914.623 166.496C910.015 166.496 906.847 169.328 906.847 175.424V188H903.679V154.4H906.847V167.744C908.623 164.864 911.311 163.424 914.911 163.424ZM952.956 184.976C950.508 187.376 947.532 188.576 944.028 188.576C940.524 188.576 937.5 187.376 935.052 184.976C932.604 182.528 931.404 179.552 931.404 176C931.404 172.448 932.604 169.472 935.052 167.072C937.5 164.624 940.524 163.424 944.028 163.424C947.532 163.424 950.508 164.624 952.956 167.072C955.404 169.472 956.652 172.448 956.652 176C956.652 179.552 955.404 182.528 952.956 184.976ZM937.308 182.768C939.132 184.592 941.388 185.504 944.028 185.504C946.668 185.504 948.924 184.592 950.748 182.768C952.572 180.896 953.484 178.64 953.484 176C953.484 173.36 952.572 171.104 950.748 169.28C948.924 167.408 946.668 166.496 944.028 166.496C941.388 166.496 939.132 167.408 937.308 169.28C935.484 171.104 934.572 173.36 934.572 176C934.572 178.64 935.484 180.896 937.308 182.768ZM975.586 163.424C981.394 163.424 984.994 167.264 984.994 173.264V188H981.826V173.264C981.826 168.992 979.474 166.496 975.298 166.496C970.69 166.496 967.522 169.328 967.522 175.424V188H964.354V164H967.522V167.744C969.298 164.864 971.986 163.424 975.586 163.424ZM1004.61 163.424C1008.16 163.424 1011.04 164.672 1013.2 167.216C1015.41 169.712 1016.51 172.688 1016.51 176.096C1016.51 176.432 1016.46 176.96 1016.42 177.584H995.343C995.967 182.432 999.759 185.504 1004.9 185.504C1008.54 185.504 1011.28 183.872 1012.62 181.424L1015.41 183.056C1013.3 186.464 1009.5 188.576 1004.85 188.576C1001.06 188.576 997.983 187.376 995.631 185.024C993.279 182.672 992.079 179.648 992.079 176C992.079 172.4 993.231 169.424 995.583 167.024C997.935 164.624 1000.91 163.424 1004.61 163.424ZM1004.61 166.496C999.615 166.496 995.967 169.76 995.343 174.512H1013.25C1012.91 171.968 1011.95 170 1010.32 168.608C1008.69 167.216 1006.77 166.496 1004.61 166.496ZM78.4611 234.976C76.0131 237.376 73.0371 238.576 69.5331 238.576C66.0291 238.576 63.0051 237.376 60.5571 234.976C58.1091 232.528 56.9091 229.552 56.9091 226C56.9091 222.448 58.1091 219.472 60.5571 217.072C63.0051 214.624 66.0291 213.424 69.5331 213.424C73.0371 213.424 76.0131 214.624 78.4611 217.072C80.9091 219.472 82.1571 222.448 82.1571 226C82.1571 229.552 80.9091 232.528 78.4611 234.976ZM62.8131 232.768C64.6371 234.592 66.8931 235.504 69.5331 235.504C72.1731 235.504 74.4291 234.592 76.2531 232.768C78.0771 230.896 78.9891 228.64 78.9891 226C78.9891 223.36 78.0771 221.104 76.2531 219.28C74.4291 217.408 72.1731 216.496 69.5331 216.496C66.8931 216.496 64.6371 217.408 62.8131 219.28C60.9891 221.104 60.0771 223.36 60.0771 226C60.0771 228.64 60.9891 230.896 62.8131 232.768ZM101.09 213.424C106.898 213.424 110.498 217.264 110.498 223.264V238H107.33V223.264C107.33 218.992 104.978 216.496 100.802 216.496C96.1945 216.496 93.0265 219.328 93.0265 225.424V238H89.8585V214H93.0265V217.744C94.8025 214.864 97.4905 213.424 101.09 213.424ZM154.064 218.704V214H157.232V238H154.064V233.296C151.856 236.8 148.64 238.576 144.368 238.576C140.96 238.576 138.032 237.376 135.584 234.928C133.184 232.48 131.984 229.504 131.984 226C131.984 222.496 133.184 219.52 135.584 217.072C138.032 214.624 140.96 213.424 144.368 213.424C148.64 213.424 151.856 215.2 154.064 218.704ZM137.888 232.768C139.712 234.592 141.968 235.504 144.608 235.504C147.248 235.504 149.504 234.592 151.328 232.768C153.152 230.896 154.064 228.64 154.064 226C154.064 223.36 153.152 221.104 151.328 219.28C149.504 217.408 147.248 216.496 144.608 216.496C141.968 216.496 139.712 217.408 137.888 219.28C136.064 221.104 135.152 223.36 135.152 226C135.152 228.64 136.064 230.896 137.888 232.768ZM193.46 214V217.072H186.548V231.616C186.548 235.744 188.852 235.408 193.46 235.216V238C186.74 239.008 183.38 237.184 183.38 231.616V217.072H178.34V214H183.38V208.24L186.548 207.28V214H193.46ZM204.308 214V217.984C205.796 215.056 208.292 213.616 211.892 213.616V216.688C207.524 216.688 204.308 219.136 204.308 224.656V238H201.14V214H204.308ZM221.849 209.824C220.937 210.736 219.497 210.736 218.585 209.824C217.673 208.912 217.673 207.472 218.585 206.56C219.497 205.648 220.937 205.648 221.849 206.56C222.761 207.472 222.761 208.912 221.849 209.824ZM221.801 238H218.633V214H221.801V238ZM243.788 213.424C247.196 213.424 250.124 214.624 252.524 217.072C254.972 219.52 256.172 222.496 256.172 226C256.172 229.504 254.972 232.48 252.524 234.928C250.124 237.376 247.196 238.576 243.788 238.576C239.516 238.576 236.3 236.8 234.092 233.296V247.6H230.924V214H234.092V218.704C236.3 215.2 239.516 213.424 243.788 213.424ZM236.828 232.768C238.652 234.592 240.908 235.504 243.548 235.504C246.188 235.504 248.444 234.592 250.268 232.768C252.092 230.896 253.004 228.64 253.004 226C253.004 223.36 252.092 221.104 250.268 219.28C248.444 217.408 246.188 216.496 243.548 216.496C240.908 216.496 238.652 217.408 236.828 219.28C235.004 221.104 234.092 223.36 234.092 226C234.092 228.64 235.004 230.896 236.828 232.768ZM283.952 234.976C281.504 237.376 278.528 238.576 275.024 238.576C271.52 238.576 268.496 237.376 266.048 234.976C263.6 232.528 262.4 229.552 262.4 226C262.4 222.448 263.6 219.472 266.048 217.072C268.496 214.624 271.52 213.424 275.024 213.424C278.528 213.424 281.504 214.624 283.952 217.072C286.4 219.472 287.648 222.448 287.648 226C287.648 229.552 286.4 232.528 283.952 234.976ZM268.304 232.768C270.128 234.592 272.384 235.504 275.024 235.504C277.664 235.504 279.92 234.592 281.744 232.768C283.568 230.896 284.48 228.64 284.48 226C284.48 223.36 283.568 221.104 281.744 219.28C279.92 217.408 277.664 216.496 275.024 216.496C272.384 216.496 270.128 217.408 268.304 219.28C266.48 221.104 265.568 223.36 265.568 226C265.568 228.64 266.48 230.896 268.304 232.768ZM315.989 218.704V204.4H319.157V238H315.989V233.296C313.781 236.8 310.565 238.576 306.293 238.576C302.885 238.576 299.957 237.376 297.509 234.928C295.109 232.48 293.909 229.504 293.909 226C293.909 222.496 295.109 219.52 297.509 217.072C299.957 214.624 302.885 213.424 306.293 213.424C310.565 213.424 313.781 215.2 315.989 218.704ZM299.813 232.768C301.637 234.592 303.893 235.504 306.533 235.504C309.173 235.504 311.429 234.592 313.253 232.768C315.077 230.896 315.989 228.64 315.989 226C315.989 223.36 315.077 221.104 313.253 219.28C311.429 217.408 309.173 216.496 306.533 216.496C303.893 216.496 301.637 217.408 299.813 219.28C297.989 221.104 297.077 223.36 297.077 226C297.077 228.64 297.989 230.896 299.813 232.768ZM329.705 233.92H333.545L330.665 244.72H327.785L329.705 233.92ZM367.78 238.576C364.18 238.576 361.156 237.376 358.756 234.976C356.356 232.528 355.156 229.552 355.156 226C355.156 222.448 356.356 219.472 358.756 217.072C361.156 214.624 364.18 213.424 367.78 213.424C372.532 213.424 376.564 215.872 378.292 219.712L375.7 221.2C374.404 218.32 371.38 216.496 367.78 216.496C365.14 216.496 362.884 217.408 361.06 219.28C359.236 221.104 358.324 223.36 358.324 226C358.324 228.64 359.236 230.896 361.06 232.768C362.884 234.592 365.14 235.504 367.78 235.504C371.38 235.504 374.308 233.68 375.892 230.8L378.532 232.336C376.564 236.176 372.436 238.576 367.78 238.576ZM402.376 226.576V214H405.544V238H402.376V234.256C400.6 237.136 397.912 238.576 394.312 238.576C388.504 238.576 384.904 234.736 384.904 228.736V214H388.072V228.736C388.072 233.008 390.424 235.504 394.6 235.504C399.208 235.504 402.376 232.672 402.376 226.576ZM427.51 213.424C430.918 213.424 433.846 214.624 436.246 217.072C438.694 219.52 439.894 222.496 439.894 226C439.894 229.504 438.694 232.48 436.246 234.928C433.846 237.376 430.918 238.576 427.51 238.576C423.238 238.576 420.022 236.8 417.814 233.296V247.6H414.646V214H417.814V218.704C420.022 215.2 423.238 213.424 427.51 213.424ZM420.55 232.768C422.374 234.592 424.63 235.504 427.27 235.504C429.91 235.504 432.166 234.592 433.99 232.768C435.814 230.896 436.726 228.64 436.726 226C436.726 223.36 435.814 221.104 433.99 219.28C432.166 217.408 429.91 216.496 427.27 216.496C424.63 216.496 422.374 217.408 420.55 219.28C418.726 221.104 417.814 223.36 417.814 226C417.814 228.64 418.726 230.896 420.55 232.768ZM447.08 233.92H450.92L448.04 244.72H445.16L447.08 233.92ZM494.083 234.976C491.635 237.376 488.659 238.576 485.155 238.576C481.651 238.576 478.627 237.376 476.179 234.976C473.731 232.528 472.531 229.552 472.531 226C472.531 222.448 473.731 219.472 476.179 217.072C478.627 214.624 481.651 213.424 485.155 213.424C488.659 213.424 491.635 214.624 494.083 217.072C496.531 219.472 497.779 222.448 497.779 226C497.779 229.552 496.531 232.528 494.083 234.976ZM478.435 232.768C480.259 234.592 482.515 235.504 485.155 235.504C487.795 235.504 490.051 234.592 491.875 232.768C493.699 230.896 494.611 228.64 494.611 226C494.611 223.36 493.699 221.104 491.875 219.28C490.051 217.408 487.795 216.496 485.155 216.496C482.515 216.496 480.259 217.408 478.435 219.28C476.611 221.104 475.699 223.36 475.699 226C475.699 228.64 476.611 230.896 478.435 232.768ZM508.648 214V217.984C510.136 215.056 512.632 213.616 516.232 213.616V216.688C511.864 216.688 508.648 219.136 508.648 224.656V238H505.48V214H508.648ZM539.87 220.288C539.87 222.448 542.078 223.648 544.814 224.368C548.846 225.376 553.886 226.48 553.886 231.664C553.886 233.728 553.07 235.36 551.438 236.656C549.854 237.952 547.742 238.576 545.198 238.576C540.59 238.576 537.23 236.32 535.934 233.056L538.622 231.472C539.534 233.968 541.982 235.504 545.198 235.504C548.318 235.504 550.718 234.304 550.718 231.664C550.718 229.504 548.51 228.304 545.774 227.584C541.742 226.576 536.702 225.472 536.702 220.288C536.702 218.32 537.47 216.688 539.006 215.392C540.59 214.096 542.558 213.424 544.91 213.424C548.798 213.424 551.918 215.296 553.31 218.32L550.67 219.856C549.758 217.6 547.838 216.496 544.91 216.496C542.174 216.496 539.87 217.84 539.87 220.288ZM573.353 214V217.072H566.441V231.616C566.441 235.744 568.745 235.408 573.353 235.216V238C566.633 239.008 563.273 237.184 563.273 231.616V217.072H558.233V214H563.273V208.24L566.441 207.28V214H573.353ZM600.22 218.704V214H603.388V238H600.22V233.296C598.012 236.8 594.796 238.576 590.524 238.576C587.116 238.576 584.188 237.376 581.74 234.928C579.34 232.48 578.14 229.504 578.14 226C578.14 222.496 579.34 219.52 581.74 217.072C584.188 214.624 587.116 213.424 590.524 213.424C594.796 213.424 598.012 215.2 600.22 218.704ZM584.044 232.768C585.868 234.592 588.124 235.504 590.764 235.504C593.404 235.504 595.66 234.592 597.484 232.768C599.308 230.896 600.22 228.64 600.22 226C600.22 223.36 599.308 221.104 597.484 219.28C595.66 217.408 593.404 216.496 590.764 216.496C588.124 216.496 585.868 217.408 584.044 219.28C582.22 221.104 581.308 223.36 581.308 226C581.308 228.64 582.22 230.896 584.044 232.768ZM623.68 238.576C620.08 238.576 617.056 237.376 614.656 234.976C612.256 232.528 611.056 229.552 611.056 226C611.056 222.448 612.256 219.472 614.656 217.072C617.056 214.624 620.08 213.424 623.68 213.424C628.432 213.424 632.464 215.872 634.192 219.712L631.6 221.2C630.304 218.32 627.28 216.496 623.68 216.496C621.04 216.496 618.784 217.408 616.96 219.28C615.136 221.104 614.224 223.36 614.224 226C614.224 228.64 615.136 230.896 616.96 232.768C618.784 234.592 621.04 235.504 623.68 235.504C627.28 235.504 630.208 233.68 631.792 230.8L634.432 232.336C632.464 236.176 628.336 238.576 623.68 238.576ZM647.908 225.52L660.772 238H656.548L644.548 226.432V238H641.38V204.4H644.548V224.608L655.972 214H660.292L647.908 225.52ZM702.011 234.976C699.563 237.376 696.587 238.576 693.083 238.576C689.579 238.576 686.555 237.376 684.107 234.976C681.659 232.528 680.459 229.552 680.459 226C680.459 222.448 681.659 219.472 684.107 217.072C686.555 214.624 689.579 213.424 693.083 213.424C696.587 213.424 699.563 214.624 702.011 217.072C704.459 219.472 705.707 222.448 705.707 226C705.707 229.552 704.459 232.528 702.011 234.976ZM686.363 232.768C688.187 234.592 690.443 235.504 693.083 235.504C695.723 235.504 697.979 234.592 699.803 232.768C701.627 230.896 702.539 228.64 702.539 226C702.539 223.36 701.627 221.104 699.803 219.28C697.979 217.408 695.723 216.496 693.083 216.496C690.443 216.496 688.187 217.408 686.363 219.28C684.539 221.104 683.627 223.36 683.627 226C683.627 228.64 684.539 230.896 686.363 232.768ZM724.471 203.824V206.896C719.815 206.512 717.559 208.432 717.559 213.04V214H724.471V217.072H717.559V238H714.391V217.072H710.311V214H714.391V213.04C714.391 206.752 717.991 203.392 724.471 203.824ZM757.51 213.424C760.918 213.424 763.846 214.624 766.246 217.072C768.694 219.52 769.894 222.496 769.894 226C769.894 229.504 768.694 232.48 766.246 234.928C763.846 237.376 760.918 238.576 757.51 238.576C753.238 238.576 750.022 236.8 747.814 233.296V238H744.646V204.4H747.814V218.704C750.022 215.2 753.238 213.424 757.51 213.424ZM750.55 232.768C752.374 234.592 754.63 235.504 757.27 235.504C759.91 235.504 762.166 234.592 763.99 232.768C765.814 230.896 766.726 228.64 766.726 226C766.726 223.36 765.814 221.104 763.99 219.28C762.166 217.408 759.91 216.496 757.27 216.496C754.63 216.496 752.374 217.408 750.55 219.28C748.726 221.104 747.814 223.36 747.814 226C747.814 228.64 748.726 230.896 750.55 232.768ZM797.674 234.976C795.226 237.376 792.25 238.576 788.746 238.576C785.242 238.576 782.218 237.376 779.77 234.976C777.322 232.528 776.122 229.552 776.122 226C776.122 222.448 777.322 219.472 779.77 217.072C782.218 214.624 785.242 213.424 788.746 213.424C792.25 213.424 795.226 214.624 797.674 217.072C800.122 219.472 801.37 222.448 801.37 226C801.37 229.552 800.122 232.528 797.674 234.976ZM782.026 232.768C783.85 234.592 786.106 235.504 788.746 235.504C791.386 235.504 793.642 234.592 795.466 232.768C797.29 230.896 798.202 228.64 798.202 226C798.202 223.36 797.29 221.104 795.466 219.28C793.642 217.408 791.386 216.496 788.746 216.496C786.106 216.496 783.85 217.408 782.026 219.28C780.202 221.104 779.29 223.36 779.29 226C779.29 228.64 780.202 230.896 782.026 232.768ZM829.183 234.976C826.735 237.376 823.759 238.576 820.255 238.576C816.751 238.576 813.727 237.376 811.279 234.976C808.831 232.528 807.631 229.552 807.631 226C807.631 222.448 808.831 219.472 811.279 217.072C813.727 214.624 816.751 213.424 820.255 213.424C823.759 213.424 826.735 214.624 829.183 217.072C831.631 219.472 832.879 222.448 832.879 226C832.879 229.552 831.631 232.528 829.183 234.976ZM813.535 232.768C815.359 234.592 817.615 235.504 820.255 235.504C822.895 235.504 825.151 234.592 826.975 232.768C828.799 230.896 829.711 228.64 829.711 226C829.711 223.36 828.799 221.104 826.975 219.28C825.151 217.408 822.895 216.496 820.255 216.496C817.615 216.496 815.359 217.408 813.535 219.28C811.711 221.104 810.799 223.36 810.799 226C810.799 228.64 811.711 230.896 813.535 232.768ZM847.108 225.52L859.972 238H855.748L843.748 226.432V238H840.58V204.4H843.748V224.608L855.172 214H859.492L847.108 225.52ZM867.273 220.288C867.273 222.448 869.481 223.648 872.217 224.368C876.249 225.376 881.289 226.48 881.289 231.664C881.289 233.728 880.473 235.36 878.841 236.656C877.257 237.952 875.145 238.576 872.601 238.576C867.993 238.576 864.633 236.32 863.337 233.056L866.025 231.472C866.937 233.968 869.385 235.504 872.601 235.504C875.721 235.504 878.121 234.304 878.121 231.664C878.121 229.504 875.913 228.304 873.177 227.584C869.145 226.576 864.105 225.472 864.105 220.288C864.105 218.32 864.873 216.688 866.409 215.392C867.993 214.096 869.961 213.424 872.313 213.424C876.201 213.424 879.321 215.296 880.713 218.32L878.073 219.856C877.161 217.6 875.241 216.496 872.313 216.496C869.577 216.496 867.273 217.84 867.273 220.288ZM924.014 218.704V214H927.182V238H924.014V233.296C921.806 236.8 918.59 238.576 914.318 238.576C910.91 238.576 907.982 237.376 905.534 234.928C903.134 232.48 901.934 229.504 901.934 226C901.934 222.496 903.134 219.52 905.534 217.072C907.982 214.624 910.91 213.424 914.318 213.424C918.59 213.424 921.806 215.2 924.014 218.704ZM907.838 232.768C909.662 234.592 911.918 235.504 914.558 235.504C917.198 235.504 919.454 234.592 921.278 232.768C923.102 230.896 924.014 228.64 924.014 226C924.014 223.36 923.102 221.104 921.278 219.28C919.454 217.408 917.198 216.496 914.558 216.496C911.918 216.496 909.662 217.408 907.838 219.28C906.014 221.104 905.102 223.36 905.102 226C905.102 228.64 906.014 230.896 907.838 232.768ZM947.522 213.424C953.33 213.424 956.93 217.264 956.93 223.264V238H953.762V223.264C953.762 218.992 951.41 216.496 947.234 216.496C942.626 216.496 939.458 219.328 939.458 225.424V238H936.29V214H939.458V217.744C941.234 214.864 943.922 213.424 947.522 213.424ZM986.095 218.704V204.4H989.263V238H986.095V233.296C983.887 236.8 980.671 238.576 976.399 238.576C972.991 238.576 970.063 237.376 967.615 234.928C965.215 232.48 964.015 229.504 964.015 226C964.015 222.496 965.215 219.52 967.615 217.072C970.063 214.624 972.991 213.424 976.399 213.424C980.671 213.424 983.887 215.2 986.095 218.704ZM969.919 232.768C971.743 234.592 973.999 235.504 976.639 235.504C979.279 235.504 981.535 234.592 983.359 232.768C985.183 230.896 986.095 228.64 986.095 226C986.095 223.36 985.183 221.104 983.359 219.28C981.535 217.408 979.279 216.496 976.639 216.496C973.999 216.496 971.743 217.408 969.919 219.28C968.095 221.104 967.183 223.36 967.183 226C967.183 228.64 968.095 230.896 969.919 232.768ZM45.8083 275.52L58.6723 288H54.4483L42.4483 276.432V288H39.2803V254.4H42.4483V274.608L53.8723 264H58.1923L45.8083 275.52ZM76.4871 263.424C80.0391 263.424 82.9191 264.672 85.0791 267.216C87.2871 269.712 88.3911 272.688 88.3911 276.096C88.3911 276.432 88.3431 276.96 88.2951 277.584H67.2231C67.8471 282.432 71.6391 285.504 76.7751 285.504C80.4231 285.504 83.1591 283.872 84.5031 281.424L87.2871 283.056C85.1751 286.464 81.3831 288.576 76.7271 288.576C72.9351 288.576 69.8631 287.376 67.5111 285.024C65.1591 282.672 63.9591 279.648 63.9591 276C63.9591 272.4 65.1111 269.424 67.4631 267.024C69.8151 264.624 72.7911 263.424 76.4871 263.424ZM76.4871 266.496C71.4951 266.496 67.8471 269.76 67.2231 274.512H85.1271C84.7911 271.968 83.8311 270 82.1991 268.608C80.5671 267.216 78.6471 266.496 76.4871 266.496ZM106.918 263.424C110.47 263.424 113.35 264.672 115.51 267.216C117.718 269.712 118.822 272.688 118.822 276.096C118.822 276.432 118.774 276.96 118.726 277.584H97.6543C98.2783 282.432 102.07 285.504 107.206 285.504C110.854 285.504 113.59 283.872 114.934 281.424L117.718 283.056C115.606 286.464 111.814 288.576 107.158 288.576C103.366 288.576 100.294 287.376 97.9423 285.024C95.5903 282.672 94.3903 279.648 94.3903 276C94.3903 272.4 95.5423 269.424 97.8943 267.024C100.246 264.624 103.222 263.424 106.918 263.424ZM106.918 266.496C101.926 266.496 98.2783 269.76 97.6543 274.512H115.558C115.222 271.968 114.262 270 112.63 268.608C110.998 267.216 109.078 266.496 106.918 266.496ZM139.126 263.424C142.534 263.424 145.462 264.624 147.862 267.072C150.31 269.52 151.51 272.496 151.51 276C151.51 279.504 150.31 282.48 147.862 284.928C145.462 287.376 142.534 288.576 139.126 288.576C134.854 288.576 131.638 286.8 129.43 283.296V297.6H126.262V264H129.43V268.704C131.638 265.2 134.854 263.424 139.126 263.424ZM132.166 282.768C133.99 284.592 136.246 285.504 138.886 285.504C141.526 285.504 143.782 284.592 145.606 282.768C147.43 280.896 148.342 278.64 148.342 276C148.342 273.36 147.43 271.104 145.606 269.28C143.782 267.408 141.526 266.496 138.886 266.496C136.246 266.496 133.99 267.408 132.166 269.28C130.342 271.104 129.43 273.36 129.43 276C129.43 278.64 130.342 280.896 132.166 282.768ZM186.297 264V267.072H179.385V281.616C179.385 285.744 181.689 285.408 186.297 285.216V288C179.577 289.008 176.217 287.184 176.217 281.616V267.072H171.177V264H176.217V258.24L179.385 257.28V264H186.297ZM205.209 263.424C211.017 263.424 214.617 267.264 214.617 273.264V288H211.449V273.264C211.449 268.992 209.097 266.496 204.921 266.496C200.313 266.496 197.145 269.328 197.145 275.424V288H193.977V254.4H197.145V267.744C198.921 264.864 201.609 263.424 205.209 263.424ZM234.231 263.424C237.783 263.424 240.663 264.672 242.823 267.216C245.031 269.712 246.135 272.688 246.135 276.096C246.135 276.432 246.087 276.96 246.039 277.584H224.967C225.591 282.432 229.383 285.504 234.519 285.504C238.167 285.504 240.903 283.872 242.247 281.424L245.031 283.056C242.919 286.464 239.127 288.576 234.471 288.576C230.679 288.576 227.607 287.376 225.255 285.024C222.903 282.672 221.703 279.648 221.703 276C221.703 272.4 222.855 269.424 225.207 267.024C227.559 264.624 230.535 263.424 234.231 263.424ZM234.231 266.496C229.239 266.496 225.591 269.76 224.967 274.512H242.871C242.535 271.968 241.575 270 239.943 268.608C238.311 267.216 236.391 266.496 234.231 266.496ZM280.838 263.424C284.246 263.424 287.174 264.624 289.574 267.072C292.022 269.52 293.222 272.496 293.222 276C293.222 279.504 292.022 282.48 289.574 284.928C287.174 287.376 284.246 288.576 280.838 288.576C276.566 288.576 273.35 286.8 271.142 283.296V297.6H267.974V264H271.142V268.704C273.35 265.2 276.566 263.424 280.838 263.424ZM273.878 282.768C275.702 284.592 277.958 285.504 280.598 285.504C283.238 285.504 285.494 284.592 287.318 282.768C289.142 280.896 290.054 278.64 290.054 276C290.054 273.36 289.142 271.104 287.318 269.28C285.494 267.408 283.238 266.496 280.598 266.496C277.958 266.496 275.702 267.408 273.878 269.28C272.054 271.104 271.142 273.36 271.142 276C271.142 278.64 272.054 280.896 273.878 282.768ZM312.122 263.424C317.93 263.424 321.53 267.264 321.53 273.264V288H318.362V273.264C318.362 268.992 316.01 266.496 311.834 266.496C307.226 266.496 304.058 269.328 304.058 275.424V288H300.89V254.4H304.058V267.744C305.834 264.864 308.522 263.424 312.122 263.424ZM350.167 284.976C347.719 287.376 344.743 288.576 341.239 288.576C337.735 288.576 334.711 287.376 332.263 284.976C329.815 282.528 328.615 279.552 328.615 276C328.615 272.448 329.815 269.472 332.263 267.072C334.711 264.624 337.735 263.424 341.239 263.424C344.743 263.424 347.719 264.624 350.167 267.072C352.615 269.472 353.863 272.448 353.863 276C353.863 279.552 352.615 282.528 350.167 284.976ZM334.519 282.768C336.343 284.592 338.599 285.504 341.239 285.504C343.879 285.504 346.135 284.592 347.959 282.768C349.783 280.896 350.695 278.64 350.695 276C350.695 273.36 349.783 271.104 347.959 269.28C346.135 267.408 343.879 266.496 341.239 266.496C338.599 266.496 336.343 267.408 334.519 269.28C332.695 271.104 331.783 273.36 331.783 276C331.783 278.64 332.695 280.896 334.519 282.768ZM372.797 263.424C378.605 263.424 382.205 267.264 382.205 273.264V288H379.037V273.264C379.037 268.992 376.685 266.496 372.509 266.496C367.901 266.496 364.733 269.328 364.733 275.424V288H361.565V264H364.733V267.744C366.509 264.864 369.197 263.424 372.797 263.424ZM401.818 263.424C405.37 263.424 408.25 264.672 410.41 267.216C412.618 269.712 413.722 272.688 413.722 276.096C413.722 276.432 413.674 276.96 413.626 277.584H392.554C393.178 282.432 396.97 285.504 402.106 285.504C405.754 285.504 408.49 283.872 409.834 281.424L412.618 283.056C410.506 286.464 406.714 288.576 402.058 288.576C398.266 288.576 395.194 287.376 392.842 285.024C390.49 282.672 389.29 279.648 389.29 276C389.29 272.4 390.442 269.424 392.794 267.024C395.146 264.624 398.122 263.424 401.818 263.424ZM401.818 266.496C396.826 266.496 393.178 269.76 392.554 274.512H410.458C410.122 271.968 409.162 270 407.53 268.608C405.898 267.216 403.978 266.496 401.818 266.496ZM438.058 270.288C438.058 272.448 440.266 273.648 443.002 274.368C447.034 275.376 452.074 276.48 452.074 281.664C452.074 283.728 451.258 285.36 449.626 286.656C448.042 287.952 445.93 288.576 443.386 288.576C438.778 288.576 435.418 286.32 434.122 283.056L436.81 281.472C437.722 283.968 440.17 285.504 443.386 285.504C446.506 285.504 448.906 284.304 448.906 281.664C448.906 279.504 446.698 278.304 443.962 277.584C439.93 276.576 434.89 275.472 434.89 270.288C434.89 268.32 435.658 266.688 437.194 265.392C438.778 264.096 440.746 263.424 443.098 263.424C446.986 263.424 450.106 265.296 451.498 268.32L448.858 269.856C447.946 267.6 446.026 266.496 443.098 266.496C440.362 266.496 438.058 267.84 438.058 270.288ZM471.541 264V267.072H464.629V281.616C464.629 285.744 466.933 285.408 471.541 285.216V288C464.821 289.008 461.461 287.184 461.461 281.616V267.072H456.421V264H461.461V258.24L464.629 257.28V264H471.541ZM490.309 263.424C493.861 263.424 496.741 264.672 498.901 267.216C501.109 269.712 502.213 272.688 502.213 276.096C502.213 276.432 502.165 276.96 502.117 277.584H481.045C481.669 282.432 485.461 285.504 490.597 285.504C494.245 285.504 496.981 283.872 498.325 281.424L501.109 283.056C498.997 286.464 495.205 288.576 490.549 288.576C486.757 288.576 483.685 287.376 481.333 285.024C478.981 282.672 477.781 279.648 477.781 276C477.781 272.4 478.933 269.424 481.285 267.024C483.637 264.624 486.613 263.424 490.309 263.424ZM490.309 266.496C485.317 266.496 481.669 269.76 481.045 274.512H498.949C498.613 271.968 497.653 270 496.021 268.608C494.389 267.216 492.469 266.496 490.309 266.496ZM530.292 268.704V264H533.46V288H530.292V283.296C528.084 286.8 524.868 288.576 520.596 288.576C517.188 288.576 514.26 287.376 511.812 284.928C509.412 282.48 508.212 279.504 508.212 276C508.212 272.496 509.412 269.52 511.812 267.072C514.26 264.624 517.188 263.424 520.596 263.424C524.868 263.424 528.084 265.2 530.292 268.704ZM514.116 282.768C515.94 284.592 518.196 285.504 520.836 285.504C523.476 285.504 525.732 284.592 527.556 282.768C529.38 280.896 530.292 278.64 530.292 276C530.292 273.36 529.38 271.104 527.556 269.28C525.732 267.408 523.476 266.496 520.836 266.496C518.196 266.496 515.94 267.408 514.116 269.28C512.292 271.104 511.38 273.36 511.38 276C511.38 278.64 512.292 280.896 514.116 282.768ZM563.208 268.704V254.4H566.376V288H563.208V283.296C561 286.8 557.784 288.576 553.512 288.576C550.104 288.576 547.176 287.376 544.728 284.928C542.328 282.48 541.128 279.504 541.128 276C541.128 272.496 542.328 269.52 544.728 267.072C547.176 264.624 550.104 263.424 553.512 263.424C557.784 263.424 561 265.2 563.208 268.704ZM547.032 282.768C548.856 284.592 551.112 285.504 553.752 285.504C556.392 285.504 558.648 284.592 560.472 282.768C562.296 280.896 563.208 278.64 563.208 276C563.208 273.36 562.296 271.104 560.472 269.28C558.648 267.408 556.392 266.496 553.752 266.496C551.112 266.496 548.856 267.408 547.032 269.28C545.208 271.104 544.296 273.36 544.296 276C544.296 278.64 545.208 280.896 547.032 282.768ZM584.987 284.112L592.763 264H596.123L585.851 290.208C583.979 294.96 580.379 297.936 576.155 297.6V294.624C579.035 294.96 581.243 293.28 582.731 289.632L583.355 288.144L572.603 264H575.963L584.987 284.112ZM639.744 283.92L645.648 264H648.912L641.52 288H638.064L631.872 268.656L625.68 288H622.224L614.832 264H618.096L624 283.92L630.288 264H633.456L639.744 283.92ZM667.322 263.424C673.13 263.424 676.73 267.264 676.73 273.264V288H673.562V273.264C673.562 268.992 671.21 266.496 667.034 266.496C662.426 266.496 659.258 269.328 659.258 275.424V288H656.09V254.4H659.258V267.744C661.034 264.864 663.722 263.424 667.322 263.424ZM688.471 259.824C687.559 260.736 686.119 260.736 685.207 259.824C684.295 258.912 684.295 257.472 685.207 256.56C686.119 255.648 687.559 255.648 688.471 256.56C689.383 257.472 689.383 258.912 688.471 259.824ZM688.423 288H685.255V264H688.423V288ZM700.714 288H697.546V252.96H700.714V288ZM720.925 263.424C724.477 263.424 727.357 264.672 729.517 267.216C731.725 269.712 732.829 272.688 732.829 276.096C732.829 276.432 732.781 276.96 732.733 277.584H711.661C712.285 282.432 716.077 285.504 721.213 285.504C724.861 285.504 727.597 283.872 728.941 281.424L731.725 283.056C729.613 286.464 725.821 288.576 721.165 288.576C717.373 288.576 714.301 287.376 711.949 285.024C709.597 282.672 708.397 279.648 708.397 276C708.397 272.4 709.549 269.424 711.901 267.024C714.253 264.624 717.229 263.424 720.925 263.424ZM720.925 266.496C715.933 266.496 712.285 269.76 711.661 274.512H729.565C729.229 271.968 728.269 270 726.637 268.608C725.005 267.216 723.085 266.496 720.925 266.496ZM764.172 284.112L771.948 264H775.308L765.036 290.208C763.164 294.96 759.564 297.936 755.34 297.6V294.624C758.22 294.96 760.428 293.28 761.916 289.632L762.54 288.144L751.788 264H755.148L764.172 284.112ZM801.649 284.976C799.201 287.376 796.225 288.576 792.721 288.576C789.217 288.576 786.193 287.376 783.745 284.976C781.297 282.528 780.097 279.552 780.097 276C780.097 272.448 781.297 269.472 783.745 267.072C786.193 264.624 789.217 263.424 792.721 263.424C796.225 263.424 799.201 264.624 801.649 267.072C804.097 269.472 805.345 272.448 805.345 276C805.345 279.552 804.097 282.528 801.649 284.976ZM786.001 282.768C787.825 284.592 790.081 285.504 792.721 285.504C795.361 285.504 797.617 284.592 799.441 282.768C801.265 280.896 802.177 278.64 802.177 276C802.177 273.36 801.265 271.104 799.441 269.28C797.617 267.408 795.361 266.496 792.721 266.496C790.081 266.496 787.825 267.408 786.001 269.28C784.177 271.104 783.265 273.36 783.265 276C783.265 278.64 784.177 280.896 786.001 282.768ZM829.942 276.576V264H833.11V288H829.942V284.256C828.166 287.136 825.478 288.576 821.878 288.576C816.07 288.576 812.47 284.736 812.47 278.736V264H815.638V278.736C815.638 283.008 817.99 285.504 822.166 285.504C826.774 285.504 829.942 282.672 829.942 276.576ZM879.604 283.92L885.508 264H888.772L881.38 288H877.924L871.732 268.656L865.54 288H862.084L854.692 264H857.956L863.86 283.92L870.148 264H873.316L879.604 283.92ZM915.652 268.704V264H918.82V288H915.652V283.296C913.444 286.8 910.228 288.576 905.956 288.576C902.548 288.576 899.62 287.376 897.172 284.928C894.772 282.48 893.572 279.504 893.572 276C893.572 272.496 894.772 269.52 897.172 267.072C899.62 264.624 902.548 263.424 905.956 263.424C910.228 263.424 913.444 265.2 915.652 268.704ZM899.476 282.768C901.3 284.592 903.556 285.504 906.196 285.504C908.836 285.504 911.092 284.592 912.916 282.768C914.74 280.896 915.652 278.64 915.652 276C915.652 273.36 914.74 271.104 912.916 269.28C911.092 267.408 908.836 266.496 906.196 266.496C903.556 266.496 901.3 267.408 899.476 269.28C897.652 271.104 896.74 273.36 896.74 276C896.74 278.64 897.652 280.896 899.476 282.768ZM940.647 264V267.072H933.735V281.616C933.735 285.744 936.039 285.408 940.647 285.216V288C933.927 289.008 930.567 287.184 930.567 281.616V267.072H925.527V264H930.567V258.24L933.735 257.28V264H940.647ZM959.511 288.576C955.911 288.576 952.887 287.376 950.487 284.976C948.087 282.528 946.887 279.552 946.887 276C946.887 272.448 948.087 269.472 950.487 267.072C952.887 264.624 955.911 263.424 959.511 263.424C964.263 263.424 968.295 265.872 970.023 269.712L967.431 271.2C966.135 268.32 963.111 266.496 959.511 266.496C956.871 266.496 954.615 267.408 952.791 269.28C950.967 271.104 950.055 273.36 950.055 276C950.055 278.64 950.967 280.896 952.791 282.768C954.615 284.592 956.871 285.504 959.511 285.504C963.111 285.504 966.039 283.68 967.623 280.8L970.263 282.336C968.295 286.176 964.167 288.576 959.511 288.576ZM988.444 263.424C994.252 263.424 997.852 267.264 997.852 273.264V288H994.684V273.264C994.684 268.992 992.332 266.496 988.156 266.496C983.548 266.496 980.38 269.328 980.38 275.424V288H977.212V254.4H980.38V267.744C982.156 264.864 984.844 263.424 988.444 263.424ZM1010.41 287.712C1009.4 288.72 1007.67 288.72 1006.67 287.712C1005.66 286.704 1005.66 284.976 1006.67 283.968C1007.67 282.96 1009.4 282.96 1010.41 283.968C1011.42 284.976 1011.42 286.704 1010.41 287.712Z" fill="white"/>
<defs>
<filter id="filter0_d_298_38097" x="111.252" y="18.824" width="827.594" height="106.968" filterUnits="userSpaceOnUse" color-interpolation-filters="sRGB">
<feFlood flood-opacity="0" result="BackgroundImageFix"/>
<feColorMatrix in="SourceAlpha" type="matrix" values="0 0 0 0 0 0 0 0 0 0 0 0 0 0 0 0 0 0 127 0" result="hardAlpha"/>
<feOffset dy="12"/>
<feGaussianBlur stdDeviation="12"/>
<feComposite in2="hardAlpha" operator="out"/>
<feColorMatrix type="matrix" values="0 0 0 0 0 0 0 0 0 0 0 0 0 0 0 0 0 0 1 0"/>
<feBlend mode="normal" in2="BackgroundImageFix" result="effect1_dropShadow_298_38097"/>
<feBlend mode="normal" in="SourceGraphic" in2="effect1_dropShadow_298_38097" result="shape"/>
</filter>
<linearGradient id="paint0_linear_298_38097" x1="135" y1="63.5" x2="915" y2="63.5" gradientUnits="userSpaceOnUse">
<stop stop-color="#EC4899"/>
<stop offset="0.505208" stop-color="#EF4444"/>
<stop offset="1" stop-color="#EAB308"/>
</linearGradient>
</defs>
</svg>
