<svg width="1050" height="250" viewBox="0 0 1050 250" fill="none" xmlns="http://www.w3.org/2000/svg">
<g filter="url(#filter0_d_298_37614)">
<path d="M284.174 58.76C284.174 58.952 284.174 59.144 284.174 59.336C284.222 59.528 284.246 59.72 284.246 59.912C284.246 63.752 283.454 67.472 281.87 71.072C280.334 74.672 278.174 77.816 275.39 80.504C272.558 83.24 269.438 85.352 266.03 86.84C262.622 88.28 258.974 89 255.086 89C253.646 89 252.254 89 250.91 89C249.614 89 248.318 88.976 247.022 88.928C244.334 88.88 241.526 88.736 238.598 88.496C234.278 88.064 231.374 86.144 229.886 82.736C229.646 82.208 229.454 81.368 229.31 80.216C229.166 79.064 229.046 77.72 228.95 76.184C228.854 74.648 228.782 72.992 228.734 71.216C228.686 69.44 228.662 67.64 228.662 65.816C228.662 64.184 228.638 62.384 228.59 60.416C228.542 58.4 228.518 56.336 228.518 54.224C228.566 52.112 228.614 50.024 228.662 47.96C228.758 45.848 228.926 43.904 229.166 42.128C229.406 40.304 229.742 38.72 230.174 37.376C230.606 35.984 231.182 34.928 231.902 34.208C232.622 33.488 233.462 32.912 234.422 32.48C235.382 32.048 236.438 31.712 237.59 31.472C238.742 31.232 239.942 31.064 241.19 30.968C242.486 30.872 243.758 30.824 245.006 30.824C250.334 30.824 255.374 31.328 260.126 32.336C264.878 33.344 269.03 34.976 272.582 37.232C276.134 39.44 278.942 42.32 281.006 45.872C283.07 49.376 284.102 53.672 284.102 58.76H284.174ZM258.902 53.72C258.902 52.856 258.71 52.16 258.326 51.632C257.99 51.104 257.558 50.72 257.03 50.48C256.502 50.192 255.926 50.024 255.302 49.976C254.678 49.88 254.078 49.832 253.502 49.832C252.59 49.832 251.966 50.048 251.63 50.48C251.39 50.816 251.222 51.248 251.126 51.776C251.03 52.304 250.982 52.88 250.982 53.504C250.982 54.272 251.03 54.992 251.126 55.664C251.222 56.336 251.318 56.792 251.414 57.032C251.606 57.416 251.942 57.704 252.422 57.896C252.902 58.04 253.43 58.112 254.006 58.112C254.534 58.112 255.086 58.04 255.662 57.896C256.238 57.752 256.766 57.512 257.246 57.176C257.726 56.84 258.11 56.336 258.398 55.664C258.734 54.992 258.902 54.344 258.902 53.72ZM307.892 53.576C307.988 54.152 308.228 54.56 308.612 54.8C308.996 55.04 309.404 55.16 309.836 55.16C310.364 55.16 310.868 54.992 311.348 54.656C311.876 54.32 312.14 53.84 312.14 53.216C312.14 53.12 312.092 52.88 311.996 52.496C311.66 51.584 311.036 51.128 310.124 51.128C309.596 51.128 309.092 51.32 308.612 51.704C308.132 52.04 307.892 52.52 307.892 53.144V53.576ZM313.508 37.736C317.204 38.072 320.54 38.84 323.516 40.04C326.54 41.24 328.916 43.064 330.644 45.512C332.324 47.912 333.164 50.648 333.164 53.72C333.164 55.112 332.996 56.408 332.66 57.608C332.276 59.096 331.652 60.512 330.788 61.856C329.972 63.152 328.964 64.28 327.764 65.24C329.012 66.824 330.188 68.696 331.292 70.856C332.444 72.968 333.092 75.176 333.236 77.48V78.344C333.236 81.032 332.492 83.36 331.004 85.328C329.564 87.296 327.716 88.52 325.46 89C324.74 89.144 324.068 89.216 323.444 89.216C321.428 89.216 319.652 88.688 318.116 87.632C316.58 86.528 315.38 85.352 314.516 84.104C313.412 82.568 312.644 80.864 312.212 78.992C311.78 77.12 311.54 75.224 311.492 73.304C311.492 72.632 311.444 72.008 311.348 71.432C311.252 70.856 310.988 70.424 310.556 70.136C310.316 69.992 310.124 69.92 309.98 69.92C309.644 69.92 309.404 70.112 309.26 70.496C309.116 70.832 309.044 71.192 309.044 71.576C309.044 72.536 309.092 73.472 309.188 74.384C309.332 75.248 309.404 76.136 309.404 77.048C309.404 77.24 309.38 77.408 309.332 77.552C309.332 77.696 309.332 77.864 309.332 78.056C309.236 80.36 308.612 82.424 307.46 84.248C306.356 86.072 304.892 87.392 303.068 88.208C301.676 88.784 300.356 89.072 299.108 89.072C297.188 89.072 295.436 88.568 293.852 87.56C292.316 86.504 291.14 85.304 290.324 83.96C289.364 82.376 288.716 80.648 288.38 78.776C288.092 76.904 287.924 75.032 287.876 73.16V71.576C287.876 69.368 287.924 67.184 288.02 65.024C288.116 62.864 288.212 60.68 288.308 58.472C288.356 56.84 288.404 55.208 288.452 53.576C288.548 51.944 288.836 50.36 289.316 48.824C289.844 47.096 290.636 45.488 291.692 44C292.796 42.512 294.116 41.288 295.652 40.328C297.332 39.32 299.3 38.6 301.556 38.168C303.86 37.736 306.284 37.52 308.828 37.52C310.364 37.52 311.924 37.592 313.508 37.736ZM383.641 73.88C383.641 74.216 383.665 74.672 383.713 75.248C383.761 75.824 383.785 76.448 383.785 77.12C383.785 78.272 383.689 79.544 383.497 80.936C383.305 82.328 382.897 83.624 382.273 84.824C381.649 86.024 380.737 87.032 379.537 87.848C378.337 88.616 376.729 89 374.713 89C372.937 89 371.497 88.76 370.393 88.28C369.289 87.8 368.377 87.104 367.657 86.192C366.937 85.232 366.361 84.08 365.929 82.736C365.497 81.392 365.065 79.832 364.633 78.056C363.337 78.2 361.993 78.272 360.601 78.272C359.785 78.272 358.969 78.248 358.153 78.2C357.385 78.152 356.593 78.08 355.777 77.984C355.489 79.904 355.153 81.56 354.769 82.952C354.433 84.344 353.929 85.496 353.257 86.408C352.585 87.272 351.649 87.92 350.449 88.352C349.249 88.784 347.641 89 345.625 89C343.465 89 341.761 88.544 340.513 87.632C339.265 86.72 338.329 85.592 337.705 84.248C337.081 82.904 336.673 81.488 336.481 80C336.337 78.512 336.265 77.216 336.265 76.112V74.024C336.265 66.728 336.865 60.704 338.065 55.952C339.265 51.152 340.849 47.36 342.817 44.576C344.833 41.792 347.137 39.848 349.729 38.744C352.321 37.64 355.009 37.088 357.793 37.088C361.345 37.088 364.681 37.568 367.801 38.528C370.969 39.488 373.705 41.312 376.009 44C378.361 46.688 380.209 50.432 381.553 55.232C382.945 59.984 383.641 66.2 383.641 73.88ZM363.337 61.424C363.001 59.264 362.521 57.632 361.897 56.528C361.273 55.424 360.601 54.872 359.881 54.872C359.209 54.872 358.561 55.4 357.937 56.456C357.313 57.512 356.857 59.12 356.569 61.28C356.569 61.808 356.857 62.168 357.433 62.36C358.009 62.552 358.681 62.648 359.449 62.648C360.409 62.648 361.297 62.528 362.113 62.288C362.929 62.048 363.337 61.76 363.337 61.424ZM421.908 55.88C422.1 55.88 422.292 55.616 422.484 55.088C422.724 54.56 422.916 53.888 423.06 53.072C423.252 52.208 423.42 51.296 423.564 50.336C423.756 49.328 423.9 48.392 423.996 47.528C424.14 46.664 424.236 45.92 424.284 45.296C424.38 44.624 424.452 44.192 424.5 44C424.74 42.416 425.268 41.048 426.084 39.896C426.9 38.744 427.98 37.904 429.324 37.376C429.9 37.136 430.476 36.968 431.052 36.872C431.628 36.776 432.204 36.728 432.78 36.728C434.412 36.728 435.876 37.112 437.172 37.88C438.516 38.648 439.572 39.632 440.34 40.832C441.06 41.936 441.516 43.184 441.708 44.576C441.948 45.968 442.116 47.504 442.212 49.184C442.26 50.288 442.308 51.464 442.356 52.712C442.404 53.912 442.428 55.136 442.428 56.384C442.428 59.264 442.308 62.24 442.068 65.312C441.876 68.384 441.468 71.288 440.844 74.024C440.268 76.712 439.476 79.136 438.468 81.296C437.46 83.456 436.164 85.088 434.58 86.192C433.476 86.96 432.3 87.536 431.052 87.92C429.852 88.256 428.652 88.424 427.452 88.424C425.532 88.424 423.732 87.992 422.052 87.128C420.42 86.264 419.124 85.064 418.164 83.528C417.3 82.136 416.628 80.912 416.148 79.856C415.668 78.8 415.308 77.936 415.068 77.264C414.828 76.544 414.66 76.016 414.564 75.68C414.516 75.296 414.468 75.104 414.42 75.104C414.372 75.104 414.3 75.272 414.204 75.608C414.156 75.944 413.988 76.448 413.7 77.12C413.46 77.744 413.1 78.56 412.62 79.568C412.14 80.576 411.468 81.752 410.604 83.096C410.076 83.912 409.428 84.656 408.66 85.328C407.94 86 407.148 86.552 406.284 86.984C404.556 87.848 402.78 88.28 400.956 88.28C398.556 88.28 396.324 87.584 394.26 86.192C392.676 85.088 391.38 83.456 390.372 81.296C389.364 79.136 388.548 76.712 387.924 74.024C387.348 71.288 386.94 68.384 386.7 65.312C386.508 62.24 386.412 59.264 386.412 56.384C386.412 55.136 386.412 53.912 386.412 52.712C386.46 51.464 386.508 50.288 386.556 49.184C386.652 47.504 386.796 45.968 386.988 44.576C387.228 43.184 387.708 41.936 388.428 40.832C389.196 39.632 390.252 38.648 391.596 37.88C392.94 37.112 394.428 36.728 396.06 36.728C396.636 36.728 397.212 36.776 397.788 36.872C398.364 36.968 398.94 37.136 399.516 37.376C400.86 37.904 401.94 38.744 402.756 39.896C403.572 41.048 404.1 42.416 404.34 44C404.388 44.24 404.484 44.984 404.628 46.232C404.772 47.48 404.964 48.8 405.204 50.192C405.444 51.536 405.708 52.76 405.996 53.864C406.284 54.968 406.572 55.52 406.86 55.52C407.1 55.52 407.268 54.992 407.364 53.936C407.508 52.832 407.772 51.632 408.156 50.336C408.54 48.992 409.164 47.792 410.028 46.736C410.94 45.632 412.26 45.08 413.988 45.08C415.524 45.08 416.748 45.344 417.66 45.872C418.62 46.4 419.364 47.072 419.892 47.888C420.468 48.704 420.852 49.568 421.044 50.48C421.284 51.392 421.428 52.256 421.476 53.072C421.572 53.888 421.62 54.56 421.62 55.088C421.668 55.616 421.764 55.88 421.908 55.88ZM495.714 74.096C495.714 75.488 495.69 76.856 495.642 78.2C495.594 79.544 495.45 80.84 495.21 82.088C494.826 84.2 494.01 85.928 492.762 87.272C491.514 88.616 489.738 89.288 487.434 89.288C484.698 89.288 482.538 88.472 480.954 86.84C479.418 85.16 478.434 83.024 478.002 80.432C477.666 78.32 477.45 76.136 477.354 73.88C477.306 71.576 477.282 69.224 477.282 66.824V63.8V59.84C477.282 57.824 477.306 55.736 477.354 53.576C477.402 51.416 477.522 49.328 477.714 47.312C477.954 45.296 478.29 43.4 478.722 41.624C479.202 39.8 479.85 38.216 480.666 36.872C481.53 35.528 482.586 34.472 483.834 33.704C485.13 32.888 486.69 32.48 488.514 32.48C490.194 32.48 491.586 32.72 492.69 33.2C493.794 33.632 494.874 34.328 495.93 35.288C497.178 36.44 498.162 37.88 498.882 39.608C499.602 41.288 500.25 43.04 500.826 44.864C501.402 46.64 502.002 48.392 502.626 50.12C503.298 51.8 504.186 53.24 505.29 54.44C505.386 54.536 505.458 54.584 505.506 54.584C505.698 54.584 505.842 54.464 505.938 54.224C506.082 53.984 506.178 53.696 506.226 53.36C506.274 53.024 506.298 52.688 506.298 52.352C506.346 51.968 506.37 51.656 506.37 51.416V50.624C506.37 49.328 506.37 48.056 506.37 46.808C506.418 45.56 506.442 44.288 506.442 42.992C506.442 40.88 506.634 39.08 507.018 37.592C507.402 36.056 508.146 34.736 509.25 33.632C510.69 32.192 512.442 31.472 514.506 31.472C515.898 31.472 517.314 31.832 518.754 32.552C520.194 33.224 521.322 34.112 522.138 35.216C523.242 36.704 523.962 38.336 524.298 40.112C524.682 41.84 524.874 43.856 524.874 46.16V47.024C524.874 49.04 524.874 51.08 524.874 53.144C524.874 55.16 524.826 57.176 524.73 59.192C524.634 61.736 524.538 64.208 524.442 66.608C524.346 68.96 524.13 71.36 523.794 73.808C523.554 75.776 523.218 77.696 522.786 79.568C522.354 81.44 521.706 83.12 520.842 84.608C520.026 86.096 518.922 87.296 517.53 88.208C516.186 89.12 514.434 89.576 512.274 89.576C510.546 89.576 509.058 89.384 507.81 89C506.562 88.664 505.482 88.088 504.57 87.272C503.706 86.456 502.962 85.4 502.338 84.104C501.714 82.808 501.114 81.224 500.538 79.352C500.346 78.776 500.13 78.032 499.89 77.12C499.65 76.208 499.362 75.296 499.026 74.384C498.738 73.424 498.402 72.536 498.018 71.72C497.682 70.904 497.322 70.28 496.938 69.848C496.794 69.656 496.626 69.56 496.434 69.56C496.194 69.56 496.002 69.776 495.858 70.208C495.762 70.592 495.714 71.048 495.714 71.576C495.714 72.008 495.714 72.44 495.714 72.872C495.762 73.256 495.786 73.664 495.786 74.096H495.714ZM559.226 57.32C559.226 56.312 558.818 55.472 558.002 54.8C557.186 54.08 556.25 53.72 555.194 53.72C554.282 53.72 553.442 54.032 552.674 54.656C551.858 55.328 551.45 56.192 551.45 57.248C551.45 58.16 551.786 58.952 552.458 59.624C552.842 60.008 553.274 60.32 553.754 60.56C554.282 60.752 554.834 60.848 555.41 60.848C556.274 60.848 557.042 60.608 557.714 60.128C558.146 59.792 558.506 59.384 558.794 58.904C559.082 58.424 559.226 57.896 559.226 57.32ZM555.842 36.872C559.154 36.872 562.394 37.448 565.562 38.6C568.73 39.752 571.562 41.408 574.058 43.568C576.698 45.872 578.81 48.632 580.394 51.848C581.978 55.064 582.842 58.424 582.986 61.928V62.936C582.986 66.392 582.29 69.752 580.898 73.016C579.506 76.28 577.562 79.136 575.066 81.584C572.474 84.08 569.498 86 566.138 87.344C562.826 88.64 559.37 89.288 555.77 89.288H555.194C551.882 89.192 548.666 88.568 545.546 87.416C542.474 86.216 539.714 84.512 537.266 82.304C534.818 80.096 532.826 77.504 531.29 74.528C529.802 71.552 528.938 68.408 528.698 65.096C528.65 64.76 528.626 64.448 528.626 64.16C528.626 63.872 528.626 63.56 528.626 63.224C528.626 59.912 529.226 56.744 530.426 53.72C531.674 50.648 533.426 47.912 535.682 45.512C538.13 42.92 541.01 40.88 544.322 39.392C547.682 37.856 551.162 37.016 554.762 36.872H555.842ZM613.142 80.36C611.75 80.36 610.646 79.88 609.83 78.92C609.014 77.912 608.366 76.832 607.886 75.68C607.406 74.48 607.022 73.4 606.734 72.44C606.494 71.432 606.254 70.928 606.014 70.928C605.774 70.928 605.606 71.072 605.51 71.36C605.414 71.648 605.342 71.984 605.294 72.368C605.198 72.944 605.174 73.568 605.222 74.24C605.27 74.864 605.294 75.344 605.294 75.68C605.294 77.744 605.15 79.664 604.862 81.44C604.622 83.024 604.094 84.392 603.278 85.544C602.51 86.696 601.454 87.536 600.11 88.064C599.006 88.544 597.854 88.784 596.654 88.784C595.022 88.784 593.534 88.4 592.19 87.632C590.846 86.816 589.79 85.808 589.022 84.608C588.302 83.504 587.822 82.256 587.582 80.864C587.39 79.472 587.246 77.936 587.15 76.256C587.054 74.096 586.934 71.792 586.79 69.344C586.694 66.896 586.646 64.376 586.646 61.784C586.646 59.384 586.718 57.032 586.862 54.728C587.054 52.376 587.366 50.216 587.798 48.248C588.278 46.232 588.926 44.456 589.742 42.92C590.558 41.336 591.59 40.112 592.838 39.248C594.902 37.856 597.23 37.16 599.822 37.16C601.838 37.16 603.71 37.592 605.438 38.456C606.302 38.888 607.094 39.44 607.814 40.112C608.582 40.784 609.23 41.528 609.758 42.344C610.43 43.448 610.91 44.624 611.198 45.872C611.486 47.072 611.726 48.296 611.918 49.544C612.638 54.248 613.166 56.6 613.502 56.6C613.742 56.6 613.958 55.976 614.15 54.728C614.39 53.432 614.702 51.56 615.086 49.112C615.278 47.864 615.518 46.64 615.806 45.44C616.094 44.192 616.574 43.016 617.246 41.912C617.774 41.096 618.398 40.352 619.118 39.68C619.886 39.008 620.702 38.456 621.566 38.024C623.294 37.16 625.166 36.728 627.182 36.728C629.822 36.728 632.174 37.424 634.238 38.816C635.486 39.68 636.518 40.904 637.334 42.488C638.15 44.024 638.774 45.8 639.206 47.816C639.686 49.784 639.998 51.944 640.142 54.296C640.334 56.6 640.43 58.952 640.43 61.352C640.43 63.944 640.358 66.464 640.214 68.912C640.07 71.36 639.95 73.664 639.854 75.824C639.758 77.504 639.59 79.04 639.35 80.432C639.158 81.824 638.702 83.072 637.982 84.176C637.214 85.376 636.158 86.36 634.814 87.128C633.518 87.896 632.054 88.28 630.422 88.28C629.846 88.28 629.27 88.232 628.694 88.136C628.118 88.04 627.542 87.872 626.966 87.632C625.622 87.104 624.542 86.264 623.726 85.112C622.91 83.96 622.382 82.592 622.142 81.008C621.998 80.096 621.902 79.16 621.854 78.2C621.806 77.192 621.782 76.208 621.782 75.248V72.728C621.782 72.296 621.734 71.816 621.638 71.288C621.59 70.76 621.446 70.496 621.206 70.496C620.918 70.496 620.726 71.024 620.63 72.08C620.582 73.088 620.342 74.216 619.91 75.464C619.526 76.664 618.83 77.792 617.822 78.848C616.814 79.856 615.278 80.36 613.214 80.36H613.142ZM691.553 73.88C691.553 74.216 691.577 74.672 691.625 75.248C691.673 75.824 691.697 76.448 691.697 77.12C691.697 78.272 691.601 79.544 691.409 80.936C691.217 82.328 690.809 83.624 690.185 84.824C689.561 86.024 688.649 87.032 687.449 87.848C686.249 88.616 684.641 89 682.625 89C680.849 89 679.409 88.76 678.305 88.28C677.201 87.8 676.289 87.104 675.569 86.192C674.849 85.232 674.273 84.08 673.841 82.736C673.409 81.392 672.977 79.832 672.545 78.056C671.249 78.2 669.905 78.272 668.513 78.272C667.697 78.272 666.881 78.248 666.065 78.2C665.297 78.152 664.505 78.08 663.689 77.984C663.401 79.904 663.065 81.56 662.681 82.952C662.345 84.344 661.841 85.496 661.169 86.408C660.497 87.272 659.561 87.92 658.361 88.352C657.161 88.784 655.553 89 653.537 89C651.377 89 649.673 88.544 648.425 87.632C647.177 86.72 646.241 85.592 645.617 84.248C644.993 82.904 644.585 81.488 644.393 80C644.249 78.512 644.177 77.216 644.177 76.112V74.024C644.177 66.728 644.777 60.704 645.977 55.952C647.177 51.152 648.761 47.36 650.729 44.576C652.745 41.792 655.049 39.848 657.641 38.744C660.233 37.64 662.921 37.088 665.705 37.088C669.257 37.088 672.593 37.568 675.713 38.528C678.881 39.488 681.617 41.312 683.921 44C686.273 46.688 688.121 50.432 689.465 55.232C690.857 59.984 691.553 66.2 691.553 73.88ZM671.249 61.424C670.913 59.264 670.433 57.632 669.809 56.528C669.185 55.424 668.513 54.872 667.793 54.872C667.121 54.872 666.473 55.4 665.849 56.456C665.225 57.512 664.769 59.12 664.481 61.28C664.481 61.808 664.769 62.168 665.345 62.36C665.921 62.552 666.593 62.648 667.361 62.648C668.321 62.648 669.209 62.528 670.025 62.288C670.841 62.048 671.249 61.76 671.249 61.424ZM715.465 53.576C715.561 54.152 715.801 54.56 716.185 54.8C716.569 55.04 716.977 55.16 717.409 55.16C717.937 55.16 718.441 54.992 718.921 54.656C719.449 54.32 719.713 53.84 719.713 53.216C719.713 53.12 719.665 52.88 719.569 52.496C719.233 51.584 718.609 51.128 717.697 51.128C717.169 51.128 716.665 51.32 716.185 51.704C715.705 52.04 715.465 52.52 715.465 53.144V53.576ZM721.081 37.736C724.777 38.072 728.113 38.84 731.089 40.04C734.113 41.24 736.489 43.064 738.217 45.512C739.897 47.912 740.737 50.648 740.737 53.72C740.737 55.112 740.569 56.408 740.233 57.608C739.849 59.096 739.225 60.512 738.361 61.856C737.545 63.152 736.537 64.28 735.337 65.24C736.585 66.824 737.761 68.696 738.865 70.856C740.017 72.968 740.665 75.176 740.809 77.48V78.344C740.809 81.032 740.065 83.36 738.577 85.328C737.137 87.296 735.289 88.52 733.033 89C732.313 89.144 731.641 89.216 731.017 89.216C729.001 89.216 727.225 88.688 725.689 87.632C724.153 86.528 722.953 85.352 722.089 84.104C720.985 82.568 720.217 80.864 719.785 78.992C719.353 77.12 719.113 75.224 719.065 73.304C719.065 72.632 719.017 72.008 718.921 71.432C718.825 70.856 718.561 70.424 718.129 70.136C717.889 69.992 717.697 69.92 717.553 69.92C717.217 69.92 716.977 70.112 716.833 70.496C716.689 70.832 716.617 71.192 716.617 71.576C716.617 72.536 716.665 73.472 716.761 74.384C716.905 75.248 716.977 76.136 716.977 77.048C716.977 77.24 716.953 77.408 716.905 77.552C716.905 77.696 716.905 77.864 716.905 78.056C716.809 80.36 716.185 82.424 715.033 84.248C713.929 86.072 712.465 87.392 710.641 88.208C709.249 88.784 707.929 89.072 706.681 89.072C704.761 89.072 703.009 88.568 701.425 87.56C699.889 86.504 698.713 85.304 697.897 83.96C696.937 82.376 696.289 80.648 695.953 78.776C695.665 76.904 695.497 75.032 695.449 73.16V71.576C695.449 69.368 695.497 67.184 695.593 65.024C695.689 62.864 695.785 60.68 695.881 58.472C695.929 56.84 695.977 55.208 696.025 53.576C696.121 51.944 696.409 50.36 696.889 48.824C697.417 47.096 698.209 45.488 699.265 44C700.369 42.512 701.689 41.288 703.225 40.328C704.905 39.32 706.873 38.6 709.129 38.168C711.433 37.736 713.857 37.52 716.401 37.52C717.937 37.52 719.497 37.592 721.081 37.736ZM756.062 36.872C758.222 36.872 760.094 37.448 761.678 38.6C763.262 39.752 764.414 41.096 765.134 42.632C765.662 43.784 765.974 45.008 766.07 46.304C766.214 47.6 766.286 48.872 766.286 50.12C766.286 53.48 766.166 56.84 765.926 60.2C765.686 63.512 765.326 66.824 764.846 70.136C765.614 69.944 766.478 69.848 767.438 69.848C768.782 69.848 770.054 70.064 771.254 70.496C772.502 70.928 773.582 71.528 774.494 72.296C775.454 73.064 776.198 74 776.726 75.104C777.302 76.16 777.59 77.36 777.59 78.704C777.59 79.76 777.374 80.792 776.942 81.8C776.558 82.808 776.03 83.72 775.358 84.536C774.014 86.12 772.286 87.32 770.174 88.136C768.11 88.952 765.71 89.36 762.974 89.36C759.71 89.36 756.686 88.976 753.902 88.208C751.118 87.392 748.958 86.024 747.422 84.104C746.75 83.24 746.222 82.304 745.838 81.296C745.454 80.288 745.166 79.208 744.974 78.056C744.782 76.856 744.662 75.608 744.614 74.312C744.566 72.968 744.542 71.576 744.542 70.136C744.542 66.968 744.59 63.8 744.686 60.632C744.782 57.464 744.878 54.296 744.974 51.128C745.022 49.208 745.262 47.384 745.694 45.656C746.126 43.928 746.774 42.416 747.638 41.12C748.502 39.824 749.63 38.792 751.022 38.024C752.414 37.256 754.094 36.872 756.062 36.872ZM804.271 66.68C804.319 67.64 804.343 68.456 804.343 69.128C804.391 69.8 804.415 70.568 804.415 71.432C804.415 72.104 804.391 72.872 804.343 73.736C804.295 74.6 804.223 75.656 804.127 76.904C804.031 78.104 803.887 79.28 803.695 80.432C803.551 81.584 803.215 82.712 802.687 83.816C801.967 85.352 800.815 86.72 799.231 87.92C797.695 89.072 795.847 89.648 793.687 89.648C793.207 89.648 792.847 89.624 792.607 89.576C790.639 89.336 788.959 88.664 787.567 87.56C786.175 86.408 785.071 85.112 784.255 83.672C783.439 82.232 782.863 80.24 782.527 77.696C782.191 75.152 782.023 72.416 782.023 69.488C782.023 68.816 782.023 68.192 782.023 67.616C782.023 66.992 782.047 66.344 782.095 65.672C780.991 64.568 779.887 63.344 778.783 62C777.727 60.656 776.695 59.312 775.687 57.968C774.247 56 772.999 54.104 771.943 52.28C770.935 50.408 770.431 48.56 770.431 46.736C770.431 46.304 770.455 45.968 770.503 45.728C770.647 44.48 771.031 43.328 771.655 42.272C772.327 41.216 773.143 40.304 774.103 39.536C775.063 38.72 776.143 38.096 777.343 37.664C778.543 37.232 779.791 37.016 781.087 37.016C782.239 37.016 783.343 37.28 784.399 37.808C785.503 38.336 786.559 39.032 787.567 39.896C788.623 40.76 789.631 41.744 790.591 42.848C791.551 43.904 792.511 44.96 793.471 46.016C794.431 44.96 795.415 43.904 796.423 42.848C797.431 41.744 798.463 40.76 799.519 39.896C800.575 39.032 801.631 38.336 802.687 37.808C803.791 37.28 804.871 37.016 805.927 37.016C807.223 37.016 808.471 37.232 809.671 37.664C810.871 38.096 811.951 38.72 812.911 39.536C813.871 40.304 814.663 41.216 815.287 42.272C815.959 43.328 816.367 44.48 816.511 45.728C816.559 45.92 816.583 46.112 816.583 46.304C816.583 46.496 816.583 46.688 816.583 46.88C816.583 48.704 816.103 50.528 815.143 52.352C814.183 54.128 813.007 56 811.615 57.968L804.271 66.68Z" fill="url(#paint0_linear_298_37614)"/>
</g>
<path d="M42.3056 154.4H55.2656C59.8256 154.4 63.6176 156.032 66.5936 159.296C69.6176 162.512 71.1056 166.496 71.1056 171.2C71.1056 175.904 69.6176 179.888 66.5936 183.152C63.6176 186.368 59.8256 188 55.2656 188H42.3056V154.4ZM45.6656 184.832H55.2656C58.9616 184.832 61.9376 183.536 64.2896 180.896C66.6416 178.256 67.8416 175.04 67.8416 171.2C67.8416 167.36 66.6416 164.144 64.2896 161.504C61.9376 158.864 58.9616 157.568 55.2656 157.568H45.6656V184.832ZM81.9405 164V167.984C83.4285 165.056 85.9245 163.616 89.5245 163.616V166.688C85.1565 166.688 81.9405 169.136 81.9405 174.656V188H78.7725V164H81.9405ZM115.453 168.704V164H118.621V188H115.453V183.296C113.245 186.8 110.029 188.576 105.757 188.576C102.349 188.576 99.4211 187.376 96.9731 184.928C94.5731 182.48 93.3731 179.504 93.3731 176C93.3731 172.496 94.5731 169.52 96.9731 167.072C99.4211 164.624 102.349 163.424 105.757 163.424C110.029 163.424 113.245 165.2 115.453 168.704ZM99.2771 182.768C101.101 184.592 103.357 185.504 105.997 185.504C108.637 185.504 110.893 184.592 112.717 182.768C114.541 180.896 115.453 178.64 115.453 176C115.453 173.36 114.541 171.104 112.717 169.28C110.893 167.408 108.637 166.496 105.997 166.496C103.357 166.496 101.101 167.408 99.2771 169.28C97.4531 171.104 96.5411 173.36 96.5411 176C96.5411 178.64 97.4531 180.896 99.2771 182.768ZM150.721 183.92L156.625 164H159.889L152.497 188H149.041L142.849 168.656L136.657 188H133.201L125.809 164H129.073L134.977 183.92L141.265 164H144.433L150.721 183.92ZM170.282 159.824C169.37 160.736 167.93 160.736 167.018 159.824C166.106 158.912 166.106 157.472 167.018 156.56C167.93 155.648 169.37 155.648 170.282 156.56C171.194 157.472 171.194 158.912 170.282 159.824ZM170.234 188H167.066V164H170.234V188ZM190.589 163.424C196.397 163.424 199.997 167.264 199.997 173.264V188H196.829V173.264C196.829 168.992 194.477 166.496 190.301 166.496C185.693 166.496 182.525 169.328 182.525 175.424V188H179.357V164H182.525V167.744C184.301 164.864 186.989 163.424 190.589 163.424ZM229.163 168.704V164H232.331V187.04C232.331 190.496 231.131 193.232 228.779 195.2C226.427 197.168 223.595 198.176 220.283 198.176C214.667 198.176 210.875 196.208 208.907 192.32L211.691 190.736C213.131 193.664 216.011 195.104 220.283 195.104C225.803 195.104 229.163 191.984 229.163 187.04V183.296C226.955 186.8 223.739 188.576 219.467 188.576C216.059 188.576 213.131 187.376 210.683 184.928C208.283 182.48 207.083 179.504 207.083 176C207.083 172.496 208.283 169.52 210.683 167.072C213.131 164.624 216.059 163.424 219.467 163.424C223.739 163.424 226.955 165.2 229.163 168.704ZM212.987 182.768C214.811 184.592 217.067 185.504 219.707 185.504C222.347 185.504 224.603 184.592 226.427 182.768C228.251 180.896 229.163 178.64 229.163 176C229.163 173.36 228.251 171.104 226.427 169.28C224.603 167.408 222.347 166.496 219.707 166.496C217.067 166.496 214.811 167.408 212.987 169.28C211.163 171.104 210.251 173.36 210.251 176C210.251 178.64 211.163 180.896 212.987 182.768ZM265.342 184.112L273.118 164H276.478L266.206 190.208C264.334 194.96 260.734 197.936 256.51 197.6V194.624C259.39 194.96 261.598 193.28 263.086 189.632L263.71 188.144L252.958 164H256.318L265.342 184.112ZM302.819 184.976C300.371 187.376 297.395 188.576 293.891 188.576C290.387 188.576 287.363 187.376 284.915 184.976C282.467 182.528 281.267 179.552 281.267 176C281.267 172.448 282.467 169.472 284.915 167.072C287.363 164.624 290.387 163.424 293.891 163.424C297.395 163.424 300.371 164.624 302.819 167.072C305.267 169.472 306.515 172.448 306.515 176C306.515 179.552 305.267 182.528 302.819 184.976ZM287.171 182.768C288.995 184.592 291.251 185.504 293.891 185.504C296.531 185.504 298.787 184.592 300.611 182.768C302.435 180.896 303.347 178.64 303.347 176C303.347 173.36 302.435 171.104 300.611 169.28C298.787 167.408 296.531 166.496 293.891 166.496C291.251 166.496 288.995 167.408 287.171 169.28C285.347 171.104 284.435 173.36 284.435 176C284.435 178.64 285.347 180.896 287.171 182.768ZM331.112 176.576V164H334.28V188H331.112V184.256C329.336 187.136 326.648 188.576 323.048 188.576C317.24 188.576 313.64 184.736 313.64 178.736V164H316.808V178.736C316.808 183.008 319.16 185.504 323.336 185.504C327.944 185.504 331.112 182.672 331.112 176.576ZM346.55 164V167.984C348.038 165.056 350.534 163.616 354.134 163.616V166.688C349.766 166.688 346.55 169.136 346.55 174.656V188H343.382V164H346.55ZM387.276 153.824V156.896C382.62 156.512 380.364 158.432 380.364 163.04V164H387.276V167.072H380.364V188H377.196V167.072H373.116V164H377.196V163.04C377.196 156.752 380.796 153.392 387.276 153.824ZM412.238 168.704V164H415.406V188H412.238V183.296C410.03 186.8 406.814 188.576 402.542 188.576C399.134 188.576 396.206 187.376 393.758 184.928C391.358 182.48 390.158 179.504 390.158 176C390.158 172.496 391.358 169.52 393.758 167.072C396.206 164.624 399.134 163.424 402.542 163.424C406.814 163.424 410.03 165.2 412.238 168.704ZM396.062 182.768C397.886 184.592 400.142 185.504 402.782 185.504C405.422 185.504 407.678 184.592 409.502 182.768C411.326 180.896 412.238 178.64 412.238 176C412.238 173.36 411.326 171.104 409.502 169.28C407.678 167.408 405.422 166.496 402.782 166.496C400.142 166.496 397.886 167.408 396.062 169.28C394.238 171.104 393.326 173.36 393.326 176C393.326 178.64 394.238 180.896 396.062 182.768ZM433.393 184.688L441.793 164H445.153L435.313 188H431.473L421.633 164H424.993L433.393 184.688ZM471.494 184.976C469.046 187.376 466.07 188.576 462.566 188.576C459.062 188.576 456.038 187.376 453.59 184.976C451.142 182.528 449.942 179.552 449.942 176C449.942 172.448 451.142 169.472 453.59 167.072C456.038 164.624 459.062 163.424 462.566 163.424C466.07 163.424 469.046 164.624 471.494 167.072C473.942 169.472 475.19 172.448 475.19 176C475.19 179.552 473.942 182.528 471.494 184.976ZM455.846 182.768C457.67 184.592 459.926 185.504 462.566 185.504C465.206 185.504 467.462 184.592 469.286 182.768C471.11 180.896 472.022 178.64 472.022 176C472.022 173.36 471.11 171.104 469.286 169.28C467.462 167.408 465.206 166.496 462.566 166.496C459.926 166.496 457.67 167.408 455.846 169.28C454.022 171.104 453.11 173.36 453.11 176C453.11 178.64 454.022 180.896 455.846 182.768ZM486.059 164V167.984C487.547 165.056 490.043 163.616 493.643 163.616V166.688C489.275 166.688 486.059 169.136 486.059 174.656V188H482.891V164H486.059ZM503.601 159.824C502.689 160.736 501.249 160.736 500.337 159.824C499.425 158.912 499.425 157.472 500.337 156.56C501.249 155.648 502.689 155.648 503.601 156.56C504.513 157.472 504.513 158.912 503.601 159.824ZM503.553 188H500.385V164H503.553V188ZM525.396 164V167.072H518.484V181.616C518.484 185.744 520.788 185.408 525.396 185.216V188C518.676 189.008 515.316 187.184 515.316 181.616V167.072H510.276V164H515.316V158.24L518.484 157.28V164H525.396ZM544.164 163.424C547.716 163.424 550.596 164.672 552.756 167.216C554.964 169.712 556.068 172.688 556.068 176.096C556.068 176.432 556.02 176.96 555.972 177.584H534.9C535.524 182.432 539.316 185.504 544.452 185.504C548.1 185.504 550.836 183.872 552.18 181.424L554.964 183.056C552.852 186.464 549.06 188.576 544.404 188.576C540.612 188.576 537.54 187.376 535.188 185.024C532.836 182.672 531.636 179.648 531.636 176C531.636 172.4 532.788 169.424 535.14 167.024C537.492 164.624 540.468 163.424 544.164 163.424ZM544.164 166.496C539.172 166.496 535.524 169.76 534.9 174.512H552.804C552.468 171.968 551.508 170 549.876 168.608C548.244 167.216 546.324 166.496 544.164 166.496ZM581.123 159.824C580.211 160.736 578.771 160.736 577.859 159.824C576.947 158.912 576.947 157.472 577.859 156.56C578.771 155.648 580.211 155.648 581.123 156.56C582.035 157.472 582.035 158.912 581.123 159.824ZM581.075 188H577.907V164H581.075V188ZM615.782 163.424C621.158 163.424 624.758 167.12 624.758 173.024V188H621.59V173.024C621.59 168.848 619.238 166.496 615.734 166.496C611.75 166.496 609.062 169.088 609.062 174.704V188H605.894V173.024C605.894 168.8 603.734 166.496 600.278 166.496C596.438 166.496 593.366 169.136 593.366 174.704V188H590.198V164H593.366V167.504C595.094 164.768 597.542 163.424 600.71 163.424C604.166 163.424 606.614 164.864 608.006 167.792C609.734 164.864 612.326 163.424 615.782 163.424ZM653.925 168.704V164H657.093V188H653.925V183.296C651.717 186.8 648.501 188.576 644.229 188.576C640.821 188.576 637.893 187.376 635.445 184.928C633.045 182.48 631.845 179.504 631.845 176C631.845 172.496 633.045 169.52 635.445 167.072C637.893 164.624 640.821 163.424 644.229 163.424C648.501 163.424 651.717 165.2 653.925 168.704ZM637.749 182.768C639.573 184.592 641.829 185.504 644.469 185.504C647.109 185.504 649.365 184.592 651.189 182.768C653.013 180.896 653.925 178.64 653.925 176C653.925 173.36 653.013 171.104 651.189 169.28C649.365 167.408 647.109 166.496 644.469 166.496C641.829 166.496 639.573 167.408 637.749 169.28C635.925 171.104 635.013 173.36 635.013 176C635.013 178.64 635.925 180.896 637.749 182.768ZM686.841 168.704V164H690.009V187.04C690.009 190.496 688.809 193.232 686.457 195.2C684.105 197.168 681.273 198.176 677.961 198.176C672.345 198.176 668.553 196.208 666.585 192.32L669.369 190.736C670.809 193.664 673.689 195.104 677.961 195.104C683.481 195.104 686.841 191.984 686.841 187.04V183.296C684.633 186.8 681.417 188.576 677.145 188.576C673.737 188.576 670.809 187.376 668.361 184.928C665.961 182.48 664.761 179.504 664.761 176C664.761 172.496 665.961 169.52 668.361 167.072C670.809 164.624 673.737 163.424 677.145 163.424C681.417 163.424 684.633 165.2 686.841 168.704ZM670.665 182.768C672.489 184.592 674.745 185.504 677.385 185.504C680.025 185.504 682.281 184.592 684.105 182.768C685.929 180.896 686.841 178.64 686.841 176C686.841 173.36 685.929 171.104 684.105 169.28C682.281 167.408 680.025 166.496 677.385 166.496C674.745 166.496 672.489 167.408 670.665 169.28C668.841 171.104 667.929 173.36 667.929 176C667.929 178.64 668.841 180.896 670.665 182.768ZM710.204 163.424C713.756 163.424 716.636 164.672 718.796 167.216C721.004 169.712 722.108 172.688 722.108 176.096C722.108 176.432 722.06 176.96 722.012 177.584H700.94C701.564 182.432 705.356 185.504 710.492 185.504C714.14 185.504 716.876 183.872 718.22 181.424L721.004 183.056C718.892 186.464 715.1 188.576 710.444 188.576C706.652 188.576 703.58 187.376 701.228 185.024C698.876 182.672 697.676 179.648 697.676 176C697.676 172.4 698.828 169.424 701.18 167.024C703.532 164.624 706.508 163.424 710.204 163.424ZM710.204 166.496C705.212 166.496 701.564 169.76 700.94 174.512H718.844C718.508 171.968 717.548 170 715.916 168.608C714.284 167.216 712.364 166.496 710.204 166.496ZM731.106 170.288C731.106 172.448 733.314 173.648 736.05 174.368C740.082 175.376 745.122 176.48 745.122 181.664C745.122 183.728 744.306 185.36 742.674 186.656C741.09 187.952 738.978 188.576 736.434 188.576C731.826 188.576 728.466 186.32 727.17 183.056L729.858 181.472C730.77 183.968 733.218 185.504 736.434 185.504C739.554 185.504 741.954 184.304 741.954 181.664C741.954 179.504 739.746 178.304 737.01 177.584C732.978 176.576 727.938 175.472 727.938 170.288C727.938 168.32 728.706 166.688 730.242 165.392C731.826 164.096 733.794 163.424 736.146 163.424C740.034 163.424 743.154 165.296 744.546 168.32L741.906 169.856C740.994 167.6 739.074 166.496 736.146 166.496C733.41 166.496 731.106 167.84 731.106 170.288ZM787.319 184.976C784.871 187.376 781.895 188.576 778.391 188.576C774.887 188.576 771.863 187.376 769.415 184.976C766.967 182.528 765.767 179.552 765.767 176C765.767 172.448 766.967 169.472 769.415 167.072C771.863 164.624 774.887 163.424 778.391 163.424C781.895 163.424 784.871 164.624 787.319 167.072C789.767 169.472 791.015 172.448 791.015 176C791.015 179.552 789.767 182.528 787.319 184.976ZM771.671 182.768C773.495 184.592 775.751 185.504 778.391 185.504C781.031 185.504 783.287 184.592 785.111 182.768C786.935 180.896 787.847 178.64 787.847 176C787.847 173.36 786.935 171.104 785.111 169.28C783.287 167.408 781.031 166.496 778.391 166.496C775.751 166.496 773.495 167.408 771.671 169.28C769.847 171.104 768.935 173.36 768.935 176C768.935 178.64 769.847 180.896 771.671 182.768ZM809.948 163.424C815.756 163.424 819.356 167.264 819.356 173.264V188H816.188V173.264C816.188 168.992 813.836 166.496 809.66 166.496C805.052 166.496 801.884 169.328 801.884 175.424V188H798.716V164H801.884V167.744C803.66 164.864 806.348 163.424 809.948 163.424ZM855.002 164V167.072H848.09V181.616C848.09 185.744 850.394 185.408 855.002 185.216V188C848.282 189.008 844.922 187.184 844.922 181.616V167.072H839.882V164H844.922V158.24L848.09 157.28V164H855.002ZM865.85 164V167.984C867.338 165.056 869.834 163.616 873.434 163.616V166.688C869.066 166.688 865.85 169.136 865.85 174.656V188H862.682V164H865.85ZM899.362 168.704V164H902.53V188H899.362V183.296C897.154 186.8 893.938 188.576 889.666 188.576C886.258 188.576 883.33 187.376 880.882 184.928C878.482 182.48 877.282 179.504 877.282 176C877.282 172.496 878.482 169.52 880.882 167.072C883.33 164.624 886.258 163.424 889.666 163.424C893.938 163.424 897.154 165.2 899.362 168.704ZM883.186 182.768C885.01 184.592 887.266 185.504 889.906 185.504C892.546 185.504 894.802 184.592 896.626 182.768C898.45 180.896 899.362 178.64 899.362 176C899.362 173.36 898.45 171.104 896.626 169.28C894.802 167.408 892.546 166.496 889.906 166.496C887.266 166.496 885.01 167.408 883.186 169.28C881.362 171.104 880.45 173.36 880.45 176C880.45 178.64 881.362 180.896 883.186 182.768ZM922.822 188.576C919.222 188.576 916.198 187.376 913.798 184.976C911.398 182.528 910.198 179.552 910.198 176C910.198 172.448 911.398 169.472 913.798 167.072C916.198 164.624 919.222 163.424 922.822 163.424C927.574 163.424 931.606 165.872 933.334 169.712L930.742 171.2C929.446 168.32 926.422 166.496 922.822 166.496C920.182 166.496 917.926 167.408 916.102 169.28C914.278 171.104 913.366 173.36 913.366 176C913.366 178.64 914.278 180.896 916.102 182.768C917.926 184.592 920.182 185.504 922.822 185.504C926.422 185.504 929.35 183.68 930.934 180.8L933.574 182.336C931.606 186.176 927.478 188.576 922.822 188.576ZM943.739 159.824C942.827 160.736 941.387 160.736 940.475 159.824C939.563 158.912 939.563 157.472 940.475 156.56C941.387 155.648 942.827 155.648 943.739 156.56C944.651 157.472 944.651 158.912 943.739 159.824ZM943.691 188H940.523V164H943.691V188ZM964.045 163.424C969.853 163.424 973.453 167.264 973.453 173.264V188H970.285V173.264C970.285 168.992 967.933 166.496 963.757 166.496C959.149 166.496 955.981 169.328 955.981 175.424V188H952.813V164H955.981V167.744C957.757 164.864 960.445 163.424 964.045 163.424ZM1002.62 168.704V164H1005.79V187.04C1005.79 190.496 1004.59 193.232 1002.23 195.2C999.883 197.168 997.051 198.176 993.739 198.176C988.123 198.176 984.331 196.208 982.363 192.32L985.147 190.736C986.587 193.664 989.467 195.104 993.739 195.104C999.259 195.104 1002.62 191.984 1002.62 187.04V183.296C1000.41 186.8 997.195 188.576 992.923 188.576C989.515 188.576 986.587 187.376 984.139 184.928C981.739 182.48 980.539 179.504 980.539 176C980.539 172.496 981.739 169.52 984.139 167.072C986.587 164.624 989.515 163.424 992.923 163.424C997.195 163.424 1000.41 165.2 1002.62 168.704ZM986.443 182.768C988.267 184.592 990.523 185.504 993.163 185.504C995.803 185.504 998.059 184.592 999.883 182.768C1001.71 180.896 1002.62 178.64 1002.62 176C1002.62 173.36 1001.71 171.104 999.883 169.28C998.059 167.408 995.803 166.496 993.163 166.496C990.523 166.496 988.267 167.408 986.443 169.28C984.619 171.104 983.707 173.36 983.707 176C983.707 178.64 984.619 180.896 986.443 182.768ZM30.1271 213.424C33.5351 213.424 36.4631 214.624 38.8631 217.072C41.3111 219.52 42.5111 222.496 42.5111 226C42.5111 229.504 41.3111 232.48 38.8631 234.928C36.4631 237.376 33.5351 238.576 30.1271 238.576C25.8551 238.576 22.6391 236.8 20.4311 233.296V247.6H17.2631V214H20.4311V218.704C22.6391 215.2 25.8551 213.424 30.1271 213.424ZM23.1671 232.768C24.9911 234.592 27.2471 235.504 29.8871 235.504C32.5271 235.504 34.7831 234.592 36.6071 232.768C38.4311 230.896 39.3431 228.64 39.3431 226C39.3431 223.36 38.4311 221.104 36.6071 219.28C34.7831 217.408 32.5271 216.496 29.8871 216.496C27.2471 216.496 24.9911 217.408 23.1671 219.28C21.3431 221.104 20.4311 223.36 20.4311 226C20.4311 228.64 21.3431 230.896 23.1671 232.768ZM70.8188 218.704V214H73.9868V238H70.8188V233.296C68.6108 236.8 65.3948 238.576 61.1228 238.576C57.7148 238.576 54.7868 237.376 52.3388 234.928C49.9388 232.48 48.7388 229.504 48.7388 226C48.7388 222.496 49.9388 219.52 52.3388 217.072C54.7868 214.624 57.7148 213.424 61.1228 213.424C65.3948 213.424 68.6108 215.2 70.8188 218.704ZM54.6428 232.768C56.4668 234.592 58.7228 235.504 61.3628 235.504C64.0028 235.504 66.2588 234.592 68.0828 232.768C69.9068 230.896 70.8188 228.64 70.8188 226C70.8188 223.36 69.9068 221.104 68.0828 219.28C66.2588 217.408 64.0028 216.496 61.3628 216.496C58.7228 216.496 56.4668 217.408 54.6428 219.28C52.8188 221.104 51.9068 223.36 51.9068 226C51.9068 228.64 52.8188 230.896 54.6428 232.768ZM95.9584 213.424C99.3664 213.424 102.294 214.624 104.694 217.072C107.142 219.52 108.342 222.496 108.342 226C108.342 229.504 107.142 232.48 104.694 234.928C102.294 237.376 99.3664 238.576 95.9584 238.576C91.6864 238.576 88.4704 236.8 86.2624 233.296V247.6H83.0944V214H86.2624V218.704C88.4704 215.2 91.6864 213.424 95.9584 213.424ZM88.9984 232.768C90.8224 234.592 93.0784 235.504 95.7184 235.504C98.3584 235.504 100.614 234.592 102.438 232.768C104.262 230.896 105.174 228.64 105.174 226C105.174 223.36 104.262 221.104 102.438 219.28C100.614 217.408 98.3584 216.496 95.7184 216.496C93.0784 216.496 90.8224 217.408 88.9984 219.28C87.1744 221.104 86.2624 223.36 86.2624 226C86.2624 228.64 87.1744 230.896 88.9984 232.768ZM127.098 213.424C130.65 213.424 133.53 214.672 135.69 217.216C137.898 219.712 139.002 222.688 139.002 226.096C139.002 226.432 138.954 226.96 138.906 227.584H117.834C118.458 232.432 122.25 235.504 127.386 235.504C131.034 235.504 133.77 233.872 135.114 231.424L137.898 233.056C135.786 236.464 131.994 238.576 127.338 238.576C123.546 238.576 120.474 237.376 118.122 235.024C115.77 232.672 114.57 229.648 114.57 226C114.57 222.4 115.722 219.424 118.074 217.024C120.426 214.624 123.402 213.424 127.098 213.424ZM127.098 216.496C122.106 216.496 118.458 219.76 117.834 224.512H135.738C135.402 221.968 134.442 220 132.81 218.608C131.178 217.216 129.258 216.496 127.098 216.496ZM149.609 214V217.984C151.097 215.056 153.593 213.616 157.193 213.616V216.688C152.825 216.688 149.609 219.136 149.609 224.656V238H146.441V214H149.609ZM191.199 213.424C194.607 213.424 197.535 214.624 199.935 217.072C202.383 219.52 203.583 222.496 203.583 226C203.583 229.504 202.383 232.48 199.935 234.928C197.535 237.376 194.607 238.576 191.199 238.576C186.927 238.576 183.711 236.8 181.503 233.296V238H178.335V204.4H181.503V218.704C183.711 215.2 186.927 213.424 191.199 213.424ZM184.239 232.768C186.063 234.592 188.319 235.504 190.959 235.504C193.599 235.504 195.855 234.592 197.679 232.768C199.503 230.896 200.415 228.64 200.415 226C200.415 223.36 199.503 221.104 197.679 219.28C195.855 217.408 193.599 216.496 190.959 216.496C188.319 216.496 186.063 217.408 184.239 219.28C182.415 221.104 181.503 223.36 181.503 226C181.503 228.64 182.415 230.896 184.239 232.768ZM222.339 213.424C225.891 213.424 228.771 214.672 230.931 217.216C233.139 219.712 234.243 222.688 234.243 226.096C234.243 226.432 234.195 226.96 234.147 227.584H213.075C213.699 232.432 217.491 235.504 222.627 235.504C226.275 235.504 229.011 233.872 230.355 231.424L233.139 233.056C231.027 236.464 227.235 238.576 222.579 238.576C218.787 238.576 215.715 237.376 213.363 235.024C211.011 232.672 209.811 229.648 209.811 226C209.811 222.4 210.963 219.424 213.315 217.024C215.667 214.624 218.643 213.424 222.339 213.424ZM222.339 216.496C217.347 216.496 213.699 219.76 213.075 224.512H230.979C230.643 221.968 229.683 220 228.051 218.608C226.419 217.216 224.499 216.496 222.339 216.496ZM252.866 238.576C249.266 238.576 246.242 237.376 243.842 234.976C241.442 232.528 240.242 229.552 240.242 226C240.242 222.448 241.442 219.472 243.842 217.072C246.242 214.624 249.266 213.424 252.866 213.424C257.618 213.424 261.65 215.872 263.378 219.712L260.786 221.2C259.49 218.32 256.466 216.496 252.866 216.496C250.226 216.496 247.97 217.408 246.146 219.28C244.322 221.104 243.41 223.36 243.41 226C243.41 228.64 244.322 230.896 246.146 232.768C247.97 234.592 250.226 235.504 252.866 235.504C256.466 235.504 259.394 233.68 260.978 230.8L263.618 232.336C261.65 236.176 257.522 238.576 252.866 238.576ZM290.678 234.976C288.23 237.376 285.254 238.576 281.75 238.576C278.246 238.576 275.222 237.376 272.774 234.976C270.326 232.528 269.126 229.552 269.126 226C269.126 222.448 270.326 219.472 272.774 217.072C275.222 214.624 278.246 213.424 281.75 213.424C285.254 213.424 288.23 214.624 290.678 217.072C293.126 219.472 294.374 222.448 294.374 226C294.374 229.552 293.126 232.528 290.678 234.976ZM275.03 232.768C276.854 234.592 279.11 235.504 281.75 235.504C284.39 235.504 286.646 234.592 288.47 232.768C290.294 230.896 291.206 228.64 291.206 226C291.206 223.36 290.294 221.104 288.47 219.28C286.646 217.408 284.39 216.496 281.75 216.496C279.11 216.496 276.854 217.408 275.03 219.28C273.206 221.104 272.294 223.36 272.294 226C272.294 228.64 273.206 230.896 275.03 232.768ZM327.66 213.424C333.036 213.424 336.636 217.12 336.636 223.024V238H333.468V223.024C333.468 218.848 331.116 216.496 327.612 216.496C323.628 216.496 320.94 219.088 320.94 224.704V238H317.772V223.024C317.772 218.8 315.612 216.496 312.156 216.496C308.316 216.496 305.244 219.136 305.244 224.704V238H302.076V214H305.244V217.504C306.972 214.768 309.42 213.424 312.588 213.424C316.044 213.424 318.492 214.864 319.884 217.792C321.612 214.864 324.204 213.424 327.66 213.424ZM356.251 213.424C359.803 213.424 362.683 214.672 364.843 217.216C367.051 219.712 368.155 222.688 368.155 226.096C368.155 226.432 368.107 226.96 368.059 227.584H346.987C347.611 232.432 351.403 235.504 356.539 235.504C360.187 235.504 362.923 233.872 364.267 231.424L367.051 233.056C364.939 236.464 361.147 238.576 356.491 238.576C352.699 238.576 349.627 237.376 347.275 235.024C344.923 232.672 343.723 229.648 343.723 226C343.723 222.4 344.875 219.424 347.227 217.024C349.579 214.624 352.555 213.424 356.251 213.424ZM356.251 216.496C351.259 216.496 347.611 219.76 346.987 224.512H364.891C364.555 221.968 363.595 220 361.963 218.608C360.331 217.216 358.411 216.496 356.251 216.496ZM377.153 220.288C377.153 222.448 379.361 223.648 382.097 224.368C386.129 225.376 391.169 226.48 391.169 231.664C391.169 233.728 390.353 235.36 388.721 236.656C387.137 237.952 385.025 238.576 382.481 238.576C377.873 238.576 374.513 236.32 373.217 233.056L375.905 231.472C376.817 233.968 379.265 235.504 382.481 235.504C385.601 235.504 388.001 234.304 388.001 231.664C388.001 229.504 385.793 228.304 383.057 227.584C379.025 226.576 373.985 225.472 373.985 220.288C373.985 218.32 374.753 216.688 376.289 215.392C377.873 214.096 379.841 213.424 382.193 213.424C386.081 213.424 389.201 215.296 390.593 218.32L387.953 219.856C387.041 217.6 385.121 216.496 382.193 216.496C379.457 216.496 377.153 217.84 377.153 220.288ZM424.342 213.424C427.894 213.424 430.774 214.672 432.934 217.216C435.142 219.712 436.246 222.688 436.246 226.096C436.246 226.432 436.198 226.96 436.15 227.584H415.078C415.702 232.432 419.494 235.504 424.63 235.504C428.278 235.504 431.014 233.872 432.358 231.424L435.142 233.056C433.03 236.464 429.238 238.576 424.582 238.576C420.79 238.576 417.718 237.376 415.366 235.024C413.014 232.672 411.814 229.648 411.814 226C411.814 222.4 412.966 219.424 415.318 217.024C417.67 214.624 420.646 213.424 424.342 213.424ZM424.342 216.496C419.35 216.496 415.702 219.76 415.078 224.512H432.982C432.646 221.968 431.686 220 430.054 218.608C428.422 217.216 426.502 216.496 424.342 216.496ZM464.325 218.704V214H467.493V238H464.325V233.296C462.117 236.8 458.901 238.576 454.629 238.576C451.221 238.576 448.293 237.376 445.845 234.928C443.445 232.48 442.245 229.504 442.245 226C442.245 222.496 443.445 219.52 445.845 217.072C448.293 214.624 451.221 213.424 454.629 213.424C458.901 213.424 462.117 215.2 464.325 218.704ZM448.149 232.768C449.973 234.592 452.229 235.504 454.869 235.504C457.509 235.504 459.765 234.592 461.589 232.768C463.413 230.896 464.325 228.64 464.325 226C464.325 223.36 463.413 221.104 461.589 219.28C459.765 217.408 457.509 216.496 454.869 216.496C452.229 216.496 449.973 217.408 448.149 219.28C446.325 221.104 445.413 223.36 445.413 226C445.413 228.64 446.325 230.896 448.149 232.768ZM479.097 220.288C479.097 222.448 481.305 223.648 484.041 224.368C488.073 225.376 493.113 226.48 493.113 231.664C493.113 233.728 492.297 235.36 490.665 236.656C489.081 237.952 486.969 238.576 484.425 238.576C479.817 238.576 476.457 236.32 475.161 233.056L477.849 231.472C478.761 233.968 481.209 235.504 484.425 235.504C487.545 235.504 489.945 234.304 489.945 231.664C489.945 229.504 487.737 228.304 485.001 227.584C480.969 226.576 475.929 225.472 475.929 220.288C475.929 218.32 476.697 216.688 478.233 215.392C479.817 214.096 481.785 213.424 484.137 213.424C488.025 213.424 491.145 215.296 492.537 218.32L489.897 219.856C488.985 217.6 487.065 216.496 484.137 216.496C481.401 216.496 479.097 217.84 479.097 220.288ZM504.014 209.824C503.102 210.736 501.662 210.736 500.75 209.824C499.838 208.912 499.838 207.472 500.75 206.56C501.662 205.648 503.102 205.648 504.014 206.56C504.926 207.472 504.926 208.912 504.014 209.824ZM503.966 238H500.798V214H503.966V238ZM524.176 213.424C527.728 213.424 530.608 214.672 532.768 217.216C534.976 219.712 536.08 222.688 536.08 226.096C536.08 226.432 536.032 226.96 535.984 227.584H514.912C515.536 232.432 519.328 235.504 524.464 235.504C528.112 235.504 530.848 233.872 532.192 231.424L534.976 233.056C532.864 236.464 529.072 238.576 524.416 238.576C520.624 238.576 517.552 237.376 515.2 235.024C512.848 232.672 511.648 229.648 511.648 226C511.648 222.4 512.8 219.424 515.152 217.024C517.504 214.624 520.48 213.424 524.176 213.424ZM524.176 216.496C519.184 216.496 515.536 219.76 514.912 224.512H532.816C532.48 221.968 531.52 220 529.888 218.608C528.256 217.216 526.336 216.496 524.176 216.496ZM546.687 214V217.984C548.175 215.056 550.671 213.616 554.271 213.616V216.688C549.903 216.688 546.687 219.136 546.687 224.656V238H543.519V214H546.687ZM588.133 214V217.072H581.221V231.616C581.221 235.744 583.525 235.408 588.133 235.216V238C581.413 239.008 578.053 237.184 578.053 231.616V217.072H573.013V214H578.053V208.24L581.221 207.28V214H588.133ZM615.925 234.976C613.477 237.376 610.501 238.576 606.997 238.576C603.493 238.576 600.469 237.376 598.021 234.976C595.573 232.528 594.373 229.552 594.373 226C594.373 222.448 595.573 219.472 598.021 217.072C600.469 214.624 603.493 213.424 606.997 213.424C610.501 213.424 613.477 214.624 615.925 217.072C618.373 219.472 619.621 222.448 619.621 226C619.621 229.552 618.373 232.528 615.925 234.976ZM600.277 232.768C602.101 234.592 604.357 235.504 606.997 235.504C609.637 235.504 611.893 234.592 613.717 232.768C615.541 230.896 616.453 228.64 616.453 226C616.453 223.36 615.541 221.104 613.717 219.28C611.893 217.408 609.637 216.496 606.997 216.496C604.357 216.496 602.101 217.408 600.277 219.28C598.453 221.104 597.541 223.36 597.541 226C597.541 228.64 598.453 230.896 600.277 232.768ZM652.906 238.576C649.306 238.576 646.282 237.376 643.882 234.976C641.482 232.528 640.282 229.552 640.282 226C640.282 222.448 641.482 219.472 643.882 217.072C646.282 214.624 649.306 213.424 652.906 213.424C657.658 213.424 661.69 215.872 663.418 219.712L660.826 221.2C659.53 218.32 656.506 216.496 652.906 216.496C650.266 216.496 648.01 217.408 646.186 219.28C644.362 221.104 643.45 223.36 643.45 226C643.45 228.64 644.362 230.896 646.186 232.768C648.01 234.592 650.266 235.504 652.906 235.504C656.506 235.504 659.434 233.68 661.018 230.8L663.658 232.336C661.69 236.176 657.562 238.576 652.906 238.576ZM673.775 214V217.984C675.263 215.056 677.759 213.616 681.359 213.616V216.688C676.991 216.688 673.775 219.136 673.775 224.656V238H670.607V214H673.775ZM699.189 213.424C702.741 213.424 705.621 214.672 707.781 217.216C709.989 219.712 711.093 222.688 711.093 226.096C711.093 226.432 711.045 226.96 710.997 227.584H689.925C690.549 232.432 694.341 235.504 699.477 235.504C703.125 235.504 705.861 233.872 707.205 231.424L709.989 233.056C707.877 236.464 704.085 238.576 699.429 238.576C695.637 238.576 692.565 237.376 690.213 235.024C687.861 232.672 686.661 229.648 686.661 226C686.661 222.4 687.813 219.424 690.165 217.024C692.517 214.624 695.493 213.424 699.189 213.424ZM699.189 216.496C694.197 216.496 690.549 219.76 689.925 224.512H707.829C707.493 221.968 706.533 220 704.901 218.608C703.269 217.216 701.349 216.496 699.189 216.496ZM739.172 218.704V214H742.34V238H739.172V233.296C736.964 236.8 733.748 238.576 729.476 238.576C726.068 238.576 723.14 237.376 720.692 234.928C718.292 232.48 717.092 229.504 717.092 226C717.092 222.496 718.292 219.52 720.692 217.072C723.14 214.624 726.068 213.424 729.476 213.424C733.748 213.424 736.964 215.2 739.172 218.704ZM722.996 232.768C724.82 234.592 727.076 235.504 729.716 235.504C732.356 235.504 734.612 234.592 736.436 232.768C738.26 230.896 739.172 228.64 739.172 226C739.172 223.36 738.26 221.104 736.436 219.28C734.612 217.408 732.356 216.496 729.716 216.496C727.076 216.496 724.82 217.408 722.996 219.28C721.172 221.104 720.26 223.36 720.26 226C720.26 228.64 721.172 230.896 722.996 232.768ZM764.168 214V217.072H757.256V231.616C757.256 235.744 759.56 235.408 764.168 235.216V238C757.448 239.008 754.088 237.184 754.088 231.616V217.072H749.048V214H754.088V208.24L757.256 207.28V214H764.168ZM782.935 213.424C786.487 213.424 789.367 214.672 791.527 217.216C793.735 219.712 794.839 222.688 794.839 226.096C794.839 226.432 794.791 226.96 794.743 227.584H773.671C774.295 232.432 778.087 235.504 783.223 235.504C786.871 235.504 789.607 233.872 790.951 231.424L793.735 233.056C791.623 236.464 787.831 238.576 783.175 238.576C779.383 238.576 776.311 237.376 773.959 235.024C771.607 232.672 770.407 229.648 770.407 226C770.407 222.4 771.559 219.424 773.911 217.024C776.263 214.624 779.239 213.424 782.935 213.424ZM782.935 216.496C777.943 216.496 774.295 219.76 773.671 224.512H791.575C791.239 221.968 790.279 220 788.647 218.608C787.015 217.216 785.095 216.496 782.935 216.496ZM819.175 220.288C819.175 222.448 821.383 223.648 824.119 224.368C828.151 225.376 833.191 226.48 833.191 231.664C833.191 233.728 832.375 235.36 830.743 236.656C829.159 237.952 827.047 238.576 824.503 238.576C819.895 238.576 816.535 236.32 815.239 233.056L817.927 231.472C818.839 233.968 821.287 235.504 824.503 235.504C827.623 235.504 830.023 234.304 830.023 231.664C830.023 229.504 827.815 228.304 825.079 227.584C821.047 226.576 816.007 225.472 816.007 220.288C816.007 218.32 816.775 216.688 818.311 215.392C819.895 214.096 821.863 213.424 824.215 213.424C828.103 213.424 831.223 215.296 832.615 218.32L829.975 219.856C829.063 217.6 827.143 216.496 824.215 216.496C821.479 216.496 819.175 217.84 819.175 220.288ZM847.404 225.52L860.268 238H856.044L844.044 226.432V238H840.876V204.4H844.044V224.608L855.468 214H859.788L847.404 225.52ZM878.082 213.424C881.634 213.424 884.514 214.672 886.674 217.216C888.882 219.712 889.986 222.688 889.986 226.096C889.986 226.432 889.938 226.96 889.89 227.584H868.818C869.442 232.432 873.234 235.504 878.37 235.504C882.018 235.504 884.754 233.872 886.098 231.424L888.882 233.056C886.77 236.464 882.978 238.576 878.322 238.576C874.53 238.576 871.458 237.376 869.106 235.024C866.754 232.672 865.554 229.648 865.554 226C865.554 222.4 866.706 219.424 869.058 217.024C871.41 214.624 874.386 213.424 878.082 213.424ZM878.082 216.496C873.09 216.496 869.442 219.76 868.818 224.512H886.722C886.386 221.968 885.426 220 883.794 218.608C882.162 217.216 880.242 216.496 878.082 216.496ZM909.442 214V217.072H902.53V231.616C902.53 235.744 904.834 235.408 909.442 235.216V238C902.722 239.008 899.362 237.184 899.362 231.616V217.072H894.322V214H899.362V208.24L902.53 207.28V214H909.442ZM928.307 238.576C924.707 238.576 921.683 237.376 919.283 234.976C916.883 232.528 915.683 229.552 915.683 226C915.683 222.448 916.883 219.472 919.283 217.072C921.683 214.624 924.707 213.424 928.307 213.424C933.059 213.424 937.091 215.872 938.819 219.712L936.227 221.2C934.931 218.32 931.907 216.496 928.307 216.496C925.667 216.496 923.411 217.408 921.587 219.28C919.763 221.104 918.851 223.36 918.851 226C918.851 228.64 919.763 230.896 921.587 232.768C923.411 234.592 925.667 235.504 928.307 235.504C931.907 235.504 934.835 233.68 936.419 230.8L939.059 232.336C937.091 236.176 932.963 238.576 928.307 238.576ZM957.239 213.424C963.047 213.424 966.647 217.264 966.647 223.264V238H963.479V223.264C963.479 218.992 961.127 216.496 956.951 216.496C952.343 216.496 949.175 219.328 949.175 225.424V238H946.007V204.4H949.175V217.744C950.951 214.864 953.639 213.424 957.239 213.424ZM986.261 213.424C989.813 213.424 992.693 214.672 994.853 217.216C997.061 219.712 998.165 222.688 998.165 226.096C998.165 226.432 998.117 226.96 998.069 227.584H976.997C977.621 232.432 981.413 235.504 986.549 235.504C990.197 235.504 992.933 233.872 994.277 231.424L997.061 233.056C994.949 236.464 991.157 238.576 986.501 238.576C982.709 238.576 979.637 237.376 977.285 235.024C974.933 232.672 973.733 229.648 973.733 226C973.733 222.4 974.885 219.424 977.237 217.024C979.589 214.624 982.565 213.424 986.261 213.424ZM986.261 216.496C981.269 216.496 977.621 219.76 976.997 224.512H994.901C994.565 221.968 993.605 220 991.973 218.608C990.341 217.216 988.421 216.496 986.261 216.496ZM1007.16 220.288C1007.16 222.448 1009.37 223.648 1012.11 224.368C1016.14 225.376 1021.18 226.48 1021.18 231.664C1021.18 233.728 1020.36 235.36 1018.73 236.656C1017.15 237.952 1015.03 238.576 1012.49 238.576C1007.88 238.576 1004.52 236.32 1003.23 233.056L1005.91 231.472C1006.83 233.968 1009.27 235.504 1012.49 235.504C1015.61 235.504 1018.01 234.304 1018.01 231.664C1018.01 229.504 1015.8 228.304 1013.07 227.584C1009.03 226.576 1003.99 225.472 1003.99 220.288C1003.99 218.32 1004.76 216.688 1006.3 215.392C1007.88 214.096 1009.85 213.424 1012.2 213.424C1016.09 213.424 1019.21 215.296 1020.6 218.32L1017.96 219.856C1017.05 217.6 1015.13 216.496 1012.2 216.496C1009.47 216.496 1007.16 217.84 1007.16 220.288ZM1032.43 237.712C1031.42 238.72 1029.69 238.72 1028.68 237.712C1027.67 236.704 1027.67 234.976 1028.68 233.968C1029.69 232.96 1031.42 232.96 1032.43 233.968C1033.43 234.976 1033.43 236.704 1032.43 237.712Z" fill="white"/>
<defs>
<filter id="filter0_d_298_37614" x="204.518" y="18.824" width="636.064" height="106.824" filterUnits="userSpaceOnUse" color-interpolation-filters="sRGB">
<feFlood flood-opacity="0" result="BackgroundImageFix"/>
<feColorMatrix in="SourceAlpha" type="matrix" values="0 0 0 0 0 0 0 0 0 0 0 0 0 0 0 0 0 0 127 0" result="hardAlpha"/>
<feOffset dy="12"/>
<feGaussianBlur stdDeviation="12"/>
<feComposite in2="hardAlpha" operator="out"/>
<feColorMatrix type="matrix" values="0 0 0 0 0 0 0 0 0 0 0 0 0 0 0 0 0 0 1 0"/>
<feBlend mode="normal" in2="BackgroundImageFix" result="effect1_dropShadow_298_37614"/>
<feBlend mode="normal" in="SourceGraphic" in2="effect1_dropShadow_298_37614" result="shape"/>
</filter>
<linearGradient id="paint0_linear_298_37614" x1="228" y1="63.5" x2="817" y2="63.5" gradientUnits="userSpaceOnUse">
<stop stop-color="#EC4899"/>
<stop offset="0.505208" stop-color="#EF4444"/>
<stop offset="1" stop-color="#EAB308"/>
</linearGradient>
</defs>
</svg>
